<mxfile modified="2021-09-19T05:52:01.317Z" host="app.diagrams.net" agent="5.0 (Windows NT 10.0; Win64; x64) AppleWebKit/537.36 (KHTML, like Gecko) Chrome/93.0.4577.82 Safari/537.36" etag="ZjLRMRXVcudhZH5W_YiZ" version="15.2.9" type="github">
  <diagram id="l8hXMBHkgcEJcSW0mbfh" name="Page-1">
    <mxGraphModel dx="1422" dy="857" grid="1" gridSize="10" guides="1" tooltips="1" connect="1" arrows="1" fold="1" page="1" pageScale="1" pageWidth="827" pageHeight="1169" math="0" shadow="0">
      <root>
        <mxCell id="0" />
        <mxCell id="1" parent="0" />
        <mxCell id="hJJdkhpLcyISavDwx0z2-18" style="edgeStyle=none;rounded=0;orthogonalLoop=1;jettySize=auto;html=1;startArrow=classic;startFill=1;" edge="1" parent="1" source="hJJdkhpLcyISavDwx0z2-1">
          <mxGeometry relative="1" as="geometry">
            <mxPoint x="544" y="190" as="targetPoint" />
          </mxGeometry>
        </mxCell>
        <mxCell id="hJJdkhpLcyISavDwx0z2-1" value="Quản trị viên" style="shape=image;verticalLabelPosition=top;verticalAlign=bottom;imageAspect=0;aspect=fixed;image=data:image/svg+xml,PHN2ZyB4bWxucz0iaHR0cDovL3d3dy53My5vcmcvMjAwMC9zdmciIHZlcnNpb249IjEiIHZpZXdCb3g9IjAgMCA0OCA0OCIgZW5hYmxlLWJhY2tncm91bmQ9Im5ldyAwIDAgNDggNDgiPiYjeGE7ICAgIDxwb2x5Z29uIGZpbGw9IiNGRjk4MDAiIHBvaW50cz0iMjQsMzcgMTksMzEgMTksMjUgMjksMjUgMjksMzEiLz4mI3hhOyAgICA8ZyBmaWxsPSIjRkZBNzI2Ij4mI3hhOyAgICAgICAgPGNpcmNsZSBjeD0iMzMiIGN5PSIxOSIgcj0iMiIvPiYjeGE7ICAgICAgICA8Y2lyY2xlIGN4PSIxNSIgY3k9IjE5IiByPSIyIi8+JiN4YTsgICAgPC9nPiYjeGE7ICAgIDxwYXRoIGZpbGw9IiNGRkI3NEQiIGQ9Ik0zMywxM2MwLTcuNi0xOC01LTE4LDBjMCwxLjEsMCw1LjksMCw3YzAsNSw0LDksOSw5czktNCw5LTlDMzMsMTguOSwzMywxNC4xLDMzLDEzeiIvPiYjeGE7ICAgIDxwYXRoIGZpbGw9IiM0MjQyNDIiIGQ9Ik0yNCw0Yy02LjEsMC0xMCw0LjktMTAsMTFjMCwwLjgsMCwyLjMsMCwyLjNsMiwxLjd2LTVsMTItNGw0LDR2NWwyLTEuN2MwLDAsMC0xLjUsMC0yLjNjMC00LTEtOC02LTlsLTEtMiBIMjR6Ii8+JiN4YTsgICAgPGcgZmlsbD0iIzc4NDcxOSI+JiN4YTsgICAgICAgIDxjaXJjbGUgY3g9IjI4IiBjeT0iMTkiIHI9IjEiLz4mI3hhOyAgICAgICAgPGNpcmNsZSBjeD0iMjAiIGN5PSIxOSIgcj0iMSIvPiYjeGE7ICAgIDwvZz4mI3hhOyAgICA8cG9seWdvbiBmaWxsPSIjZmZmIiBwb2ludHM9IjI0LDQzIDE5LDMxIDI0LDMyIDI5LDMxIi8+JiN4YTsgICAgPHBvbHlnb24gZmlsbD0iI0QzMkYyRiIgcG9pbnRzPSIyMywzNSAyMi4zLDM5LjUgMjQsNDMuNSAyNS43LDM5LjUgMjUsMzUgMjYsMzQgMjQsMzIgMjIsMzQiLz4mI3hhOyAgICA8cGF0aCBmaWxsPSIjNTQ2RTdBIiBkPSJNMjksMzFMMjksMzFsLTUsMTJsLTUtMTJjMCwwLTExLDItMTEsMTNoMzJDNDAsMzMsMjksMzEsMjksMzF6Ii8+JiN4YTs8L3N2Zz4=;labelPosition=center;align=center;" vertex="1" parent="1">
          <mxGeometry x="520" y="78" width="48" height="48" as="geometry" />
        </mxCell>
        <mxCell id="hJJdkhpLcyISavDwx0z2-16" style="edgeStyle=none;rounded=0;orthogonalLoop=1;jettySize=auto;html=1;startArrow=classic;startFill=1;" edge="1" parent="1" source="hJJdkhpLcyISavDwx0z2-2">
          <mxGeometry relative="1" as="geometry">
            <mxPoint x="304" y="190" as="targetPoint" />
          </mxGeometry>
        </mxCell>
        <mxCell id="hJJdkhpLcyISavDwx0z2-2" value="Người mua" style="shape=image;verticalLabelPosition=top;verticalAlign=bottom;imageAspect=0;aspect=fixed;image=data:image/svg+xml,PHN2ZyB4bWxucz0iaHR0cDovL3d3dy53My5vcmcvMjAwMC9zdmciIHZlcnNpb249IjEiIHZpZXdCb3g9IjAgMCA0OCA0OCIgZW5hYmxlLWJhY2tncm91bmQ9Im5ldyAwIDAgNDggNDgiPiYjeGE7ICAgIDxyZWN0IHg9IjE2IiB5PSIxNSIgZmlsbD0iI0JGMzYwQyIgd2lkdGg9IjE2IiBoZWlnaHQ9IjE4Ii8+JiN4YTsgICAgPHBhdGggZmlsbD0iIzc4OTA5QyIgZD0iTTQwLDQ0SDhjMC0xMSwxMS0xMywxMS0xM2gxMEMyOSwzMSw0MCwzMyw0MCw0NHoiLz4mI3hhOyAgICA8cGF0aCBmaWxsPSIjRkY5ODAwIiBkPSJNMjQsMzdjLTIuMiwwLTUtNi01LTZ2LTZoMTB2NkMyOSwzMSwyNi4yLDM3LDI0LDM3eiIvPiYjeGE7ICAgIDxwYXRoIGZpbGw9IiNGRkI3NEQiIGQ9Ik0zMywxNGMwLTcuNi0xOC01LTE4LDBjMCwxLjEsMCw1LjksMCw3YzAsNSw0LDksOSw5czktNCw5LTlDMzMsMTkuOSwzMywxNS4xLDMzLDE0eiIvPiYjeGE7ICAgIDxwYXRoIGZpbGw9IiNGRjU3MjIiIGQ9Ik0yNCw0QzE3LjksNCw5LDcuNCw5LDI3LjNsNyw0LjdWMTlsMTItN2w0LDV2MTVsNy02YzAtNC0wLjctMjAtMTEtMjBsLTEtMkgyNHoiLz4mI3hhOyAgICA8cGF0aCBmaWxsPSIjRkZCNzREIiBkPSJNMjQsMzhjLTQuNCwwLTUtNy01LTdzMi41LDQsNSw0czUtNCw1LTRTMjguNCwzOCwyNCwzOHoiLz4mI3hhOyAgICA8Y2lyY2xlIGZpbGw9IiM3ODQ3MTkiIGN4PSIyOCIgY3k9IjIxIiByPSIxIi8+JiN4YTsgICAgPGNpcmNsZSBmaWxsPSIjNzg0NzE5IiBjeD0iMjAiIGN5PSIyMSIgcj0iMSIvPiYjeGE7PC9zdmc+;labelPosition=center;align=center;" vertex="1" parent="1">
          <mxGeometry x="280" y="80" width="48" height="48" as="geometry" />
        </mxCell>
        <mxCell id="hJJdkhpLcyISavDwx0z2-17" style="edgeStyle=none;rounded=0;orthogonalLoop=1;jettySize=auto;html=1;startArrow=classic;startFill=1;" edge="1" parent="1" source="hJJdkhpLcyISavDwx0z2-3">
          <mxGeometry relative="1" as="geometry">
            <mxPoint x="424" y="190" as="targetPoint" />
          </mxGeometry>
        </mxCell>
        <mxCell id="hJJdkhpLcyISavDwx0z2-3" value="Dấu giá viên" style="shape=image;verticalLabelPosition=top;verticalAlign=bottom;imageAspect=0;aspect=fixed;image=data:image/svg+xml,PHN2ZyB4bWxucz0iaHR0cDovL3d3dy53My5vcmcvMjAwMC9zdmciIHZlcnNpb249IjEiIHZpZXdCb3g9IjAgMCA0OCA0OCIgZW5hYmxlLWJhY2tncm91bmQ9Im5ldyAwIDAgNDggNDgiPiYjeGE7ICAgIDxnIGZpbGw9IiNGRkE3MjYiPiYjeGE7ICAgICAgICA8Y2lyY2xlIGN4PSIxMCIgY3k9IjI2IiByPSI0Ii8+JiN4YTsgICAgICAgIDxjaXJjbGUgY3g9IjM4IiBjeT0iMjYiIHI9IjQiLz4mI3hhOyAgICA8L2c+JiN4YTsgICAgPHBhdGggZmlsbD0iI0ZGQjc0RCIgZD0iTTM5LDE5YzAtMTIuNy0zMC04LjMtMzAsMGMwLDEuOCwwLDguMiwwLDEwYzAsOC4zLDYuNywxNSwxNSwxNXMxNS02LjcsMTUtMTVDMzksMjcuMiwzOSwyMC44LDM5LDE5eiIvPiYjeGE7ICAgIDxwYXRoIGZpbGw9IiNGRjU3MjIiIGQ9Ik0yNCwzQzE0LjYsMyw3LDEwLjYsNywyMGMwLDEuMiwwLDMuNCwwLDMuNEw5LDI1di0zbDIxLTkuOGw5LDkuOHYzbDItMS42YzAsMCwwLTIuMSwwLTMuNCBDNDEsMTIsMzUuMywzLDI0LDN6Ii8+JiN4YTsgICAgPGcgZmlsbD0iIzc4NDcxOSI+JiN4YTsgICAgICAgIDxjaXJjbGUgY3g9IjMxIiBjeT0iMjYiIHI9IjIiLz4mI3hhOyAgICAgICAgPGNpcmNsZSBjeD0iMTciIGN5PSIyNiIgcj0iMiIvPiYjeGE7ICAgIDwvZz4mI3hhOyAgICA8cGF0aCBmaWxsPSIjNzU3NTc1IiBkPSJNNDMsMjRjLTAuNiwwLTEsMC40LTEsMXYtN2MwLTguOC03LjItMTYtMTYtMTZoLTdjLTAuNiwwLTEsMC40LTEsMXMwLjQsMSwxLDFoN2M3LjcsMCwxNCw2LjMsMTQsMTR2MTAgYzAsMC42LDAuNCwxLDEsMXMxLTAuNCwxLTF2MmMwLDMuOS0zLjEsNy03LDdIMjRjLTAuNiwwLTEsMC40LTEsMXMwLjQsMSwxLDFoMTFjNSwwLDktNCw5LTl2LTVDNDQsMjQuNCw0My42LDI0LDQzLDI0eiIvPiYjeGE7ICAgIDxnIGZpbGw9IiMzNzQ3NEYiPiYjeGE7ICAgICAgICA8cGF0aCBkPSJNNDMsMjJoLTFjLTEuMSwwLTIsMC45LTIsMnY0YzAsMS4xLDAuOSwyLDIsMmgxYzEuMSwwLDItMC45LDItMnYtNEM0NSwyMi45LDQ0LjEsMjIsNDMsMjJ6Ii8+JiN4YTsgICAgICAgIDxjaXJjbGUgY3g9IjI0IiBjeT0iMzgiIHI9IjIiLz4mI3hhOyAgICA8L2c+JiN4YTs8L3N2Zz4=;labelPosition=center;align=center;" vertex="1" parent="1">
          <mxGeometry x="400" y="78" width="48" height="48" as="geometry" />
        </mxCell>
        <mxCell id="hJJdkhpLcyISavDwx0z2-19" style="edgeStyle=none;rounded=0;orthogonalLoop=1;jettySize=auto;html=1;startArrow=classic;startFill=1;" edge="1" parent="1" source="hJJdkhpLcyISavDwx0z2-4">
          <mxGeometry relative="1" as="geometry">
            <mxPoint x="664" y="190" as="targetPoint" />
          </mxGeometry>
        </mxCell>
        <mxCell id="hJJdkhpLcyISavDwx0z2-4" value="Đơn vị có tài sản" style="shape=image;verticalLabelPosition=top;verticalAlign=bottom;imageAspect=0;aspect=fixed;image=data:image/svg+xml,PHN2ZyB4bWxucz0iaHR0cDovL3d3dy53My5vcmcvMjAwMC9zdmciIHZlcnNpb249IjEiIHZpZXdCb3g9IjAgMCA0OCA0OCIgZW5hYmxlLWJhY2tncm91bmQ9Im5ldyAwIDAgNDggNDgiPiYjeGE7ICAgIDxwYXRoIGZpbGw9IiM0MEM0RkYiIGQ9Ik00Mi45LDYuM0M0My42LDcuNCw0NCw4LjYsNDQsMTBjMCwzLjktMy4xLDctNyw3Yy0wLjcsMC0xLjMtMC4xLTEuOS0wLjNjMS4yLDIsMy40LDMuMyw1LjksMy4zIGMzLjksMCw3LTMuMSw3LTdDNDgsOS44LDQ1LjksNy4xLDQyLjksNi4zeiIvPiYjeGE7ICAgIDxnIGZpbGw9IiNCMzlEREIiPiYjeGE7ICAgICAgICA8Y2lyY2xlIGN4PSIzMSIgY3k9IjE5IiByPSIyIi8+JiN4YTsgICAgICAgIDxjaXJjbGUgY3g9IjEzIiBjeT0iMTkiIHI9IjIiLz4mI3hhOyAgICAgICAgPHBvbHlnb24gcG9pbnRzPSIyMiwzNyAxNywzMSAxNywyNSAyNywyNSAyNywzMSIvPiYjeGE7ICAgIDwvZz4mI3hhOyAgICA8cGF0aCBmaWxsPSIjRDFDNEU5IiBkPSJNMzEsMTNjMC03LjYtMTgtNS0xOCwwYzAsMS4xLDAsNS45LDAsN2MwLDUsNCw5LDksOXM5LTQsOS05QzMxLDE4LjksMzEsMTQuMSwzMSwxM3oiLz4mI3hhOyAgICA8ZyBmaWxsPSIjNjczQUI3Ij4mI3hhOyAgICAgICAgPGNpcmNsZSBjeD0iMjYiIGN5PSIxOSIgcj0iMSIvPiYjeGE7ICAgICAgICA8Y2lyY2xlIGN4PSIxOCIgY3k9IjE5IiByPSIxIi8+JiN4YTsgICAgICAgIDxwYXRoIGQ9Ik0yMiw0Yy02LjEsMC0xMCw0LjktMTAsMTFjMCwwLjgsMCwyLjMsMCwyLjNsMiwxLjd2LTVsMTItNGw0LDR2NWwyLTEuN2MwLDAsMC0xLjUsMC0yLjNjMC00LTEtOC02LTlsLTEtMiBIMjJ6Ii8+JiN4YTsgICAgICAgIDxwYXRoIGQ9Ik0yNywzMUwyNywzMWMwLDAtMiwxLTUsMXMtNS0xLTUtMVM2LDMzLDYsNDRoMzJDMzgsMzMsMjcsMzEsMjcsMzF6Ii8+JiN4YTsgICAgPC9nPiYjeGE7PC9zdmc+;labelPosition=center;align=center;" vertex="1" parent="1">
          <mxGeometry x="640" y="78" width="48" height="48" as="geometry" />
        </mxCell>
        <mxCell id="hJJdkhpLcyISavDwx0z2-7" value="PC" style="sketch=0;pointerEvents=1;shadow=0;dashed=0;html=1;strokeColor=none;fillColor=#505050;labelPosition=center;verticalLabelPosition=bottom;verticalAlign=top;outlineConnect=0;align=center;shape=mxgraph.office.devices.workstation_pc;" vertex="1" parent="1">
          <mxGeometry x="271.5" y="230" width="65" height="80" as="geometry" />
        </mxCell>
        <mxCell id="hJJdkhpLcyISavDwx0z2-8" value="Laptop" style="verticalLabelPosition=bottom;sketch=0;aspect=fixed;html=1;verticalAlign=top;strokeColor=none;align=center;outlineConnect=0;shape=mxgraph.citrix.laptop_1;" vertex="1" parent="1">
          <mxGeometry x="370" y="233" width="91" height="77" as="geometry" />
        </mxCell>
        <mxCell id="hJJdkhpLcyISavDwx0z2-11" value="Smartphone" style="shape=image;html=1;verticalAlign=top;verticalLabelPosition=bottom;labelBackgroundColor=#ffffff;imageAspect=0;aspect=fixed;image=https://cdn4.iconfinder.com/data/icons/ionicons/512/icon-iphone-128.png" vertex="1" parent="1">
          <mxGeometry x="611" y="233" width="77" height="77" as="geometry" />
        </mxCell>
        <mxCell id="hJJdkhpLcyISavDwx0z2-12" value="Tablet" style="verticalLabelPosition=bottom;sketch=0;aspect=fixed;html=1;verticalAlign=top;strokeColor=none;align=center;outlineConnect=0;shape=mxgraph.citrix.tablet_2;" vertex="1" parent="1">
          <mxGeometry x="510" y="240" width="66.74" height="70" as="geometry" />
        </mxCell>
        <mxCell id="hJJdkhpLcyISavDwx0z2-21" value="" style="rounded=0;whiteSpace=wrap;html=1;fillColor=none;" vertex="1" parent="1">
          <mxGeometry x="257.53" y="218" width="440" height="120" as="geometry" />
        </mxCell>
        <mxCell id="hJJdkhpLcyISavDwx0z2-13" value="Internet" style="aspect=fixed;perimeter=ellipsePerimeter;html=1;align=right;shadow=0;dashed=0;spacingTop=3;image;image=img/lib/active_directory/internet_cloud.svg;verticalAlign=top;textDirection=ltr;labelPosition=left;verticalLabelPosition=bottom;" vertex="1" parent="1">
          <mxGeometry x="432.7" y="386" width="87.3" height="55" as="geometry" />
        </mxCell>
        <mxCell id="hJJdkhpLcyISavDwx0z2-14" value="" style="shape=link;html=1;" edge="1" parent="1">
          <mxGeometry width="100" relative="1" as="geometry">
            <mxPoint x="280" y="190" as="sourcePoint" />
            <mxPoint x="680" y="190" as="targetPoint" />
          </mxGeometry>
        </mxCell>
        <mxCell id="hJJdkhpLcyISavDwx0z2-22" style="edgeStyle=none;rounded=0;orthogonalLoop=1;jettySize=auto;html=1;startArrow=classic;startFill=1;" edge="1" parent="1">
          <mxGeometry relative="1" as="geometry">
            <mxPoint x="481" y="219" as="targetPoint" />
            <mxPoint x="481" y="189" as="sourcePoint" />
          </mxGeometry>
        </mxCell>
        <mxCell id="hJJdkhpLcyISavDwx0z2-25" style="edgeStyle=none;rounded=0;orthogonalLoop=1;jettySize=auto;html=1;startArrow=classic;startFill=1;" edge="1" parent="1">
          <mxGeometry relative="1" as="geometry">
            <mxPoint x="470" y="397" as="targetPoint" />
            <mxPoint x="470" y="335" as="sourcePoint" />
          </mxGeometry>
        </mxCell>
        <mxCell id="hJJdkhpLcyISavDwx0z2-27" style="edgeStyle=none;rounded=0;orthogonalLoop=1;jettySize=auto;html=1;startArrow=classic;startFill=1;" edge="1" parent="1">
          <mxGeometry relative="1" as="geometry">
            <mxPoint x="467.2" y="492" as="targetPoint" />
            <mxPoint x="467.2" y="430" as="sourcePoint" />
          </mxGeometry>
        </mxCell>
        <mxCell id="hJJdkhpLcyISavDwx0z2-33" value="" style="edgeStyle=none;rounded=0;orthogonalLoop=1;jettySize=auto;html=1;startArrow=classic;startFill=1;" edge="1" parent="1" source="hJJdkhpLcyISavDwx0z2-29" target="hJJdkhpLcyISavDwx0z2-32">
          <mxGeometry relative="1" as="geometry" />
        </mxCell>
        <mxCell id="hJJdkhpLcyISavDwx0z2-36" value="" style="edgeStyle=none;rounded=0;orthogonalLoop=1;jettySize=auto;html=1;startArrow=classic;startFill=1;" edge="1" parent="1" source="hJJdkhpLcyISavDwx0z2-29" target="hJJdkhpLcyISavDwx0z2-30">
          <mxGeometry relative="1" as="geometry" />
        </mxCell>
        <mxCell id="hJJdkhpLcyISavDwx0z2-29" value="" style="shape=image;verticalLabelPosition=bottom;labelBackgroundColor=#ffffff;verticalAlign=top;aspect=fixed;imageAspect=0;image=data:image/png,iVBORw0KGgoAAAANSUhEUgAAAPwAAABjCAYAAAC/m23xAAAgAElEQVR4AeydB5gUVfb2hwxm16x/d9cNbtBVyQxJQIKkmSEIYlbMEQFzjihxMmEARZAgKCI5R8k5hxmYnFPnrvj7nnOrWwYcEUR38XtmfMrurq4qum7d9570nnMibNsmGAyiaRpn+mfZNnK+Dc5moz5blo1lm9iWgWUFsS0/tukH2wO2F9v2Y6FhomNgoqlPx/fIXh0d58pn+quqjq8agaoRqDgClmU5OLVtIrxeL4YhwLQqHnNa720BtW1i2RYWNqYNug0BC4K2s+m2jWFbmLb8owFsW8OyDSwMnP/bGHKuOl+uJdfUQ5ssJVV/VSNQNQJnMwJhbJumSYSAXd6Ed57RhS2fArFlhyW1TRDw2s7ms2182PhDm4nlLA5qERCgg2GDpTYb23K0AowgGAFRF87o51QdXDUCVSPw4xEIY1u08Qj5WqnlvwRctgtbqegitU0lqQ3bRLdNgraObgWRxcAWDcCyMAzN0QhMAz2oYf6gaoRUDlEyTNksMPUqwP/42VXtqRqBsxqBswK8LXa2bShAO4uGSHADzTQxbLHjUUA3DQPD0LFMA8vQMI0AphXAsgMYSkvQFdLFZheZLr4BxwSokvBn9XSrTq4agZNG4KwALza42O5ggW2ALVI5qOx029SxTUM57kxDnIIeTNOHrnswTB+WLcq+Dwu3ehVjQOx6HYsAqK0K7ic9raqPVSNwliNwVoAX1V1AKo44BfSwta6XYOouNDOI37bw2hYeW6fcDuKyg3gw8Ns6AdOvpLxy5hFQvnrx3QeUze94/s/y/qpOrxqBqhGoMAJnBXgJqYkK73jVgxhoBNHwEqTQtDjgsVmZF+Tr1HK+PFDIrIOlLMnys7nE4mgQypVHX7zy4qcXfUHku45pm5ihkF+F31r1tmoEqkbgLEfgrACvbG7HUFcg9Vs2LtvmqGXz9cFiBszYRvvhy7j1/QX84515NHh1Hm3fW8QDyWtIXJnKruIgpSpmb2NZEinQsCVub2pgVDntzvLZVp1eNQI/GgEF+PBeRaSxjpNpxLNu6xIqszEMsc392P58bNNLwDKwtTIs00VAK6Hc8JBh2qz3ajy1KJ1bhyzkpsS1RM5NI2qrly6rS2n/RTrtU9JpMXwnt746l75xS5mbWkSWbuOyTHTDjRUsw1J2fgCPKd5/WQA8ytsfsE18oQXCse8lei/OP4kGON6E8L1UvVaNQNUI/HgETgS8uOAE5JYQYZzomK3bGLqJYckWwAiWK7BnG1BqW2TrNvvcFsuyfHzyfQa9p6yj/thldF6cxgNHdHqmGdx11CJ6p07MjBJ6Ty6mz6RiosYe446hG+j08VI+WpLB1P2lbCk1SQ9CgWFSZukUWzZBSzz8bixbw2dbitATdhVKDM9x9glXrwrwP368VXuqRuDEETgJ8HqI/KJccRgh57th2miWhWbraLbFjgIf47blMHxjGq8uO8C9U7fQKnYlDZI20GjaIXoe9NL3mEGvrCBdM71EpZt032vRc5qH3hNK6Du+mLs/L6PHhAI6xqdx01trifx0Pb0n7mTw3FRi16UzaesRFh7II9frhPDErveqBUBCf0K7laC9gNwh5or7sMqrf+LDrfpUNQInj8CJgFfedocoo9kmmsTShQMjVFlTPlu4bPh04VaaD59Doy820HjaNhpO30Pzb9PovsVHvwyb6GyD7hlBumcF6Flo0CvToPuOAD2n+bj7czf3jCvi7rEF9J1YSu+JpURPDtJmTAG3fXqA+h/tpNlH64l8Zx79E+ayKb0Iw9YUPVcYfCoUqEJ/shoJyHWE8iNuvyrAn/x4qz5XjcCJI3Ai4C0dFL1VmHIGYjM73nIBvaVAX2zDK/N3cPv0fXTbGyQ6zaRnlknvLI3e2RoxItWzDXrkQs8cm57ZGvek6/TeVk7XiTn0Gp9Hv3GF9EspVpL+rpRCeo0vJ2ZCGd0nuuj2WYCuE7x0HJ1HpyFzWZPuUnCWxcan6DkSGfArz76i3toGprD6lFf/xJur+lQ1AlUjcOIInAB42zSFGqc85kKN9Yey2WxThKmFZuiUAAMX7KHV3CzuyoDoLJ2YggC9irzE5HuIyvcTXWjRJd0iOh16Z1rcd0yjz9Yiek45Rt/Psug7Pp8eKcXEjC+h18Ry7kkpou+4PO4al0/vCR56pATomFBMl/jvWZ2toVkOoP0K8IYCvEP0EV6wLEpiaoiz8cSbq/pUNQJVI3DiCCjAh7n0ghdx2IkaL2RXPxq6eMElTCZeecPhxb2y6BAtFh6jZ56fmHw/PfL99M710ivPS0yBbG565AbonWPTK8Pg3nSL3lvd9Jy0l97jD9MzJYeu40vpPLGcLhNKuWtsCXeNzqXf2Gz6jc7l7jH5xCRk0GXkapbnmLhtQ1F1JRPPVlqIMPQkZu+k4QqPX6tS6U98slWfqkagkhE4AfAqm0156cVWBqHSmEJ5NQMgMXLTwIPJqwsP0HLBUXrl6MTkyqbRK0ejZ06QqLwAUQUBovM0euSZRGdr9M2EmG1Buk/MJWZcHj3HFBI1rpjO44vpPKGYruPddBlbQrcU2Z9Pr7E5RCccoPOINSwTwCtNw1Kpt5YljkXJpxfbPQx4h5JbZcVX8oSrdlWNQIUROAHwfoG42PCiwiv1WYJdOqYpeexSxCKIF53XFu6n1YKj9M62icmxicm16aHsdZuoXJvuBRbdBewFOl1z/fTKhq7bTVp/5qfTWDdRySVEjy6g25gCuo4toFOKi/bjSrhjQil3jC+h8/hcOiftpdOo1Sz9AfDiNARTWHkq8cbJzhPpLr9RnHlVgK/wZKveVo1AJSNwAuC9BNBFgkqSugK9BL8MdDuAaQcxLQ2PAH7BAVrPT6dXFsTkQFSu8xp+3z0fuudZROebFQCv02hSgNvHergzqYTuiQV0T8wlOjGXLmPyaD8mlzYphbRKKaHN+EJaJR2h48i1CvDCw5dQ3A+At4VxL2q8/Eyh5gpBp6pCTiXPt2pX1QicMAInAd6PIRlvumPEixNM5Kd46zVbgG/iwuLVBam0mp9LzxyLqFyR5jbRubbyyoukj853PveQ/Uqlt4nZ5qPlhHzajimgY1IBnZLkNY/OiTl0Sc6lY2IG7ZOzaTe6gHZjCmkRf4yOI9Ypld4n5oQU2bAkdVYkvEh0p9iGyHls+V62X8dr94NPI8Tnr/j5hNGr+lA1Ar+zETgB8D5JV5VYvGYh4lNo8iI3JZE1YNvKE16GzSsL0mk5v5AeeQbd8w26FRjE5Fn0ypHNVu97ZNv0zsFx2mWY9N5axp1jDtE54SgdE7O5PbmQVmPyaT0mlw5JxXRIyKZzYgZ3JmTSOSGHtiPT6DT8e1ZkW/iFXy9SXoXenao48rukuo7UxRPAO1sV4H9n86/q5/6XR0ABPvxvKhs4VIhSMtjChBZV3jLkHS+14OUlh7l9bpay3QXoMXmms+U69ny3TJseYsfnBOiZpXN/BvTeEqRdUgbt4tNplXSMxmOO0nhsGq0T0+iQkEHb2HTaJGTSMvkokYkHaB2/izbD17O0wMQnNfAMP4Zw6i1D0WtlARJpj+5VBTIlm1458RQHT74L5QSc4jUozD21kIlD0FIFOmwp+WWI3+L4JsU4ZdMNE8O0lJ/DtAxM0TSE729ZSJEP27SwdANbNzA1p6KP/I5TbRW1h1/zffiZVnz9Na9f+bXcqgKSMzY2lmljyyb5GWrRFv3QhUYglEgNAdHcpKip4cXWy7H1QgKWH79ho5s2AUuO9aIL8UuNuSlUESzDxpJajIqUpSnfjvy7yqlrSok0n3pmlf/On58bZ3KePH+VdxKaaxXH/Fx7fxLghUEvgyEOMKGsOqqzAN62g2D5EOLNy4sP0W5+Dj1yzdAmRBuTHjmWct4J065HvkH33AC9cg36Zth03eqlXVw+7Ubm0yo2j6YJuUTGiyTP4Y6R+bQbnk+bWFHl82kRl0nr4am0G7GRZQUWPnEk6gEM06seslMg8+wBr1uitQhl2FJMPss0EcAjr7KFSEjqVZXpCu9TtoXzvWkSsJ38fokb6KaOrktVH9FIjlcLrTiBpAyYbEIXVk5HVeBTjq38+Irnnu77yiba6Z77y4+TSgZOWTO5LzVupoGyxQzTKVtmOeMibiLlKpLFPJQlaUn0xfKqBT5gGhiWRtD24rd9WKaFFFWRBV+qIqsqaJJhqfw7zjg61ZfkGFmEf3r8f/n9/fxCUdm4n0v7TgK82MFiE4uFLAUpQoE5tXI5lWSLBPALDtF6Rib90ghtNv3SZAt/hruP2dx11KavvB6yid5h0Dw5m8ZJmdRPzuTWMZk0TM4kMiGT5nGZRMZn0Wx0Lg2Ss2gyOovGQw/QZuhqluXpSNqtrUpkBRTgxXknkrmihJfl6UwlvLAIpZTWD5tp/iCpHal0XDrLsc7kkgkn0lwmsAobKDaiWjwkq1CuKRJfpL2SbGEJJ9JOJq0sMFI5QHwiwi8QpqBzzZ9aIH7JBK1skv2S65zJOUqTUU9BWBFShFTCuUHQxS9koryuujxL4Xo4vhhnUZWELVkAZUwcrocmGoFWhGkWKYexLX4l0aLUIinjLMMfWiTDGZ4CfhlZW7RA59lV/P3hMam47+T34WNO97Xi+ad7zv/yuJMAL5TVkD0cArzAKCi2s1L1odCEtxem0jhhL62/yqb1VzmhV3mfReuvMmk5LZtW0wtoOaOEljPLafl1CXcu9tNto487t/i4Y5uPO7b76LzZR7dNPqLXu+m+wUu3rRodN/novilAhzm5dBy+jJV5PgIiKVVl3YB6FQKOeqAyuUQVNIUidOaAD2cGhsEtQJWwpEw6Z+rI9JFlT+SWqP9BVZxTWIiSa+CU37axfSZ2wEYPWjiJRpJsVEEayHsBuyG/V64vhCZNvUqegBnaVIrvKUyQipPr595XNql+7pyz/d7pRyATRYSGSHupaiybM69+GG8RKLLPkucpi6cQqsQbI6Ni4xWNUitAz1mNVrgJ2yzD1pw58ENZdNG4KgBeLa6ycCqataVMhnARlfB9hcck/Lmy1/Axp/ta8Rqne87/8riTAO877gBThaZk+CUlVaSWTGBJiYWkjTlEDtvArbGHuXXUEW4ddZhbYw9xa+x+bo3dS/1RR2gwMpP6o/K4LS6PmxOO0mGOi74ZOtH5Ol0KHUdfj1xLefqFtNMjRyOmwKJLls5d6Tbtl2Xx4Ocb2O7SCJoapi6qopCABGjiU5QUXlG9xVYLKC69ksJnYMPLZBP1XbyTAnqRGELRFf+ATFdHQRXjJrRZhiOdVdQinG9gENACBCydkqAbl+l3VHzLSfhxNAPxD1hYIcA7k1bUUEe6i2QTqfS7B7zSYBytRzEzlYboRcNN0PYRUAumLHRBZbebIVVdbH0paqrj+WFBtYrXU7TqFfK+fx/DtRNT9xBUi7H4BqROgywUTjhWmUfKjnZ8BqYlUSVZSCVkW2Hh/S+8/1+C+XT+7VMC3vHRy2SXSrQyOU08wDdHiukYu5abRx3h5lFpoe0wN8ce4ObYPfxn5CH+M+wot4zI5eaR2dwYv5928wq5J128+QZdCi2i8h2PviTY9Cgw6JYnC4FF+0zJobdo8W0ary86SKppEdR96JrfkYjqdzgAFMBblg9L8vSVei7LU2g7nYerAH8c9AJO8VeEN0dtVOkFkpjnOKFUAQ6x+Q2ClobfCpBrl7Kj9BCztixg5eH15ATzcdtlBC0dTeoIiNmgGIyOSq/U2B+aeMhdCFPw/wfAS7ESGU8JnwiIRbX24cWLBx9u/AJpVc9QkrOE36Er80eOFUpXCZrtRbfLsXJnkjOrAxlze2OXLcW0C/EoX4mNJep9QMPW5PwA8p+YR5ZjjSqzzLCcoin/DcD/bp12KhFFJZw6q6Ij+USl18Lml6pXt8tt0H/8Ov7z8V7+NSydvwzL5m+jsvnrsMPcOPwQNw07xE2fpnLzkHRuGprJP0bto828bO5NteiTYdEz06J3ukWfdFtJ85g0mx55Fp1z/NyVY9N3u5/Wn+9mcU6AfGmFZYbDck4ZLCmHJVx/WdmF/WfrIjFExTvT1VyuJ/azqQApcX6ZS+IQEtVcV1JEbE4DXRYaceTpBpY/gK35KLZK2KIdIjF1Nj2mDuTP77WncUIfXl81ghVF68k0CiixvXjMgNPsw7TwawHlzPPpoiE4dqapW+hBxxn135igv9m/IYuhKd7zkKQVX4UdwKt78GPikQQsGWBNnpvh1FhQ4y3CpBzdKlG9DHS7DDszhbLZDcmdfzv+whloltjzJnYwgG2VI4Rr8eZrKnISQLPLMexSNRfQpFRasVMtqRJuxqnu/3SkZMVjKrtWxe/PtfcnSHgH8GK/hgHvOFNUYwkBg20rj6lUuUn+/hj/enUFDT49yr+HFvO3jwr456c53DjkqAL6fz7M5Jb3c7nlgzz+9ekROnxdpBx5vbIsYnINYnIMemabxGQLLdeim1L1g/QrsOm8+DD3fbuLHW6TMrGnDaH2OqCURB6ZLPIbxdZWgDd+GeCVSh0K9ShHWwjskiQki4eAXGrp27rU1NfQ/D78QS+lhovD/gymHJnH4/Pf5a9jYrgyvgMXxbbkgmFNuT6uHW2mP8THmz5jYeFm0s0iyrRyNM2PaYgaauPTDAKWjS7gkC0Ycu6d8aJ1povcb3e8IdWJZPEUf4vyuYinPIip+g9I5SQb21uCkbcVM38tVjBP+S+UE1PRpf1YWhAzWIqd/gWls9uQv7g7Zsk8TKMMS5PnIGVSJVQnJpMXK3AUvWgZZvk67GAWdlDHCopG5VIhOwHkyX+VgTS87+Rjf+5z+LyKrz93zv/y+5MAL4ElkZ4yKaSgjHhBQ6w2FUYxCRrleGyTbcVBWn+yiJvf+p5/f5zHDe8V87eP8/nLJ+nc+PFR/vnhMf79Xhb/fj+bGz85TLtZxcpj3zPHICpfIzovqBJvonNN7sz207XQonuRRZ80Nx2mLCZ5dzp5ltjTYvuK48dGPOGWIckzTqtJCaeJHWcbotKLTXxmk1nUQNnE5nNUbpVtiy0SQux5UcmNILouHAA/XrOcNCOX2fkbeHblCG4d25fLRrWldnwkteMbUzexIecnN1JbvcTG3JDcnaivXyR530z2+NMI2AGCfjeGrhMMahhyf4aNpmLKTqZixYnze3uv7k/VFwxFMqQOouV46yWqa7s1ghmbyF3zOsVrHkdPn47t3YdllBKUPgby/ESrkoXx2Bwyv+5F2oIHCRatwpZ8Dt1AMwK4lb0fwPYfIJiaRO6S+yjb/B5mwW5Mn05As/FaDmtUrnny36nG9eRjT/W5suuc6vhz4buTAC8cdUd6OoAP8dRVsEMKSZsYhgfd1ikyYdTubJp8NI9/vL+Xv3yUz/Wf5HDt8GP839B9/PGTA/z548P86aNU/m/oHiK/zafPMYte2QYx+UF65vvplaspaS+JNt1yoUe6QetvN/PAlLlsKy7Dq3rQOfF/cagJOKRzjfSeC1NrVQxXOtn8AqdXRcA7cV6xEySSJA5CE78ZxGf6cdseCs0iNgcOMGTHZNpOeZprErpSL+F2qiU1o1ZSJLXiG1Ij7hZqJd5CrdENqJbUkBrxTbl0eAuaJPdm4KJPWJC5ljytQAHfEFNE1FFLtCaHAHSmC1ZlE+5/uS9g+wjaUlS0IuAlth5Q0Tm8AbTcNaQuf5ADM2+icNFdaHtHYJduwtLcjmNYOd+CWMUbyF//HtnbhhH07nSuYVkErCC64cIu34uxaxT5czuQOqkBJStews7fixk0cJs2ZSK4Qk67k4F2qjE6+dhTfa7sOqc6/lz47iTABysBvEx+iRs7bDTbCKpYuHiyd9ow4OstNHp/PX995zB//DiDKz9J5epP9nDtkL1c99FBrv3oMFcO20OjOYX0PmbTQ9T4vIACfO+cAL1yDLpnGvQ8atFpRQadJsznm8NZlGri8BFHloR0/KqYpajAljSZPAHwkqcvaqMk2JwZcaWiSq8AH3L6GEL6sEVKaLhsP7tdh/l812y6T3+GfyfEcPUnbbk+rgM3pHTh8tGtqZnQhIikhlQb24AI2RLrUzO+CZePaMy/xnbgjyNac8UnrWgy7gEGr4hlSc5mSi0Xti6Ll6W8zz5pwfUTRJ3KJta5uM8Q77ulK41JRSWUOu8hYGto4sSTOLqehzdrKllrHiRnZmPyvuuGe08SlueYMgOkH6E4OtFLsYq2YZbvU+w9iXD4TR+ahPKKDuHfMIK8rzqS801zyjc8h5nxDXagWLU085sB/KroqqPxnQy0U43dycee6vPJ1znVsefKdycCnoBS6I+r9CLhZcWW+Kh4pR2yidicol7noLM828c9o/dz0+u7+eu7R7n2/aP83weH+OP7h7n+3VSufecoV310mEZflxFzDLrlSEguoApn9BLqbbbBXVkWnTeX0XT8aj7ZcoyjgQAer1SqFTVPil34kAQaWWRsw686y4YlvHiC1SL0CwCvwmPitFM2p5gHTghZzAgVRbYNiiw3U3fPo90n/bj609ZcNiSSxhN68/KeEXyaM5G+ywZw5egW1ElqRLVxDYkYfRu14xty/Zj2DN78Fu8dHkarb++lVnILqse34oqEbtwz7U22lh3ElHvxa44jUDkPz2zBOnnC/e8/h+jFIUqtLABB20V5qOKwS9fxiMNOK8bIm493VRSHpzUlbdlgtKLtofCqG4+Zi2kewfJswfDtQtfTMIxj+O1CLNODfnAFRbPuJ29qA3zbHsMom41lpqKZAYK6G8sowQ7Kb6kC/MkLzUmAP/nrU38O6uUUmTYz9pXQbfg6bn1vD398O40b3jzE/72exTVvpnLd+7u5/MO93DarjKg0m7vyDaJyXHQv8tOt0CQ6x6Ln7iAtxq1ixMo0MjUbt+UnaIuXVeI7x/9kQp8cAjmbSS6mibLfQ5E5keqqoo7ixzt2vcf2MmLTeK4Z2ZoLY5vxh5GteHjJR+zT8ii03ErN77/yTa4d35mIpAbUGHsLF8Y24M7P+rPetY88u5CE3ZP584iW1BzTkNoJkdya1JOV/l14xS6VaICEFMOc8zP0Q5zO/R8fwcrfnc41TucYyy5X4TXRVCQC4ZHYuyUSXjQ0CFpBgpSGiEZe/P7vycgcTWb2t/iN3ZjmUXTXZvSD0/CtfwVt2UMYKx7Dt3UA/sxxWD5xzKXjL8ug+MBcPAcmYZZ9j+UrxfaWYms52HYuhlWOoTmOQ1nUVe/DkCM6fB+Vj8SZ7Q1fK/x6Zmf/b44+K8ALDddtmRzT4MvdbjqN2MgNb67nunf3cvFrR7ngrTT+8OFBLnlvN42/KqbHMY2YnCDdCzU65ASIyTbpsrWQ1hNX8uqyQ2wu1iizwW9LmMWlwF1xWGRgf03AK3KG8LFNh+7tFMLUFefb4WtbuG0vQzeP54rYVtQTmzyuBU+s/Jg0vUARgiQ0t9y9kXsWv8WlsW25YGxTag29mc5T+7PTdZhyu5Sxu6bx1xGtqD22EbUSmtIgqSdrfbsISPRBd7QlScpRjL/fNeClHJrDhpQwqRBthGTjhD6F3yQuYTlGxjygGo6Yej6GLxvbtwvz2BRc616gYFYLSqb9Cd+0K/F/eS1lX/2Zknmt8WwdiJ45HXyHMb1H0P2H0OwS/KpFuYQ4/Zh2qQrvSVdiRd+tAnxFCDn94U/YcwYfAn6xm02Vvpql2Xy+u4QOCau49I1VnP9eGrU/yqLWh4c5/929NP2qhJijGtE5Bp1yTLrnixpfSssJa3hvwXY2FEjbKQufIRz+41loFX/Orw14obiKhFcmYyjsqPrkqSQNG8OyKLe9DNk6nkvjW1EjuTEXJTTj+TVDyNYLIWBiBP24rWIW5m0iatogLhvZmrojG9Lu6wfZ7k6jzHYzbtcM/j6iDXXHNqJOfFOaxvdivWe38jgL4BU5RxJ1fgOwyzV/7u/X+ncF5KprsK4pUKvIibhXLR+G4VPJT6btQTMkUuEi6DcI+oJYrizMtFmUL7iHsi//SWDK+WhTaqJProUx+TyMLy7E/PxKyqbehHvJA1iZ8zH1IkptjUJLVx2KJBwoGZVoxWAWYpqlqmBLlYQ/8emflYQ3VVVrP9jlaLaHY5rFFweKaDhyOVd9sI067++j+vt7qfn2LhrMLKVfnk3XVJ2YTIMOm8toPHo5ry06SJrLwicxfmHUSUac2OMqweLEyfpbAN6RNqGaH4qt52RaCesuDPiPt6VwcWJLIsY15KK4Jry4agg5ejG6RyPt2CFKCo9RanmZenAFrcY+TL0hjWk1+2HW+Y+Sh5uk3V/xlxG3U3d0I86La0pkfG82unej6wEhNyjAC+jP1Ol4ukA98ZH/+NPpXufnjlN8diHHyKJtCKlJCDZekHyHQDF2oAC0IuxgAbZ42iW1NVCCXb6O8g3PUzD9T7im1cEz/QLKZ/6N8jnNcM1phnvqPwlOuIbAhKsITL4Vc9MHmL40XKorcTmGAFwvw/IXQyAfyyhT/I1giM3ogP70QrY/Hp2f3nPyePz0kefON2cFeAnWS79323ZhSHze0skxYVZ6GQ99uYe/vreMS99ZTb23NnHztAJ67DfptdtL+7n7aZW8kOFrjpDq1fGFcswlVCWJJIZI2KCj4lYcKhngX1OlFwkvgBetT2i04qxUySwqc8upxe+y3QzZOo6LE1oQMb4+l8Y2ZdCyYaTrLrL9bias+4oZW75mj+sYx7Qyxuz8hvoJfej01ZNs8B4j3/YowP91RFvqJjehXmwkzeL7sNGzF11CjD8A/syjDCdPuJ/6XHEMK3v/U+ed8X7lrBN+geQWSCJSADuYTSB7Me79ifh2fUJg11Dc+z/Blf45Ac9hMPIJZk8gd66o8XUp/6oe5ctaoh/4CLvoO6yiaeh73sQ7pxXeL67GN+EyfPO6YebPw7ALMIs2oO+LJ7jzU/QdH2Ns/wB9XwrBwn2YukPYqgj4n5s/lY3PT+07eQojzckAACAASURBVHx+6rhzaf9ZAV7XfQqguuXHlM3U8BvSA95gdU6QAXMOctOHC7jkrZXUn1VA9BYfjT5fR7eJy/nyUBlZQWkg6bDkRB0U7vkPzS+Ckk8t7aSO/8kA/9wDO/khnOqzYTnJOD8CvMqEOw74T7aO4xIF+Fu5IrYFLy2NI1X3sTdYxvMLh9Iu7l4m7p1PjubmqF7E+1vG89A3r7Gr/KjyAaTsnMnfh7WjbnJT6sQ1p0l8H9Z79qIZ4qEPS/j/DwAvpBkroGLxXvU8PVj+A5Rsep+sbzuSN60hhdMakflNIzJW9KE4fwm2cQT3vncpnHUL3smX4pvxH8y972C79uLXg7j1ImzPWrQtz1M68894v6yH6+t/oR2Nw9b34ts2joKZHcif0ZDir26m6IsbyJvWlsCOiUriC9irAH8cQ2cFeOWEEdVXdXcXlUlYK0J/lIwxiyNek7h1abQevoB/DFnOze99zeD5e/i+IIBbZeAJEyuIZgtdUnjXTj65AqkqPnEc8KcC7i/9Tur3hVX6EyS8ZK9J3NgEj+3nk01j+UN8cyLGN+LKhLYMWjCSY7qPPUYxz60ZymWjIuk0qT/fpC4l1yplZ3kq8/aupqA4X6WMTNj1JX+JbUfdcZFUS27OLePuZnVgD+WWLJiSSacTNPy/mUr/S8fnjM+TPAPLwItJGeAxDDQ9n8D+yeQveYHC7+7B9d3D5M15lvz1H+Av343t2Ym56XXMSX/HHH8Zge9ux8qbhBXIx2fq+O1y0HMIHo7HNb0pgclXUDLr7/j3jcDWs/AdXUTOyqfIWH4/mSv6kr80hqJVT+BPm42tlSuwO6APq/SS6h1+/+PX49A4/u5Mjz9+5rn37iwB/0MNiFBLKgG8FMNzo+suvKamWkHPSS3j7QV7mXKgmI0lGkUSBgvZd7Yca/twSBtOxpgwzpxkmN8W8MpXIB5jKcpSUaVXZoXYoDYevHyyeYwCfPXRt3FZbCsGLo0lR/eTphfz/LL3uSKpCZd/GknfmS+zsHAT+VYpReWF+AM+df7EvTP4S6w47ZpQa0wk/xnXl9XB/bgkW0wAL2m3YveeIXHoVBPxf/KdKX4PQyXKqDqIQn4x3dieQ9jFa7ELF0PuUqyCjRjefQStYgKBw5RsGUXBlE4UftaC7DkP482fj4R83RiUSxadz4Xn4HwKZ/em6Mv/kP1NO8r3T0MLetFdmdjla7G967Dda6F0OXbxamx/Rqiw6ZlxGyqD6M+NZWXnnKv7zhrwUugyvDnVcgTwLmzLg2H6CBoaLssmN2BQLNliki4teeGaHCcsOg8GQrKRQhYi8YXcayNtpQT44b+fG/Rf9r3ulLIKAV7y3sWuV/kDkjijqq+4GLp1HJcntKBucn0uim/BU6tEwpeQFcjm5SVvc1VSfeokNOSS2HY8PP8ddpXtx9R86HqQUtvFhP3T+WNsC2qNaUj1pIb8W+Lw3j2U20ECMhYSVhK/xe8c8OKVDxf3kIwMtaBKeXPTj2550C03Qd2lSqFnlZbx5cqlJM76jBEjBjBs0B2MHNCGT9+4n9iUUcRPm8uIWYsZNmMOo79YQGJsMiNev4uRA5swZPAdxMYNZdxXq1iycTeFnkJ8dhBfqMagoXsJmKI9/XaRj8rmW3iunsuvZwV4AaaAUnlnFeoladzJE1dJKUJsMXVFdzRUkUcpsCHJL6GYs3KS6ZgCdks2cbJIQovDL/+tAa+YfJVIeAV4VU7Jwm2WM3JLCpcPF758A2onNOO+dR+y28giTUtj0MJXuWL4vzl/fFMikppw1ag7eGP5CI640yi3PeTaBcTumch1CS2oldKQGqObcFtCL9aW73bywlX8XfwXUrDhzKRRZZPuf7lP5bcjpoks5N5QvWNJbRZatpMvIEw7l2by1aLvuannYC5p2Z/LmvTl6ls6c/1tXbmmQT8uanwv5zV9lLotH6NO8we4pNnDXFb/Lq5oHMV1kZ25qvGdXN78AS5t8Rgdn/yIDYczKQ/lJEilISnWErDcim794/GQMa58nMP+ocpef3yd4/4kOV6+/z38nSXg5eFK7rFTNUbVeBPvrBSSkKojAiaVp25gCAdfQm5SrEBoutLiQkl7J99c7NhwqSdZmaVKqQxk+K+yAT/bfWLDh+PwSqVXfgXnfgzDwtQNXFopKbum8ZdRd3B+fAvOi4ukzbzHGZ07h7FZ39L5q0e4NLYxNRMbETGhGRGJDfh7ckfe3hSv1Ps5+Wt4bOmb/CGuKdVjb+Hi+BZEf/Yke8oPKi+9KamxCgxy/5VPxLO9z//W+QL08HyQoqeitVlS6kqiHrowFyX0qlEW1Pl0/Cwub/sM1Zo+Tc2WA6jZ/DnqtHiGGs2eoEazF6jWbBDVmr9KRLOXqd58ALVaPEm15s9Qu81garYeRI3bXyLitoe4KeYNlmxJx6XqCYjQkMVGFheR8FJKq6KdLuMrUr/yca4M6OF9J17HuWb4O3kNfx+er+fq61kCvhwLGWRRzyWZ3GExCrddJLVUDpVcdpkE0rlGs/wqk9mLX3WmFaUg1JJeFU5QVVCktZVUMdUdTSA8cOEB/TVfhVqryCGSIiBFL0RbkXRbKUapWxhBA4lASDGLmAUvcP2YrvxhVCTXxbUgctp9NJr6EJcl3kHtxJZUj29GxNjGRHxen1rJ9fnryDZ0THmCLpOe4m/D7uD84fX5Q2IzIqfew4frEyk1SxSH3vCLZ1tYab9/Ce/UJpAEJxlPkbSizstCLzUNnMKTrqCPYt3gw0nzufL2Z6neQIA8iIgWA4lo/QLVWj1OreZPUaPZs9Rs9hrVmrxJRLOBRLR4ihrNH6VWy2eJaPosNdoMpkaTx/lP53dYvCEHT0DmXyFoJU69AXmGFesKKuA75tNvAfgw6MPz9Vx9PSvAn+lNnQqslV1LpL4QOMLcbEkjFdtebO2wOSErtpPDL1VTjq+0Al6hXIrjR6qhKxKGqpwqC4p4fzV8iv4Z4rLLhFDFJp2qLSJ5dctUx+XZZRwMZpG8Yzq9pg7g2qGduGDEHVw8pj21kxtTd9S/uTD239RN+CcRo/9NxJhbqJvQgD/FteGKUa05f0QrbhzXmwHLR7E8eyMuQ0dq4gt/XsAgCUCaFF8kVJjREMaaUxYrXE9PmnuK1iib6D1S8ccpEyW+Blk0HA+5k9kobbicQpxSyVf9yctPaJ2nei5n8p2o7c6i6fx+uQe1qCvgyRNzqLbFusmQLxZzZZtHqdfkcWo1HkT1xq8Q0fRFIpo/yaVtn6bWP2O4vNHD/KHpM1S75THqtnuZiFaDiWg+gIhmzxPRfCDVmj7LP2NeZ+HmIyrCg9Sjl/4BoXqHzkhVNrN++b5Tjccvv+p/78xzGvCq0mtolVaee1nEVY3EkO8gtGo7HG3HBFArreRUy+STkkoSDw57/UX1EqKNxNlF+1AVWpwy1XK88i2ITf0D+J3SyQGEW+AlU89kRdFG3tk8hlafP8YVI+6gdmxjLoy9jYvib6PuuPpEjL+NiKRbqTeyAZd92JCbkrvw4LI3mZA5nz3BLMrtgMp/V33yJN1X5X/LYuU47eSzLHDy2yVSIYBVrD8p3Bnq/iNVe2UcVOHLMNDFJJJqOnJPFc5TfhC1SoRWi0rm1qkm8Zl8dzLgVYqs/LOVAP7jL5bwh7aiwotaP5CIZi8RETmQiObPU73Rw7R9fDivj17AgNi5/K3n29Rs+QLVmg+kRrPnqdH0aaXmV2/6FP+MeZWFm1PV2DhO34qA/4kVrpIxkF2nutfwKadzTPjYc/H1vwr4Mx6AsPtfSd5QmWfdcRIqgCrAO1JR+QpULXhxCDpOQZlwqjR0KDFFgCALgPKGq+8khdKRjrIISDkr2RxNQRYH0U3Dx5jogTK8VgmpeiZz8tcxYO0obh7bg4uGNaHOqEZUH9OEiORG1BvZhL/E3kHP2c8zdN9ENnt3UWwVEAh4MTX5DU65MKeirdiDssg49qb8tqDSPEL1B9Ti4wBcUnb9UkFXpLyUDpd7EF+HcjxKxxwp5OgQlpwF7HgtfHWsAL+Sv1NN4jP5TqS7jJ0qC6bGUhZT+e2yQIuEdyrWFukmH32xlEvavki1yOeJiHyWiMjniIh8gWqRL3JZu0GMmL2Vox6NI64gz8bP5uK2L1Kz2YvUafoMtZs8Qc3I56jR9An+1eMlFmxyJLwCvPh/fpDwld9vJUOgdp3qXsPnnM4x4WPPxddzGvAyqSUC8ANwNQM0x+aVCV1xkwfhSJQKVWtl8gflHEf6C4tP1Hhx0AlHSDU2CAFaJKOo1iI1/aruvABfaLdSElkKMkjt+QBm0IPf8CiJv89I57O0OXSe+yJ/HBdNrU8juXRkW+748jHeXhvHKu8+jtoFBC0Pts+D7ZXQo9Ric1RfJb0l0hHWPJQKLHXwxbXpSHglHSWvQEl4VD899ftV7r6A3VnApOmnNL9Qv1fVyQuV6/qhLZPjaKpsEp5qEp/Jdw53IlTtRo1nyDGrACj1hB1zSgD/4eSlXNruRWpEPku1yCfUVqPZ09Rq+gLXdXyFuK83UqCZZPsCDI7/kstaPUmtps9Tp+nTCvC1Ip+jerPHfwC8qpWg/C/Ogiq+GZkJZ/J3qnsNX+d0jgkfey6+ntOAlyqyP0gIUX0V792R4AL2sLr7gyIg6rAqx+WAxpDjZYEI+QH8toVQPpWEVM0PHLAp9dlyJKoyASyRRI6kP64NWGiS2SXOxJBUDRhBilR67C4+3jWNfnPe4dlFw5hxeDGpgSyKLB9uK4ih6diyGTq66XckckhlV+p3hXtTKn2o9ZVoKuJNdPqzOVLdsYlDYFYlsqQGuzRekCq4oQSckwGvFk7H/q9sEp5qEp/Jd2JaqVCntBxXlW/Ej+D4GwzxT/wAeIsPJy/jknaDqK4k/NNUi3yK6s2eoVazFziv8RP0fSWZ3flulu45QusHX+WCxo9Qs+kAajZ9npohlb5a06f4R49Xmbcp1SmOEurzJ01GxR+ieiVWdsM/se9U9xo+5XSOCR97Lr6e04AX21tqxIvNqrrBCKBDk1rALqqbk/ASUnElmUfFDYTeKWWQRb0NOcaUE88BfCB0TZG0YneGbeNw8wkn60skZsgvEJKclmEhfAJTqrb4peOMQ4uV3mdH9Ty2+FLZ78+myHDh1fyqOYWAUaRPULHQQtJcdyRx2McgzkEhIynVPGSOyMQKNVBzbGDRSJyBcBq7yIKlfr+FUJekqoxHaSZixogqL7bz8UVCFs6f0OhPabueaoKf/J1S21WYViIdIs1/GvAfTF7OxeKIaz6QiMgBIWfcAKpHDqRes+e4ucdrrDhaymerd3N1u/6cH/k0NVu8RPVmA6je1HHaRTR7lht7vM68TVIgVJ6zE+lQz/cXAP50AHryPVf8fDrn/6+POScBHx5ERdZRMVUTtzTBUHXOHTaXhHuc0J1NUCSnouqKwwvpahZqce14sCXh3fZJrzKx0R1ihnjhhaShcOTUrkTF3sVDrtlqCwPMOUea1Die9aBuKQCrKjUBOdbRIoRrIKEokchWQMwJG9Mn1F2pTut0wVWtr3WpUy/ln0xHMiuPPQR0CQM6qrf8Frl/1fpKs1SJZ/kdagFTufviXnAWKwV4JPJgqvr2ttQp8GvIAiUNRGQTU0XGNeypD4+xTMDw+7N/Fe0r5BMRZ6JakMAfqjUgFYDFOVkiKv2kxVza5nlqNnmGGk2ep0aTF6geOYBqLZ6nRuNH+Hv0G3z81V4GJCznD62eoVbzZ1X4rlbLl6jW5EWqt36diEbP8Y/e77JwRzblUgJbojqheoQSiRHfyK/9d6ox+rX/rd/ieuc04B1VVgDq2LNSv1xX3vVw0UoDQ9cI+qV6itjZIjkdXrzygiuShY6pOT3MVBtouZbY47qNIf3KxNstXWRDjSBF6ppSwEHaPUvbZ1Ua2SQYSuFVjRZEWotNHYrX21IH3RfA0APoZgBdSmkHLCyJDfucxUOaWkg2oK7q6osEFLPBUcOlLbLKOxJNRkCqiQPO0S5EyxDTRLQO2S/Xkd8rv8eURUE0CFX1T9h6svBILSlDmRFB08AvdFO5uJg3YiKE/sITVz6G35/9a+WAl26/qhefxORtjTJNwnKLuPz2J6nT+HFqN3qGWo0E/M8jdnzt5k9R87YHuaHL61zd5kUi/vMg1Zo9R0SLQdRsOZCIJs9So9XLRDR6kht7vs6CbRm45B9Ri4yMiWhSDuB/6p7C41Dx9aeOlf2nM04Vr3Wuvj+3Aa+q1IqKKo4zyV13Mut8tp8Sy02J7VFxcqUKSzFISamVlT6kvoq0kWSeoOZVxBaX9B1XiTEGlqjlUitdQ0lrt21QLs2ObD9lqvCiW1W7kc4xRbaPAtuvuO8S+zYMk6AmVVRtfGJ/645/QTLrcswydQ2RvkGP1MyX8KC0lJbUXw1NlyaKAninHr6y4UOA13VTtV4S4IrjUDEODY1AUGqsi4YQxCOccdvAowfVoqDMjnCYTu4poGP5gkqqF9s+cmy5D6mrH+LqVwjHn+5EPhUQTvyucsArs0bALtRpK6gKWQ6ZMJfL2z5FnebPUqfpQGo3fYkakS9RveWL1L7jVWo0f5G6kYOo3fRFard8mRq3v0b1loOp02KAOqdeG5H0T3BT79dYvPUYHgF8iEUnZpqwNh1WnaMxnfg7K/fen3zMqT474dTjvA859vfwd04DPqxCq1bDXr8qUS0lpw5qeczJ2MTUIytZV7SPItOFL+h1QKyHHFoqnCUe4yDlto9VWbuYdng1S7N3UmJ6VPso2ysqsEmZpbHTncn8nG18m7OZ7wo28F3BRubkb+Tbgk18XbCZrwq38FXGenaUH8Mr1VgNDZ+p0n7QLINS3cfsQ2sZsn4GszO3UGR6MUyRZh5WZ+1iftY2tpWm4ROqqbAQQ+qnmjgqzGbjtTUKTBfbSo+wJG0TW3P3UegrVrXhsoJFLM3YwuzDa1mXt4dsrRRNPP7SjUU0FVE5xHbXdPw+L4WWhzWuI3yZvo7v0jdz2JeniDri+5CpWXF6nmpin9l3PwF4lQ0o9eml4rBfdd1JmLyAy9uLp91R6as3flGp6mLPV1Pbi1SXmHuTZ6kmVNsWQs55iroNH6HubQ9Qp9Gj1Lj1Pm7pMZiV21PxB0SLCdnwioMhC9xPJ89UBs4zu9cfLySVXfNc23dOA1457WThNgzwSraVnwP+LAYtHk3b8QNoMOYJ7p7+DlP2LeaYVqxaN2mhgpQiOYW7Jg61TeWp9Pn8bW5LepLoL95gZe4e/FJAUnMk6TZXOq8sHkPrMU/TdPyTNBrfn4Ypj9AopT+NU+R9f+qnPEqjiU/z4tIkthcfdphxtlxfJLfOtqLD9Jn0Ftd/cjf3zRnGrnIpq+xm0bF1RE1+leaTXuS5hckccGUrpp8VjpkraWQTtCxSjUKSd87mrulv0ir5ce5KGcTkHd+RaZYw5eBSunw+mAZJ/en71Vuk7JtHdrAEn9jtQgtWEQ0xTQxyTTfTj31Pv++GcHP8I7RNfJaJB5ZSZvodhmJFwCtt6MeT95dN/soBLxqOtNmStt4YHoK6zqpth+j9chJtHv2ENv0/oM0j79Oi/8c0fXQYkY+NokX/T7i9/zu0ffQNbu//Lq0e/ZRWD31M+4fepf0Db9P24Q9p+9gQnvxgPHvT8lU3H1RDEsdJqhy2FZiXJ99PZUA8+Zgz/VzZNc+1fec04KXzjE/UVclck75ulocVBTtpPu5ZLh/Vh3pxMVz5URQPTH2HeTlbcdtSGw8FfCnA4UPDhYfvCnfwr+EPUXdkb64a2pfPDi6nzPCh6T5Vd35m+lpuH/cMFw3pzEVJ0VyQ0I0L47tyUVwXLonrol4vjOtC7YQobkl6hInbvqPcKFf2aMCQbisay7O202rc89QZGkWLLwayJm8nbruI5J0zuDquNzUSetL0sxdZU3AQaXShar6p1FiJRFjKwz4zay1tU57hkuHduDQphivf7cjT3w1hi57B29u/5LrR91A9vitXjIyiy6QXWJi2mfRAOWVYuGxbkowptHzMTN9AzPS3uWJUHy5JuIu/DuvHe+u/oFCT2gMSHqsg4f8LgBfnXTAopowf23ATDPoo8hvsTnexI7WQnUeOsePwETYdyeT7I8WsP1zOhoO5bE89wq6jB9mReowtBwtYd6iETWklbDpSwpojpSw/VMbuXBduqUEv+RyGU1AkYEtJbEfd/i0Bd/KC8Fv+W7/Wtc9JwIdvTvHHxTmlwmLCn9FYlLWRhokPcklSN+qkdOS8sZ25MK4bPZZ+wP5Arqoio+mSV2+rbqWZZpBvSnbw5w+6clF8R64e0Z1xB5fjMk00n8E+Ty79Fn7I+eO6UT3hDv6Y1ING4x+j6dinaJr8NM1SnqPRlGe4OjGK84d356L4Htwx+yUWe7bhNcrRXV4sr4eV+du4OeVh6iVH0XTCk6zN20m5XcKY7dO4OiGKiM+i+evEx1hQuI9y0Qp8Tv5/0F+G13Sz2HWIf019gstHR1FvdEciUjpSL6Er0TPfYFcwn6k7llF/zHPUGNWDWslRXBDfiaYp/Rl7dDEZehkuj4ciy89X+ZtoOeUZrojtRp2kTtSJ78qtSf0Zu2sxpbpbefLFm6/i5YaUcpaxEgeX0HI1RUP2qj7sTpdWKQFihNqPKYKQou9KQ0xHsxAulJr40htOtc+SCITjofcHdHTxK4TIPyp6obrwivNSjpO4oXjXxcfgQkNTOQai0Jm6REREgwooDUqiF5pl4VdFSWxc2JQji9xxElM4zCo2vGiHcqzkLBjKrSl+EOlmJKFYh8AkwsEjZdGFtCSsDsV/CJ2L9DUMhX1NZ59PiFlyj6bTCFT+vYqgD8/bc/n1nAe8TDLpIS4O5oCpsTBrE41HP0LduI5EjG5L3cSOXBIfxZ/j+vDO0glsKUvFJ73MApKdZ1GIxezyXfxpiICkI9eMjCZ53yKKDIlba6TsmkuDzx6ndkIXrkrswYCNSawLpLJLy2NfoIj9Aekpl8HkzFXcOvlZLhgRzQ3xfXllVTL7vZmU65oi1ywu3c3NEx6jXlx3mqQ8xfL8XZTYJYzePoPr4qKplRLFv8c/xpKCfSp5Rsg7huXHa7vYVLSP++cM4w/JvakzvAM1Y2+n+oTO1InvTNQ3b7BHyyfVW8D7m2dxS8rTXDCqO7WTO3Ph0M60njSAsfsXc0ArYGb699w55RUuje3OBYndqDOqI39K7seglSnsKMtUvexFmxDqrvgXTAmTSRhLlep2ahfIWKvkJFXvT3LK/Uh0RIAi1Wyk1Zch7bktXV0nGOL6W+JElGiInC8hSAmBSvKk4hVIaFIyKiVs5hQpdXIFBDASLvRi2i7VG16TQqbikxBHqNQ7lF5y4mjV5RoOU09IUarjrOIdSIdacdA5kQ9ZvMRDH84pENPOga3cubAcJUQpoV1J5ZHNUj0TpQaCNMBz+ANOZENCexJVkN/hZHxKtEdMk+OLWhXgf8XlTSS8MN38CvQ2flNnYfZmGo15hFrxHag1vhNXj+vBdUl9uPyTbvz903t4f+tUDgSzMDQvpj+gJPlM107+b2gMdeM6cM2oaBL3zSPPDrDPyKTfrLe5NDaG2sM60/7zF1mct40SI4hXPOZ+G8trE9RN0rylDPx+AjfFP8ANH0Vz56gn+HrXCnItjRLbYEHBLpokP86Vn8bQcdwA1hUcoBAXidtnct3IaC5IjqLhmMdYlb8X8caLDe+23Wz3HGTQimSujb+fGkM6c610pB0XTc2UO6kT24lus1/lkPJPaGx3ZfDhui/5V8L91EjoRN2xPbhgeBStv3iRl9emEDPjDS4f0YNqyV2oGdeF6xP68OTKBDZ5juGTNswCGFWrQPgKjkPLHTAp8wlIHYJSUEKRigsQkthSwERCmcIVENNKfB/SUdcMqIXVK82bVahRHKQWLm8Qd8CRgLLgSpFSU2r3GW5VsloaUMi/rVngUVFLp0Ow0J69itYsYVEJU1qYgZAGIqxH4TroAmoBpbzK4iK572Ggi+QNojLmTE058FSPAfFaKFte3JWStu0NNaZ0ypGLp0dpOxKuUU005PpyXPjfkvuVstseTMOLLmW1Aj4VglVluH9nUv6clvCSXi/JGMJ/l6QRUakWZW2h0bj+1Ey8kwvGd+POBa/Qc/673Bh7L7WGduHWz54g8cAcys0ybENTDqJppdu4ZngMtRI6cPXIbiQenMchs5T4A7P415j7qRMXxXWj7ubTdV+SHSwOZdg5cW5h05m6RRkGy4t38fbaFJ5fPIxXZg1l/s5V5Gt+3KbBrvIMXls2hieWjOTDFZ9xpCSbQttD7M6vuXZUDBcnRdEsqT/r8qSlsYAkyJ7AMd7eNJG/j36Q2nG9uH74fdzzfSzNFwyiemJ76sbdSdfZr3BEK0T3+3EbQfa5snht9Xj+OP4+aifHUDspmovjovhzQi+uGtGN8+O7UT2pK1ePuZtHl8Wy1p2KqOiWT8OS0KaoqYqxaOHy68xdsZWx0xaxZXcamnTBEcms2InS3TbUn01UcmHuiWklHAPNq8qAeU2dYi2IX/kkNFx+gynfLCRl6myOFZYrlTgglXzwYVgeTFNAE1AOxhKvxupDxczfns3irRks3ZHBkp3prNufy9HMIqcvgWqwqanqvmZQiEiSUyC2eRiMItmdCkkS+hNpLt/LPTqbA2aVbSj3rBYLj1oonIVBgBxQGoKAXnIpHHqwk1Epar7qmCwmjhFQ2ZU+Ue8t4WBI2vaPowC/orz7TS51TgNeVmaha6q8dWHPWQaLM7fQMOUxaiZ25eLR3Rm0Ppkp+eu4e+b7XJlyN+cN70KHGQP59tgqSvQyxc77smQ7V4/oQc3Ejlw1qhvxqXNZULCD9l8+xwWjBCQ9iZ75DhsK9uM2JebuZqcvg53eo6R50znsOcrWQBob3QeYF9jON+Y2Frq3saX4IBkBFy5/AjmDHgAAIABJREFUgALTy1LfXhaY+1lWvpciw0Ox7WfkztlcHt+LC0dH0zyxPxtydimV+IhRyKf7ZlL/s8eoN7w718Xdw8BFKXxZtpU+Kz+h5sgOnB/bhW5fv8LBYI5ikQlQA5bBLm8mL22ewPXj+lEvuSs1RnegVmI76sW1U6bOVWP78siaBFaUHsBlamiBIJYm6bMCgON04mMFbp58fST1Oz5AwqTv8PiF2ONMYlHPHdKPjRCDJPohRCP5DaLSiwa0aNN+EmYsYsuRXLyGxYHsUh4Z9A6RXfsxa9kGZWeL1Bb+gdT7d7rPaAgf6WB2KXe/OZZGd79NZJ+3aXH32zTrPZh2977CpK8XUe7XnRwBW8ej/AYgzjhFoRWfg7SqUmXBnBoJUidB6iU6mYhOnUVR3UX1F2EhtRQkgiEmhWxhbUAlMwkbMUSBFvte5SsoPr7D2hSmoPy7OWVulmw5yNJtqeS7pa3ViTZ8WL3/TZD6K130HAe8OJckdCZsMiGtGSzJ2MytYx6jelIUl4+9i9eWJrLTymFSxhr+Of4+Lo3vzpXDu3Hf1DdYk7eHDNvL1NIdXDOqF7VGd+aq2O6MTJ1N0q5vuSGuF3WTorh63P18uGMmOUYJ5YaH6UdX8sSCoURPHcj90wbz4NRB9Pn6ZR6e+ib3fPsOXWa9RL+v3uSFyUOYumMVZbrG1oIjDJwby32z3uOtpSnsLs2g0AowfNd3XJLcm3rjopWE35C9E5ft44uM1TT54mkujI/iwtgYesmCU5rO1mAe9y4cQp1RnTlvZBeiZgrgswga0kHXRNNNykwva32H6b3yIy4dH0NESlsiPmtHzaTbuTC5E12Xvsus8h0UGn4MIf/oorI79rrY1QFTGH42OW4/9w4axrWNejDys+/wGjZen/QXCOcIGCrZyC0ttyxbbRIN8Jo22e4gz308iX90fILk2RvIC9jkaybJMxfT74V3mLJkA8VAmWUiXWMFUEFdCEHSmsxma2oukQ+/w/91eJ7Ie4YQ80IKfQaPpf9b45i+6HvKTXG6OhwJj0RrdAuP4TjiFK1ayqWZgRAhSTgMAmphG4oTz6kpII4+2ecJOfccvr0wNx36rzDzhAAlC5l0PhInntj2jhbhpNnKQqIce5bF6u276fPMm9z1zLts2HekCvC/0iL0g+fToaE6zRZl5ZZqeEsztnPrxCc4L7EHlyf04u3lSeQZhWSJ+pw6h/qfP0rtEe25YngXnlgwjCVl+xnv2sg1I3tyfvydXDWsI7Gp3zC3cDuNxj/M+fFRXJrYlxdWp5BmlnCoLJu7Jg7m+iFRXBrbhSvi7uTS4e25IKETF3/UgcsSozgvoROXDulE+6Rn+C5zO8X4WJm/g2ZxD3LF8ChajHuOVQUHcVkaw3Z+x8Vj+1At8U5aTnqKecVb+LpgI52nv87Fo2K4dGQ0UVNf4bu8LRTbBvuDhTw0/1POi+vGBfFRdJ/1CrsCGap/n1TKcXm8lKk4+wqapfSnzujORIxvR+0JdxCR1IoL4tvTaPJTxB2eT47pwtJsLF28zI5KK55vsT0FFKklfnoNjOWSyJ68nzJXgUN4/x6PB830kxvUmPP9Nl4dNpr7B3/Iq/GT+XbDXnICBpPmryOy70tc1OxR2j0Zx4hJyzhU6OfNURMYPHw887bmETtlLU++lsjLH45j7NTFHM13UeYL4DENdmfm0OKh57mx86OkzN/CMY9BaolNuken0OPBFfSyass+Vm05woGjHtZsOMQXc7exZm8uJX6p4y+MPZ0daTlMWbyZCd+u5NuVm9mf6yKtRGfF1oNsPpzHun2ZfLd2B5sPlbBseyZzNx4k2yXdiW2KPT5W7zjAjOVbOFgSZNPhfBZtPsbBvFIWrljL3CWb2ZxZwtGgQZZLY8y0pfyj+3P8LWYgSdOXs2d/GtIENCD+EXF+qsKnjtT/tbDwa1/nnJTwYdVIAC/sMWkIIUSyMODrpzzGxXExXBPXiw+Wj6bUKKXUDpCq5fDe5s+5cey9XJ3Yk7+O7MuT68YyJHch18T15LxRHbh2aEeSD81ht5bHB5sncO3IHlw4ug8NJz7HjKPfc9iXz2tzk2k++lluGNefv43vzz9GP8Tfxz7EjePvo+6ojtRL7sw1w7vzyvLR7A/kKYm9smAHDRMf4OJR3YlMeYZVBfsotQKM2DGby5N7UTupE//5/EHe2jOFjgs+4IqEu7loaHc6fPECk/cuICdQqEyWw8ECHp33KReO6qZs8+iZr5CuFeB1leCVApC6j7mH1tJr6qtcOSqaWmO7U310B+rGt6N2Qnvqxnfk/BFdaDd1MBP3LyFDK8EvUkwBXRxdjrNK1N200gA9B8dz5e0P8uboebiFwmzZuH0BynxB4metp2nvAXR65G0efHc8LR96nVb3D2b6qt28nzKHGzo+yfktn+TPUYN45O049ueUsHr3YRZuTeW5DyfxtxYPEtX/Y3o/+iHPvZHEmh1HcOtCVLLZlppO00df44p2j3P/+5P4eMpyhkxaS/J3W9mV62ZbTil3vfApt3V/nqgnkmh/76v8pd3jNOo1kGkrdpKjwYT5a+n8xFv8/c5Hiez9HM27P0DyjOV8szGTlve+Tut+g+n88GCiHx/MiMnzuW/wMG7r9hhTFqynzLSZu/4ALXs+RccHXmb6st10ePBtmvZ+nain3+fO+57itvYP0qzfywyfs5E5W9KJeXYo9Zo9wiUdBtCk5/OM/Ww6pWUuJ8ohnn9JnQ6p+b82UH+t653TgJdwkSA9XBRXbMHFmdupP+YRLomN4brYXny4fDRuo0wlpng0D1s8x3h01Sj+nNSXSz7oxE3jHiFmzRAujuuuJPOfRkQx+sA8MsRD7j1I5y8Hc15Sb2oN7c7Ti+PZ7c1ge0kW01K3kHBoNbEHlpN4aDnD9i3g9nkvc15SV+om3EmLyU/xXbaonl4Clp/lRdv5z5gHOD++O5ETnmZ1/l7V3TR2x7dcExfNeUkduGJMFA2+fo5LUu7j4uExtBj7BImbppOpF+I1xfllciSYrwB/QWw3LoqLInrmq2T4cjGDPvJ1F98e/p6+k9/g6rgeXDy2N9WGdeC6lH7c/s2LXJ/Ym/Niu1A3pacyE9pMfpGxhxaRJc0+pc9aBa+2mEpHywL0eDmRy1o/wjvjFuE2HI+8REX2ZRTQ7rFR/K3zIN6etIEZO70MSlnO37s+ybNDJijSS+83J3Jhm6d4atwiVh/Lp9wQirHJ3txSej31Ef/X+P+1dyXQVZXXmq7qK9olKnXioY/XVy1aaKG1VbQKVAEFgTCDzEGQSWlFDCIERWRQGTOHQRBRpDIPgYhKkAQZYoAQEgwQyMwNme58zrn33O+tb//nJLHS9VZbV1fMu5d1uDc3uef+Z5//23v/+9/726MwN/kw/nrwCg5l16LUbaBG80qDkpzCK+gydTGuf3A02nSbhHZPj8cDT0xE97GvY8exc8h0uNFj4iK0fGg0np6SjLnv7cfTf0nADR2HYHrsDhzIr0WPyfPR6slIDHtjHRJ3H0Pchu04mleKXVkVuH/ALNzy4DCMjY7Dys17kVlUhVdjNqNtj/GYNG8VTlaGMH9jOu7s9CymLliPtJxydB69AC3+MBHdJy3Eso9TMDt2B37ZezoeGjMPGw8VYN76L3F3xFz8fMhiRCel4FhWHjQGOQXk3Dquz63/vgD6fZ+nUQOe6ykyYEjChqzRNKQUZ+I3q8ahxYoI3LVyIKIPJqEqWAONbY2cPtSYXqRWnUbvj1/BPcsG4qZ3eqHlqkFotoKBrR5os3Igks/tR5npRUXIieU5O3B3wghcv7w3Hk5+Hh9dOIDykBdXQ4asP1mS6yBzbVUufv/XF3BLcn/cvjIC0SfWoChQLttTuqnhQNUp3L96DG6I64NH10zGYccZ8TpWZm1F6+V98dPEHviPuO64Lv4Z/Pjd3mgXOxaL0t5DgbsQmgSmApJtd067gsi9b6N5jHLp+26ZhfOeInhMN7YWHUXEpmjcsaQvfpLYS/b871kxDBPT4vCh4whmHE7GfQmj0TwpAtfH9cKN7/ZE543T8OGlNFwxalWjTNlvVs02Cmp86DczDjc/Ngrz138Gh9cFR221rJ9TT+Shff/X0arzC+gauQidx81HpzGv4+c9xmH4n+fhZImBqcu24oZOo/D2nuMoZXBQehKYKLjqxuzlm9Gh1zT8uvcMREyOw6J1aThT5oJTCESDOHWhGJ0j56PVY1MxIioBi1Z/gkWJW7B666c4cf4Cch0V6Dk+Gv/TJRKz4lOR79GwdPtx3PHwcIx9fQ0S957GHY8OwYOj5mDbmSso1VlByDEEseXLM3hgwAz89xPP4dOcK7jMeRE0seVgFh4fOh2PPPsK3jtyBf3mrMe9T0/Axs9O4atvivHQ0Cj8rNN4JOw9hSJvACeL3Bg6MwltOo/Bmp1HkZJVgvv6zcb9g+YjPYf3Xu0G6NzuJHNSI7fuVB6NGvB0/aRE1hKsK+TFzpLj+HXSWNy8oi/ujBmAV9MSUR6qhs71E7eV3H44zVp8XJCKXtuiJEW1WUJPNEvqJXvXVAJJufvE3a7x+XHCVYjBO+fhrsRBuH3pMxi4ew4+dnyF1MpsHC4/iy9LT2FLURpeSluO22L6o2Vsf/TcEoWMqlMwgux7bsAHHftqTqPtmki0iI1A19VTkeE4ixrTg5WZn6DVyr64YdXTuC7hKVwf1we3LRuMifuWItNxRrqykEVHDzK9lmv4coxJWSyAvymmHyI+mYV8vRxflWVj8I4FaJkwFM3je+GGuCfRZtkAzExbhUNX80Qp5XpK8XLaKrRJHIqbY5+RiP1NS3qi94evYW9pNmpCKpNOeKRDQVyq9qNfVBxu6TwGM2J34qKjEiUVTuQ7apFy8iI6DnsDrbs+j+krtyIpNRPvbD2Ctz76HCkZ2ch3+DB5wQe4vfN4vLHxC5R7WE6sw+vzSFAvs6AGG9MuYNaqVPym7zT8fsCL+PCzE7iqGRLRz75Ygk4j5uL+Z2Yhec8pXPYGUeoxcUULoioYwIVqJ54Y/hru7TIeyzcdQ3nQQMLeTNz92EiMem0V4nZno3WX0eg0bj4+PV+BaknfdUrLru2HT+NXA15Ch75TkFcVQI3OJqcBFFf7MOPdtbir80j0eu19PPDsXAyasQSnCytx8lIZOo2MQusnpmHdgXxUGiEUVOkYG70abbuOxerNn2HPV/n4Vb9X8NtnFyD9VCEMg3ERVb4tiT4kRxGS1IalSd+3jf7XzteoAc+tFK7fedBtqgl5sL30OH6TNAa3LOuNu2IGICotEVdCtbKOKpea9AA0ZyUqAxVIvLQTHT8Yjx8l98WPV/VB87he+MWKoVibsw9uNrH0hlAR8CI+ZwfaJg1F8xXd8LOkCPxi9Si0Sx6H3yVNQMfESLR/fxTuSH4KLWL7oVXMYCw6uxlVwQrJ7/cbBpwhA3trctB2zTjcurIfuq16AUcdeXAS8F9/gttj++I6Ap65A/EDMXTnAqRWZMFrOBFwO6Xe32mS5MPAOa0ckXsX46cresuyZdCm15CrlWHt0e24L34sfrSqP65LfAr/GdcDz3/+NtKrcqRUlr3q/T4vjvovY2pmAtrE98NPY7qjRWJf3PPOMMw7th0lhl8i0dI4hICv9CNiRgxu7RyJX3abhIiRU9B/6FSMevENbDqch4Fz1qFV1zEYMH0xZq/eigmL12LEnBgcPVuIMo+BqJXbcfPDkeg+YRE+3pUGb61L9vpLHBV4M2YdXnp3PRZ+/Dn+OPoV/KL7cKxNSUelrtJjcwpK0GnCQrToPAUDXovHjLh1eHnpOsyK/QCfHP4aR4qcePK5lbi7y3Qs/PAkikNBxKWcROvHIzFq7gfYnOnEgyPfxK1dx2PC4nXYnZGFbbt243xhOXaduIz7ImagQ/+pyHH44BNefFMU0aYvMtGm51Tc+PhktPzTJCxctxcuI4is86X43fCZuPEPk9H/pXXYdigHiZvT0L73X9C+xyTsO3IO+7IK0G7QbNzdIwrv7/gStU7WY3AnKSTlx7TwYcD/EwrJdo1o4bklo5lBIbmoDvnwufM8eq17BXfPG4B2y8ZhxcldKDGqpHkFkyI8TAJhoonuQ2mgGvFn90mF2a3v9EOLJQPxeNI0bM89CG/QJdluzqAfWe4iTN+fiHsXD8Ft7zJfvg9uiu2Dm2Mi0HJFBG5bEYE7lvVD8/l9MGLPEmRUnpOUz5CPZBesUzeRXn0J3dfMxp3RAzF843wcq/gGZSE33j97AA/FTsStCyNwz5JnEbFtPr5yF6Iq6JVSVviYV662hPSQjjyjAi+nb0DreYPR7vUhmLcvEbl6KZac2oZ7k8ag+bLeaBc/Eq/uX4FCr0PV90smOLn6uCzQcNoowxsZG9ExZjx+9lZ/tH17FKKPb0ax5hYSTG+QyUwhXK72Y9q8BHTsMQYdnxqL3/aIxP2dB+OZyCjsyzyPPTnFiHwzAe17jcN9XYfhl10GYeAL0cg4V4JLLhN/PZyHJ8fORKuH+mDYjLdxuYIViyYy885j3EvR+HXXCPyq60C06zYUf14Qh6yCcriCzJg0kX2+EE9Evo67ujyPlo9NQMs/jsPtj45Gq0eGY/Lijfjigge9p8xD226DkbDzAIrNEBL3pOOBbiPw3Nx4nKzwIHlfJjr0ewF3PjIEdz0yCO17PYe3NhzAhvRL+O2wmXho6DQJAAaYHeivAglBTl3V8eiU5fjxw5Ho+OwcHDhxXggzss4XocPI2fjJI5PQqls0/qtLFFr/LhLtH38eUQvXI7f4Ki6UVWDinKW4uV1vdHxyMpLf2wqPV5Xkcs7pOpdKf59K7J+Awvf+kUZt4YXlRcpdTeg+pnJqyDcqsTonBTNSEzD30Ps4XElLykwuXfZ3uVdNQgz4vLK1dMFfjlXn92PygViM3bcM8dl7ccFTBp/hFsZXLRhEecCNbfkZeHV/Ap7fvRgjUxZgRMoCjNq7EKP3LMTY3QsxbtcijNu3HBsuHkKpUS1ZfCGfJtsyPt3AZc2JZcd34YVd8VidlYIiX4W0ms51FiH55G5EH1qPdzO3Ynd5Ni4HnXAzWs50UT/z05UnQ9e+2vTh07IcLPhyE5albcLhoixUsba9IhuvHkzG2F0LsPjIBhyvzIEzxE4+bNxFK8OtNtXQgjsWJ5wFWH5qBybvWY6oPQn4tOQkXEFSXTKHPyB78YzKH80twu4jOdjzVS5Sjp3D7oxsHMjMw+VaLypDwMniSuxMz8ZHKenY9tkRnC4oRbXfEOAWOf1I/TofG/enI/VELpw+TVznWr+Ok/mXsSc9C5v2Z2BnxmmcLnQI0w0TdPRgCOVXa7Bm92Es3JCK+e+n4s31qVj4XgreXrtLrGt+pY51Ow4i/qMdyMj5BlVBE0fzChH3wS5s+yITpV5dthW3p+dhfvIWvLp0HRav2YLUrAIcL6xF7LbDiNmaijKfIU1NQ4FaaEEDuc4ger6yFjc++hxGzVuL81dd8AcDOHmxGB2GzcQ9z7yMF+O/QFTCPkyZl4Q1W75A9uWrcAcgOxefHsvFW6t34M3Yj3Ao42vpqCPU3NzqZMkzsxSZudNIH40a8OSEkyIKZnhpmvRiI/lERdCJfH8pCvwOuFjcEdSE+kqILelWcXvE50eITDEBHxymE2f9pTjtLUZZoBY+kwUcXHMGoWnsAmOiKuBBga8M57yFOOMvluOsv0RIKXN9pTjnK8UZfwmuBJ0SqFPnJ7OtSkdlgkeBVo1sVzFK9Rp4DA8Mwwvd9KMqUIsS31U4DBfcpgGy6zB3nHEHFoVIiy7mj/t0BHVDIvYOrRY8nAE33AEPakw3LmsOnPMVo0SvRLXG6zCktFZSSoXRNyjpsLrPB29IxyXjKk57L+OitwQuKef1IhTi4UPAZKtqlUTjDIbAw8VKND4HTdQE/HBqJOI04TNMeHya7DeTsSdo+uHzuSRIRtYfZt15yQzMwKrGtGFmBEKdKxCUc3N5Rs4+TVfNJZmWWqMHUKEZKPcbcLC7sM9AtdeA06NiGtVOr3yvx+eVejbKi+Pw+HX4DVKEmWAtgMPpR1mNB5VuPzwcqxlChTeAcr8mGXaa7gRMN07n5SNpVwY6DIlGq64TELf9MGoNK3uxoBQPD4/Cvb0mY2N6ngQJz5QVo0Zn4xDAzesyAnAHTJT7dJR73HB5veLOK8A3ID1tQCXW2HD/gwA894a5NiJLjGRGsTCGZYpMrdT8UmvtCTCFVO2DyjqK+87MLtO98LprrQoqamEdmp/Kg1VTJMBkgYfV6YX8byaLO1jwoQtRBbOy7EPSQ0lRxUnLtZtBa6kSLXg+RohJGCkBHM0r49U1H4J+P0JeH0AaLq8h6bEeBIVZV2NZJs/BBhtaEIZXQ9CvI8SyUpaEkpdO0kM1SVH1s5SUe74BFqiw6kvljkueOz0GzZDvoJcjLZRDquLM9LsR0msBk0UsbklNZSUaqbbdAZ9slfkCuhQosZOtRjptq1BF97lg+FwAZWM4YQZcMH1VMHUPDB4Bn3ALEMRcz9LAcbvKq+mg98MGkvydNBSVyjZWzVHWXmimR77LoLyZvELOPs0Pk8ksrL7jdqLuRdDvhqm51c/ssqO7EdRdFvWZuq88J+WtaZrUUKjyWBN+zQt3bRWWxiSj41OjcM/jozFk+hJkXSwVdmEqzLOXivHY4Km4r8sgfHjwKKpNA24Gg4PcZyc9FwNyJrRACC7GQtgOPcQiIs4PBXZ7/c4laWN9NG7AWyytisSSOeAEfUCq4ODTxCISGGJZzCC8fk4sFTWl+6YF6XKTrZakkoYQTdL6k7KZUXHGBmjlAtwFEP48VYIpRSMkp+AhaaYsJ2UFlwEpAxV++QBYWWbwPEzp5C4By7u1IAIch64LcSMBy/OAQCTg2UU1QFYWlpQw19siq5TKMp7D6nFHptcg2x7T6gYkKUfGKoUcAQE8mXrFustuhmqYQcBzqcDJx9/5CQKDufRUJB7h+JO6deaVcxJTeVjddghUEmZKNp5wvHO5wUIVKlKClMUmHgT8BD09BYKUVXhUkAa4PcXcCSH4sNJWmasu5BRsEy6lsIrei9/BKroAC2qEq5/VbuTup7xYtEP5G/B7nOpzAXKXUYmzrFeVrTI3n+21pKRVUodVUhHHynH5db8oTCqS2ppqbNqyGy++sRJvrt6Gg1n58LMiUvMKYIsqriJ6SRJmLU5A5jeX4KQS1CsRDLhhBqj8lEyVUiMhKb1KAp6EqvWEowrsYcD/QwrPDtpJRRKLHmwrJ3XMBCUBRMJKxVDK4ggG+Hj4CEKL3lnaBUsNN/+WE8gEo+pc50t9t2Udbe480joLISbTUK3qK4KM/Igs3OAkJWuux9ThkcKMkERpuZ3Gc4qnoPEcVBAkb7D62lGhCPOsWmuTf45KinXn0lVHWimbAjyC2K2TwloVfNAVZsGKgJ+fsxQCZUBwcZxUiKqSjQEPNflI3c2ceZuNV0pyDaVQyIhLGVOJMejI1yID4QO0FI6cX623OVb+U6Wu9p4z2XU16AaXR+QsUEU59D64XBICSVbnScKPIiCVWniC1aoyY4UarSeVslIyip2XXgIr95jTzrRV9TPvq+raI0U8HD+5Aa3SV3puomjqGGtpeVktySUIiUy9cPn8KHT6UOrV4CIRqcsJk7EevyZLkisuNwqvelDlCcJrUCFSwbA6kElLqsyWwCcBBmUnnh/r5Ql4aw+eyqUBn9A/NO//HX/cKC28feF0V1l0wYMsLeRvo1UkCNnRhN3KuG6nxbZ6NEgKLvndyPOm8u/Vs/2an+MElonCdbNVey0dXuSmEQDqkJAre7hZB9N7WUzhYWW1BRLSVrNgg8U97HjCsXAJRyXhlr8FPPycpTQ4jnorbiVu8Bqlc6wKvDERx0dGPpnQqj6d5+X3SyWX9JXjzw3aagko1VTjNdY38FCVXl5pvPT3LY+tZOXZUio8P+XKMduHyN0aC8fT8ODf2vdERkZ6bCb6sJxVmmUqgKr7qu5Zw89/67VNrCH3Ssnp746Hcledyi2CTl4nD/Wu6nmjKt88cp94XfQSWE9P8g2SbHBZV9f7Q20FW8082Os+JJ0O6NVwKano0Bux525D6DvPjRrw1Jr1lpbWUvG4E2zsFsMJIP/EHSctuUrDFUolq+c7JyHBJ4dV8iiAt1s48VkYdVSnWHoFPKi1ZfJbFNLsWGEDWawurTZZHNgkgmttWkCxLhyD1c1G3quf2LYyUCwwau0tgUarPZZMJLHaqg6brqKaXCrH3VYUolWk37oCgm1dOF7yuwjo6JFI7INMNbayEPVoq8lvP1tKzlZ2TL0V74FekKUs6n4Wq/rd0lDeDx4iX37KcuHtZypZdb2q/ZRSvNZyivewDtz8TumWJ89CZCEAbfiu/VopfWsmWP3khEnBoi/mfVQ8flRWVMqUD6/PJIOw6VNsNqJglGdHj0mlyVqpsnJ37b5EDDrSU1K/+w6iGvkbjRrw9gTnM28AJwwPuu4EPCcM/xEA0i1GmRjeUdWOSVGm1YGdVko+Y7vAcj7lZtOaasJ+xmd6ESo2QPDa7WmkyYV4D2R/4XcqwHOichKpaLnVRornFktpkUfYYyJXm0VAwbHwc3bLLIkj2OeyuNoEzKKU7LW9eqZHUrd+t9188XwswFEhkSaKSx+hsaZ3wG+yO85f+9kM8eq5LrVYX2ihRQB0aXmotbj9XsNnjrUOxAIqgoIgsjwx60y2ByJelig1FU+wlY14A3XjJK23HxB6bzYS+/Zhsc6JmqsfC7+BngWFLj25xN4L5ZbYfqowKgIVX5DrElVBWi4VH5Df8fd13yfkYEo1i8dCr4Vn/GE9GjXgxX+lD/s3hwSv5JZZN44TXlxz1cGF91kKboSlxXb3LY9A3HalQGhB5bCYTWzAS5cUy/4pwCmlQn58pXiY8qu4oWXtbFlWUSYWOO0uj4USAAAEC0lEQVTXXFNL8M8KANqNLWkt6y2nGpu4upa1V9BUyxmxrNb75GDjlBcFw0nKOWcZNIrJhqcoG1nXMJhnpSj/H4DnwkLALqrPonoyrW4dNjgkcm8rA076hgftd/0/BTBbqamxyXJMlgpUtFQeijxTeOmsCL6cswHglTNO0KudGUVzpV5LJxHSU9VduS0ZPos5sP631kGiAJSnQ0nSl6I3x4cCPtfkfnH3VUtSXUg8JddBJE8lQBefkSP1uR8S5Bs14Bta+G+9FtePlkO537JNZfHe1a01xaVVCl4sJ626HJwEBIyKUAvwLMsklkg+p9xLrgIJePuQHnIENCcHPQ4rEk7o0jbQCRWtb4GZr+1OswxUUblwrDbY66Bhr5ntdleWa6zWrEoZ8DWXMop4saFXUA94uu50Wfk3tP6ijMj6K8SUyk22be23ni13XoJPlvJjOo+0a5IIvWXd+dr+uU7lNACYrNelvaeAgbDib5UHQ/urxqWCXLSk3DFhplr9IaSRdapQqUTbcitX2hpDw7FQw6tojtxbdYfrr1DkLNeo4gkS7RcmXkXYWaemKDNRAAwU+rmHYlFcquVXnUdCBSNeRxjw36uys4H2t88K/Fw7kznVgB+KFYesJwyoMUAlLYOtNEeJhBOotMoEADvLCuAbgNk2ALbrLdExyNSzJ21DwBNE0rvNynBT+W6cOmqSCvgZiLP28W2mVTat4F/wn9IcolVkXKqXnkrNlBRNK1go231WswmuWnjUBfEaWHgCnsFD7vFz71627aTNVRAusWZUVdd4iJzUmpyytq+3Xu71yyk7uFc/eFF/KkgmywCudQkUJRHlgNc73nYwj+/wPjB49u2DtlTZTl6aOruSl/3dokgljmCtse1YjmXLLYdHbD6VDe+FiskQqMojIZ8NFSNHy79RYLa+x7Lkypey7qil+Dn3pPiIPPhhl/4ak+nf+FaDqVeHJfu9aw2jfgJ9NwB1rb8PvxeWwA9dAo3apf9HhWuD+1rP1zpXGPDXkkr4vaYsgf/XgG/KNzZ8bWEJXEsCTQrw17rA8HthCYQlUC+BMODrZRF+FZZAk5dAGPBN/haHLzAsgXoJCOCl9LQR1/DWDzf8KiyBsAT+FQkI4FXeMGPb4UdYAmEJNGUJCOC5PUXQhx9hCYQl0LQlUAd48nGFH2EJhCXQtCVQt4bnOj78CEsgLIGmLQEBvN0Tq2lfavjqwhIIS6CZHaEPr+HDkyEsgaYpAcboiHM+N7N/CLv0TfNmh68qLAFinA8a9WZ05/kibOHDEyMsgaYpARvwNOri0vMFgR9+hCUQlkDTk4ANeO7ENXM4HAL2sEvf9G50+IrCEqAEbGyLhU9MTBR3Pmzhw5MjLIGmKYGGFv5/AeLNPr2BDUk+AAAAAElFTkSuQmCC;" vertex="1" parent="1">
          <mxGeometry x="362.5" y="610" width="229.09" height="90" as="geometry" />
        </mxCell>
        <mxCell id="hJJdkhpLcyISavDwx0z2-39" value="" style="edgeStyle=none;rounded=0;orthogonalLoop=1;jettySize=auto;html=1;startArrow=classic;startFill=1;" edge="1" parent="1" source="hJJdkhpLcyISavDwx0z2-30" target="hJJdkhpLcyISavDwx0z2-31">
          <mxGeometry relative="1" as="geometry" />
        </mxCell>
        <mxCell id="hJJdkhpLcyISavDwx0z2-30" value="" style="shape=image;verticalLabelPosition=bottom;labelBackgroundColor=#ffffff;verticalAlign=top;aspect=fixed;imageAspect=0;image=data:image/png,iVBORw0KGgoAAAANSUhEUgAAAOcAAABeCAYAAADYMQOdAAAgAElEQVR4Ae19Z3RVV5Ymv3vNmjVrprtC93RNT/e0q6rLgBJgcjJJOYIAZ3Aqu1xVLpcjwYggIYksECLnDCYaMCYZk3NOyu895ayXbvxmfee+I54xso1tLFVxHz6+QTecs+/+zt5nn7336WCagGmYMA0DpmnAMA1o0KGbgK4Dhm7ANFSYhh+64RNFM33QTD9U+KFBgQ4VGrSW/xtQYZrWPabphwkFpqmJZxumCd0wYZg6DJj3igkYDyimaUIW2D+bAo8RBTroAHQCxiRgLLBoBA3Bo2swRVFgGH6ouhem5gd0q5iGD6ZuFf7dMHyiEJAwFcDw46vgJDADoCfogK+VYIBKUMrtY/Rd7KbaFEAHFaBcE4WgJFgJGgPNMEyPBS4C1QA0HfCYBjww4IUBH0xoQtrqMBUDUAyYKiWtLqSwaXJ7T/JRKst/hKYFTm6DZKhpSXB5n+gwAs+wv5dNgceJAgKcBJkfVEYttZagUuGBanqgm4qljlLiWfiD3wB8LDqgaICqAj4N8GqAXwdUXiukMcFJuEuVmaos/+kt0OTfrCJkuLjeAjXrEoCtAOfj9FnsttoUgCU5OSq0wMlxIceKCtymBq+hQTE06IYB3dSh89g04TWBRsNEtaahXNHhUnQUaRpKNA0VmoZGXYOf9/FZZjNMWBLYEONOS32mZJQy2gKnBkCzwWlzpU2BAAU6mKo1LtQNAsgLGJpQTz1+E4rBsagBwzBB6DSZJlyajoMON9KPlyJm8TH8evw2/N+/bsfP3tmK7jO/xOs7irDstgfnPQrKdQ88Bg1GPhhmMxTdA7dhwG0CqqnBrxK8lLQqNI5ZFQUm309pK4v9qWwKPKYU6GCabgEca+uBYSrQDRWG2gxNbYKqeYUULNdNXGhWkXbsCqKW7EFI3j6Eb7+GLgdK0Xm3Cx3znAibU4Su0y6hz8cH8Ydl57H3ejPKVRNuMTZVoWleaIoHur8JPlOHYuhCdVVMFYpBYBo0D98DplCJH9MvYzf7sadAB8NsgG40gpLTr/vQbBqoo1HG0KAaGpoNA3cbTay8VIGXt51Cp/m70Hv7VcRcakRisY7EUmDoVQVDP6lHzMYGJK6tR1ReIQZOP4Wkmaew6LgTh4s9cCommg1dSElTd6PJNOAzDfh1BYppQOUUjq7bkvOxZ0mbAJICHajK6poHqqbCYwLXm3zYUViHtXe8yLnUiLf33UHk0mN4cuFB/OuKYxhwoQGJJSaSXCbiCpoxOr8Roy/XIGX1DaQsvYORK11IXleLwUsdeGrmVfxm0mn0m3cVYzaXYtLRBiy95sXuQg/Ol9ajXjfg1hV4TRMq5zhpHJLqrNzKmtpbmwKPGQU6GJoCQ/VB0XWU60DmoZsYMHMXBqy9il7rrqDLhivosesuBp2pQVSBhugqE4OcKoaVqUiuUvFsqQ8p52swYqUTo5ZUYOSiGiQtaUDciibErGjEsBWNGLCgBD2yL6NH1gX0n3EaT0/7HO/M24ZLrno0UnrCFJZenVMw9pjzMWNBu7mtUaCDSQ8g3S98fe6qwNt7rmHw2puIv+FHQpGOOKeO2BIFiaV+pJSrSCp1I8mlIM6lILbEj5QiEzHndcSs9yBuaSOS8xowYlEjhi+uwvA8F5IXVSBlSSWSllUjflUDYpZVYti82xg9cTXOlDaggdZfw4RXQcBSaxuEWvtY9vnHiwIdOKWhmSp8pg81AN799Dr67HRieDGQVGoiyWEixQEkO0zEu0wkVJqIdxpIdgHxJRpGlQDJ532IWl2JhKW1SF5cj6QllJ5VSF5SjaRltUhYWokEbpc0IGFZPaIXOhCdfQyHXV54aQMyAU24EXLKk26CdAa0nBMAzo1aky6P16dpu9YahgFN00TRaQfgfLNw77QcSrgvizUl1nZ1/Xt+c6vgTHCYiHGZiC43EVtuIqbcRGSFgcgaA5HlOmIqgUinhmQnEHvJi2ErKxG3uBaJefVIzKtF/OJqJObVIHlRLRLyqpC4mNsGJOU1IDbHGQCnLwic9O/lwNMGZ1syHMEYDE6CT5bgeslzNjiDqfLj7rcKzjiXgegyA1HlRgCcOiIrdETW6BhWriO6Ehjq9CPRCcRc8mLo8irE5NUhPrce8QtrEZtXhbiFNUhcWIu43GrELaxDbG4T4nMbEDXXieis4zjstMH5437OH/60YEkppaV8KoEYfE4CVP7d3v64FOjAx+nQ4A+ote/tvSHU2pQSA4kOA4lUYanaOnUkunQkVOpIcBhCYsYVqxhVDCSf82Do0nLEEITzaxG7oArRuZWIza1GzMIaRC6sRFReLSIXNiJ6YT0Gz3M8AJw0BlHHtSXnj/uJH+5pBF9hYSGuXbuGurq6FikqQcmt3Lel5sPR9mGvvgdO+FELQIJzOKdLAmPO4aUmRpSaSHYYSCkzkVxiINUBJBWqeK4QSD3tw5AlpYhaUI7YnArEzC9D1AIHohaUISq3AkMXODGU29xqRC6oxtNzChGddQKHnf4gtZbgZIyaDc6H/Yg/5vUca86aNQspKSlie/bsWdTU1MDv94sxqASklJry+Mesg/0siwIPBucup3AuiHOaiHPRKAQkOU0kcL/MFPOcNBIlFul4pghIOePHoEWFGDa/FDFzHYjKKcbQ+UUYNr8E0TlODJtXjGHznRg6rwLDcsowaOZdRGedxGGnYoOznXGi1+tFWloawsLC0K1bNyQmJmLx4sVwOBxobm4G1V7+bHA++g/XgZEmnFtkLGadkJzX0XeHE3FlJqIrrRJXbiKhwkRchYnoEgVJVUCM00R0qYmUYo45Pei9uBR95zsxMMeFp+e5MCDHib4LStF3rhODcyvxdE4FBs6vxoD5leg7Kx+DMw/joFOFT9hl6Y0EGGKe05acj/6zt/4GSsiJEyeiS5cuiIiIaClvvPEGVq5cicrKSgFQglOqt60/zf7LD6FABysTgiqCqWtN4N1919FnhxMJtNJW6oit1JBQoSKpXEM8j10KkmpMxFUaiHPpGO4Aoi42o2eeC73ml6HvvHL0m1eBfvPK0CfHhZ45lei7oBK9cyrRY14NnppXie6zCjEk6wsccurwmoxEMQQ4RaiYrdb+kO/5g++9H5zh4eECoKGhoULVPXjwIHw+ny05fzClv/0BApyGzphNP6oM4K/7r6PvThdiHQqinT7EuHyId3qR4PAi1ulFlNODyDI3ois8iHF5kVSqY9C5evTMK0ev+eXoO68S/UUhQMvRJ6caveaUode8CnSfV43u86rQa1YphmQdw0EBTmsejZJThHrb4Pz2r/YIrwgGJ4EpS8eOHdGnTx9s27YNiqK0zIE+wqo89o/uoOtUTxhmraBSBz76/Db6f+JCKp0LSq3C/dQSEzQMpVLFdVhjzxSXKTyEIi/50XVhPrrOy0e3uQXoPrsQ3efko/ucu+g1v1Rse8wvRPcFpei9wIVeM+9gSNYRfO7Q4BFZE0xowhlBC+Qqsp0Q2oozWwMnVdxevXoJcKqqKgAqx59tVde/9/daktNQoZt+VGvAhP23EL7oKvrtqEPfnXXos7Me/XfUY+COOvTfVYP+n1aj984K9N5dhT6f1qHXrkoMPdiEqKP1iDrC0oBIWY7WI/JoPQYfrEbk0ToMPdqAmCONGLC5GFFzD+NwmQqPQbVWglMmErPB2VaM1xo4aSAiOHfu3NniPUTLrm2tfXRfSkhOTWNyLj+aTWD64WJ0mn0WYVmF6JxdjM7ZJQjLLEF4ZhFCsvMRPvMGQmfeQcisInSeXYSOs28hZkcDkksNJDk5LwokuFho3TUQV2UiqkxDbJWOqDID8Q4dvb90ID7vCL6oYkQKx7s6VIZx0jhkq7WP7mt/hyffD06Ckqotx5y9e/fGjh07QMlpW2u/AzF/4CUddL1BGGR8TDsCA1tuVyB61kH0yrqDzlmleGJmNZ6YUYmQmaUIy7qDrlmFCEsvQeeMMoTMqsZv5tzCwD0OxDsVxJfpSKDTQqmOZIeK+DI/oqtNdHf5MKRGx1CHgqQSA723XEXGviMo9RtQdMZy0vk9kG9IuPDRgmyZ6632yZQmP7C13+N2aZWUbm3y+Ju2D3qNYmoiZrUle5KMKdes+HKmCxXZIaDBByvGlcHoiqrCYJ5Spi/lEEQMQ+5NZXxf+twPLnnM8eSECROEtZYWWwlOArR79+7Yvn37V8D5oLbynAQw6cYin08LL3/B9JN/a+1Zj+v5DobhFuBk0q46GDhe48Pzi46iS+ZldMq6i//KduGJ9BL8LrsEv8kuROesYnTKKEKn9FJ0nlGGJ2bdQr/dlUgqpvXWQEyFhrhyFYkuDQkuHXEOHZFVBqLLdSQzBvSaF33XXMDm6/moFknCdJGXyB/IncuEuQKYPKZfZ8Dpndu2+LEO/HH7IEbjeclw3zS1wHQvTHpm/ePzGNAuSyAtaSBFKa/1aWogD5OVtpThdDrVSEEnyw/Zoo8VIGBR6rtTSNwb8JuV7eO51sDJMWePHj2E5JTqLK9v7SdpEbyVIA1+3/31aO15j+P5DhD5fTiVYaAJGgpVE9kHruM36Wfxm/Qb6JTpwG/TCvHbjCL8R2YRfp1ZjP/KKMST0wrwZGYJ/mPGLfTcVYfh+SZinQaGVimIrPYhrlxDotNEcrEfKbUm4kt1POs0MeSwC4kbL+NKgxeNMOGjdAgEW1vMGsR47QSckqmCGSl4X4JTnnsQI7WASjA0MwuqojC7oUgLQ82BHRMj5ihNReJtEyolqk5gW9kIreCAezSykory/60D5YH1CQKWrDe33wTOnj17tow55T0PejbPBYNSXivP3d/Jyb+39qzH9XwHQ/dB1cgguuip60zgTLUH4bMu4D8nXcCT00rwu4+L8Zsphfh/6QX49/QisX1iaj5+nVGIX2XeQo8d9Ui9CwHOwdUKhtYoiC3XkegwkUp1t1zDCJeJUTd19FpzAumnnKjQTTSTGUQ6TivZdIskCfToZDeZZDqIl37SbyUZigzEfaprwSobz8nwqm9kMpHkwQIVx9jM1cSiMmO+yYz4BKduxc4pJlS/BlXVoekyQ76MDrFSiX4lfWiQBPyuxGFdCRK2RXY+3HLM+SC1lpLzYcApaSFpEwxI+V5J2+9a58ftug5MR2nQQ8hUoel+kTS6yjAx8XAVemecwH9Nuob/TCvGv6cV4N+nFeD/TM3Hv03lthC/Si/GLzNuose2OgwvsFz9hlYaiKzUEVdmGYiGc9zpVJB4V8HQPXcwevMJnKpqtPLeitxBgXhBMZayHBLEhw2osy2xng8nGH607yiZTDIXt3RxKy0tRVFRERoaOGa/5y3D/Qf+BDiZhYVjR4ZlEaCUnoxclWlBqbbSYs2EZx7UKTWoaK5Ana8OPpOeUzTEWNdb4LSCBYRUbu29D6zMvTErwVhdXS0KpeY3Sc6HUWslvUgPApTvKC8vR21tregAJM0kQFulWyv1fxxOd6DrnrWOCSeWfdBNJvVScdNn4KVFx9Ex7ZQA4i/SCvDPUwvwq8l38a9TC/DLaSX4eboDP0+/jp5bq5FSbCC2zMSwciCqzArITnKqiC/xIKnKxMAT5QibuxfzLzhQ5/YKtY1jMBo9xIei6qbTamyZ58niQnLSuMBA7FZ4/lF/pPuZiO5ru3btwptvvom3335bGEiqqqqEBJKM9sA6ydzZYntPLSXIqMeaQpL6oZteaGYzSt13se/CLizfuxT7zu+Fo6kEbqMeqsn1aQKg5r0iWODhCUSJ6fF4QMf2uXPnIicnB1evXhUdz4Mk58MahEg3gpJgz8/Px4IFC/DBBx9g69atIuqF50kvSTMbnF/nmg4CBGLZBOYJoYrlh2Yq8BkKDhZ7EDvvAn75wVn874xC/OPUO/hfk27hX9LK8IsJ5fiX9FL8IvsSemwpQYKzEYlOP+IdBmLKTMRWmYhh9oRKYMj1enRauh+Tjl+Dk2Mp5R5zyirx47SUICOQlQf+0WdCkO8ms7DXl4xDKUlGIiNfuHABU6ZMwZAhQ8T0Ai2ZAwcOxEcffYRTp04Jx3D5HLnls7jvNzmXHBg3Eo+qaRXFhOZX4VEa0WRUweG/i+MlB7Dgs5l4f8Xb+P28l/Hm3NeQvTETp4tPokapgZcLSvFZGseogaIGjinFJS11S+WWbZFAYHvYyaxatQpJSUnCMktL7OjRo7F27VrR8UjfWraR0yjcSskp1Xq2iwCUbZRt5jlew5Cz3bt34+WXXxZO9AR437598cc//hGHDx9GY2OjoG3w82QduZXPlTzyuG070LSvc3kEUxXgZA8uxkCGAofPxPIL9Rgy+wR+NeEL/GzqFfx8Wj5+ObEUv/ygGP8y4RZ+NuUEum8rwfAiBaOoypYpiCnzItrpxXCngaRLCnquv4B3jt7CqUYPGpkFnvNkAZN6MMHlx5VSU0pOCptHLTglg5ApyLysC5nD7XaL2MbZs2cLRmakRufOnQXDSqYlIyckJCArKwuXL19GfX29uJf3y+I3FSj0xCJwdAKJuZs45mNH6EGlz4GzZUex4uR8TNz8F/xxxct4deHzeDn3Bbw06zm8MPVZ/HXen7FyzwqcuXUatZ5qaHQeYUfCwoVsuDIcx8U6rUrW6nHy/RIwxcXF2LRpE8aOHYt+/fq1tINt4rjy6aefxlNPPYWQkBAB2mBwyjGnpBVpRHqx8BwL31NRUYG9e/eKTmvQoEHiHQQmn8UtaRgVFYXJkycLyd3U1NRCJ97P58lnB/PH47bfgQYZLbB+CdNScikGuvNpXq6VApT4DKy6VI4Bcw7j5xOP4Z8m38Q/jbuLf/6gCL8afxs/SzuJ8K0OpN41MLzYh8QyNyKdDRhVpSPufB36L72CN7bfwMkaLxpMD/xGU2Cho6/DTYKTHyEYoHL/UX4c+W5uydAEaEFBAZYvX45XXnlFMBQZtmvXroJpuU9mI0MHF8ZBLlu2TKhylLryuczTxHlMglNV/PDrXiimG02ow/Xqi9hyfiXS93yAN9c/j5fXDMeYlal4cdkojF3+HF7Kex6jp4/As9NG4ZVpY/HxognYemQT7pTfhNdstlRd4eVlLbPId5LBde3eHCM7jCNHjgjAUHrJOUy2QbZJgkcCiZ2PLDwXDE75LSQ4uWVI2aVLlzBt2jQBPj6XdAqmjwQ9z3FfhqTdvn1bjEVJe4JcApRteVx/HUQyZ7HOV2BJIY75WFSqK5rIzO7QTcw+5UCv2Ufxz+NO4h8/vIZ/GleEf/zwDv5n2kWE7ahBaiGTgCmIK/MgzqUh/mIj+q46jzfWncOxcgVNVJW1WigGx1SWCksISuaVcLSmBCQc798+us/EerDXZqHx4tChQ3jnnXdapAgZl6VTp04tUoUMRolDJqO04fGvf/1r4Unz+uuvY9++fS2GFiExubwFvaFML+qMSuS7r2Fv/hbkHsvEe1tfxasbhuPFjXEYszURL6xJwjPLkzB6cQpGzR+BkbNGYGQWAToaz0wehd9nv4rsDdNx6Op+lDQXwGf4hCRVNS6vYXUwZHAafK5fvy6kOqXVk08+KdpAsLG+Eojcl5oA28PC9vK8LMHglKBhJ8Z3MN6TndKoUaNagM8OgM8PBrg8J7esD1Xq3//+99iyZYuQuvwGfL4E6KP76u37yUKtJVgseyFXB6OaQoBaKpdmaGhUVNz1GVh2wYXBM7/Er8Z9if8+/hb+4aN8/MP4i+i8uRqpxQzK1hFTomLw+Ub0WnEC4/bdwKVqj7AAq0qzUJf9AbVLGELE6mNUqa2VyNg9cF2xQDdx3/bR9qBS/WMPPnXqVKGmkjmlhCEIuU9GksxLpuM5Mq9kZEoLXstCMHz44YfC0GL6TZgKQaOiyajBF479WHpuDj7Y8yre+mQkXtuegJd3xOCFLZF4bn0knluehBeWp+L5xaPwbO5ojM4ZheTsJKRMH46RWSMxKjMVz6SPxDsL/4S8/Tm4WnQFXs0LC5zWmJkW5SVLluDVV18V40XWm/VlkeBjvYPbEQxaCSpew/MEJ933CEgChz9KOY4r33rrLaEm87nBgOe+fKaki6SfPM/ns9OjCjxp0iScOXPmK9KzfUPo0dWuA3t0eocRnFyrk4Z6Lpxras1CguqaAV3R4dVNlCk6Nt7yYtDCK/gfk67jH9KK8d8mXEbYugqkFphIKNQRftSJf1v0Jd45WowrzX6onC7wu8U4U9FM+MRK2V6R2b1lOkAYpCyAthU42VtzfMmQKKp9v/3tb1uYmEwqAcieXgJRMqFkYh5LBuT1EgwEiK/GD9NHyamhsOkWMvaMxytrR+D1PUkYuzsaL+wajBd2DsaYbdEYuyEWLy8fiVeXv4AX857Fszmj8ez8Z5AyKwWJ0xORkJGAlBnJeG7uaLw0+zm8lP0cFqxbgLKassB0iy5iLjds2IhBgweL+rLOBCW3LMHACAYq92Vbg/d5vQQnJaWUauzMCEz+XbaX90ua8ByLpCHrwGtZeI704pbjUHk/x6I0WPGbyE7g0UGg/T5ZpCl5UPVMsXS8ZWmk3ydXHPOZJipNDV+6PHhtyTk88ee9+MW4EwhZU4WkS348tekCBi77DDPP3kW+X4eXK1tzotL6T4wjmU7M6gYerSR8UJu+6RzVKEqB1atXCyYk85DJKCnJQJKpyEhkIkpIOoLzbzzmdcFMx3t5D7fMyeP3kqFJRw35DaX4aPV4JM+Iwpt7nsGrn8bhpT2D8NLuSIzZmoyxa0ZgzKpUvLhiJF5YMgovLByNZ+eOwqgZIzE8IwUpU1MwPD0FI2akYMTMZKRkJOGDxeNwp/6uyD/MDtfrVZA7Lxe9uvdCeBjBQECGiv2IsAh0ibCAyvqx3hK0bJ8EL2M4gwF9v7WWwLl165YYN97/nM5hPdAxtDs6hnVBaHgXofb37d0b3TqHo0dIVzwV0g0RId3QsVMoQp/qhoiuFmj5ToKd1nHZAXzTd/t7/lvr4DRpzOD4hfq/AY2rgpka3KaBKh04Ua1i8uFi9Mg8gNDsU+iXcxQvbj6DNXcqUGRY3j+MFRVLYnOM2WJx5Ww8rYl/G+Aks7KQgX/3u99h6NChePfdd4U1kuFT48aNw7Bhw1pAyut4/dfA6bMswC3gXDkOidMj8eKGJLyyKx4v743Ci7ui8NLmRIylQWhVKl5afg+cz8wdhZEzRiIpIxlJU5ORPC0ZydmJSMiKR/zkWLy/6KOHAmfnTp1FhzJmzBjk5uaKecgRI0aITocqJusvQSo7pocBZ5cuPREa/hQ6d+mCqORYzF++AJt3b8KEyeMxLHIIQkPD0K0rrcKhCA0LR0RA3SbtCE6Z+U+Obf+eQdha274BnE0wTU9geoVTANYEOadc/IYPNaaC26qOdbeq8eb6U1h4tAjnKv2op4Tlmp+aAlOzMuoJ9VWCk6AUy/z9bYCTDCrBFhcXhzVr1oDTEZSyLNynIeP5558X1wVf/xXJ6bMMNezgChoc+GjFBMRNiUTyomF4cWscXtkXjzE7Y/DixgSMXZeCsfeDc94ojJw5EgnpSYifkoT4qQmImx6LyPRhGDpxKN7N+/ChwDl06DDMmDFDGIuozhMMnKtl/iBOp8h2UDNgh0OwPgw4w0K7ICy8C8ZPnYiD5w6h0F2CfHcRrlfdxqb9WzHmjbEIjQhFeFgoIkJDEB4WJjo4aiQff/yxGGIQmDY4HwRdww0I6cken2tnUi3zwNSqAa0OhsnlAnVUwkQJTLEgkVczYfhMsfY811/hgrmcqOE8qjD1BObepDR90Gvb6hyZ4EFqrVTrqLbSc4ZTEryWaheNSNznPB09YJjGQzL11ySnl3l3uCapgqIGByasnIS4tBhEznoaqasiMWZnPMbsiMdLGxPwyrrkFnC+GFBrn5k3CqkzRyIuIwGxU+IRnRaLIdOGYeCUQRgw/mm8m/fBQ4Fz2dJlYlwnVUe2hfucPqKTgJSWbA/ByfIw4Owa1gWJifE4c/00zpacw5wd8/DBsvFYfWwDbjcVYP2nG9Gzb3c8FRGOp0JD0fF3vxMaCKdhzp07J+gq69RWPNHW721VckIsGU+JSWDxw2lgriHTaISpNsLgIriaAgVUdVX4dAUa/65pAB3pdc5pNkKjShzwHqWWa0VnWEzd1o0Pfn9r4JRgI7MyZSQBLK2VZB5ptKC3Tf/+/VsFp8/LhYnpM+tHSZMLaWsykDw5CZFZgxGbOwijNkThpU8SMXZTEl5dl4SXV6ZizPKRIDifXzgaEpzxmUmImRqPoZMi0T9tIPpMHoABkwbj3UUPJznpRicNO7Idkgbvv/9+i7bAToblYcEZFhKKESNTcO7OWSzftwzv5L2Lt3L/hL/mvY8TjtPY9eVu9OjXHd27RCCq/yC8985fhTGOFmbW63EHJnmzVXBaztlWRAQNQhaoOBdowNBVmLoXpuEBlxCkVwqvoRO3bjZBN+thmB6xGC5DnuQ0jVisSMQxWpH0weBo633JmPcbhKRKS8lJMz8Zh9eyUNJIJmLaSHrckInlPcFqrdfLFcTpJeRFaXMZpq3LQuq0VERlR2HIrP5IWj4IL21LwiubhwfAOaIFnM8FgTMhOxnRU+Mx6OOh6P1xf/Se3B8Dpgx9aHAyaFrOJ7Itsh3sfAhOKfllWx4WnN26dEVkzBBcLLyIFZ8txx/m/gG/z3kD7y56H1+WnMDu47vR5+neGDUiFRtXroWjuFRYmPl+2eHJbVvzRlu9v1VwCgcBMa1i+WoSWAQZh4yCMQPTH8KqC1WkuPSZXNbBD0VEUFhhaGLyPWCtZSOp2pFJHzb+8KcgULBaG6zOcZ9jIc5/Mi2kVAUlSClJ169fL9RaMjGvl/cQoDNnzoTi98FQFfg1H6qUKkxZm47U9GcRnRWHful9MWhWb6SuicKYzUkYszYeYyk5l43GC2KecxRGzx2J1FmpiJtuAXPQ5GHoldYfPT7ujf4TB+K9Re8hvy4fXkOBZuhwezzIzclD7559ENo5BJ1DOiYaTVMAABbRSURBVCMkrDNCQjlV0gXbt+8Qvq0EAFV0/ghQ+rsSnHJag/UnQKWFes+ePS3jbdKB1lp6RclOSV77ZOcQjHhuNL68dgoXXJcxa/0MpOWNx+bP18JZX4gb+VfwyfatuH71Gvxezpu2LxvET8Fv3/aObwAn/RsJJK43bUXxCz9cOiyIqH7+jZZcFQSoRgnJaH2h/qqWMUj4jzLan5LGArXlxsblctvfx2gNnGQ4gjM9PV0wZrDEJEDJ4JS4nB8NZlLeQ+bmVIrX7RE+sFRrHe5STFqbhtTpozBkeiT6TuuDftk9Ebt4AJ5fFxeQnCNbwPlc7j1wJs+k5IzFkCmR6D25L3pP7YP+aQPw3uL3kF9fKCzqjPahkWfBnAXo3aMPIsLCERYehoiu4ejSrSvCwyPw2muvicBpekOx/tQI6OWzYsUK4YDBdlB6SsnJtnAuUuYQIq1IB0ac0Hme1/EeXif2u3ZDRI/u+GDqOHxx+SiK6/NRUHEdtc0u+NRG+BW36BQUhaGKli/ttzHr4/b3VsFpzXNaoUkt407oIjhaMQ0opi7CyyyA6oEoCwMmoyMUHaZiAH6KWzp4WwClFGV4sY9zqH8j4KTTAZmO7nmcHKe/LJlZaA8Bp28ek6mD1VoJaIKTTvM+nzVxT0t3qbcEUzdNxvDpyeg/dRD6TOuDnhlPYeCsHkhdNgyvrkvBy6tG4aXlluR8XoJzZioSsxIRNTkaAyYOQu+0Puib0Rf90vri3cXvIr+hUEQTsZP0+/xYMn8J+vS0OoyQsBB0Du+MsIhwdA4NFU4W8fHxwmJLn9v9+/eLkC5G2UhHC9adElO2nzT45JNPRAdFKcty8+ZNxMbGiuvk+JRaQ5eu3fGbJzshpFsYRjw3HHlL5+HGrYtQFbewVahef8vcrxg2tbOptfbQEbQKTkM4IXBsGFyYeOoeQClBhTeR8CiiPy7BGQiFYpALSws4KWm5nhnvp4nob0NyUhJIiUDJSRU2GJwSpAy1YupIXkvmvB+cfj8jSAwxDVXsLsCkDeMRNzkSfdMGoM+0vuiR3h29M7oibsFAjFmdhLESnDQIBcA5cmYqEjLiED0lGoPTBuPpjIEYmNEf/T/ui3cWvI27tXehiGyGBrweL3JnL0DfnpaTe2iXMHSOCEFIeBhCQsPEvKL0zomOjhaOBKy3lJayHdyyEKS01gYn+CId7ty5A86P8j4pNXltxydD0bVLd3Tt1hUdO/0Xuj0VgbfefB2f792HilIXNEWDrjItiiY0LtLR/n2VAt8ATkutFXOUUn01GE7GEDO6/BGYljpCwhLEQt0T6i3E8goUnjQWWdfxLl5/756vVqXtjx6k1lJa0PlgwIABWLp0qVD/yJRsK9tN6cFxKAOw6YxABiWjyjEn96nW+ry0dNNDyIfixgJkfjIN8ZOj0T+tP/ql90PvjF7oPq0rnp7REyMWR+GllSMtyRkA5zNzRmLkjFQkTY9HQnocItOG4unJA9BvYm9ETx6K7E0ZKKkvElM1rBend1YtW42BA6yQrY4hnVrAGRpuWWBZV0pH1pWeOdxSdeWWnQu3EqykAeNYKWE5RiUN2HaOOem7y+fIOVGCuVtENzwV8RTCQulAH4KOnToivEsEhg6LwnvvfIjP9x1CVQWD1BWoOo1slq9u23NB+6nBN4CTgJNgojMBneEtLxdKPQuQ97YM0GYqaCqsnOr0cC5QqL9UkDkdQ2nJmEMiNshC1H5oIdQ1aa0lY5LJyKQEZnZ2tojgJ4Cp2kpwSiYtKysTc528NljakrmFQcijiBQlqqGgUa/Hnhs78OdVf8DgqU9jwLR+6Du9L7qndxPSM3b+03hhxQi8uGK0cN+j5CQ4R81IRWJGDBKmxWLYxMEYOKE/oqcNw9tr/4jDt/ejWW+AT7XWMdF0HVcvX8crL7+Gvv36ISQiFKFdw9CZkjPsnl+rBGQwGHlOFp4n8AYPHoy//OUvoC+tVGlJA3ZMGzZsEE4YBDbbK0rnMHQLDUd4aAi6dA1HeLeueDIiAk+GRiCia08MGxaDjGkZKCy4A4VBEQbNjfYvmAKtgjP4ou+yfz9Yg4+/y/1tfQ3rK62uZDIWzlsytcYXX3wRMF5Y0RgSmA+qM5mX86GMsCCTksmZBkQhOKlKMHMBU8GYTXD5nVh6eAneWvgWoj6OxYC0weib0R+9pvdGQm4knl+agtcXPYvX5z+Hl+aOxvBZyUiYGY8hU4YIr6A3F7yJnSe2o7y6DLrfC5PJwXUNisbYUQN+XUdVcwM27fwESaNSEdo1AmFdItA5LAThXQhSy4LLfXncKaSzkHD0df3dk50QHtEVL7/yOo4fPyHy/5BOsv3yG/O4pKQEeXl5IhJHtlsCnmqudAmUEpZ/Y4mJiRFaBzs8+/dVCtjgDKIHpSJd8aieyvxAjOoPdjoIZs6gW1t2yagulwsHDhzAe++9J5h14cKFYrqALsUEJz2kON3UZFgAPeU6hQWHF2JM7lgM4lhy6kBEzRmMEXlxeCEvGS/mDMeLs0fh2axUjMgcjTcX/xl5B5fgTPFZ1LmroROMhh8efxMU1SeOdWbVU3Wofj+8Ho8IW5s3Zy5Shw9Hzx490KlTR4TSda5LhNiGhHZGeES4MBgRoN179sArr72OFStX49r1G0JNpsRk+7llO1nkPrechqELIKecaGxiB0d1Wai5AXWZnRXByi01jOTkZJGZgWq4/fsqBX40cH71sX+bRwQhA5MZNkYJKNVXMh5LsKTg/oN+cjzGe7l8+2effYaLF2ml1AI5f6wMfGRsZqCo9zegzqhDqa8ER0oOI3P3dIzMGIGBH/dDck6McH5/LicJL2SOwF9z/ohFe5fi6K2TKGuugRIIDldVPxoNN6qNWlSp1WhQ60RAt6p6oCt+6F4fNK8PzY1NOHPyFCZPSsOwocMEaAgeSjoChdKtM7MTJCche+YMnLtwHo3NzVADYJRAlHSQQOVWgpVqPrPsMU0JgwKoQcjIHYJUqsuUmHTVO3bsmHCJ5P3276sUsMEZoAcZjOBkoQTlMcdTwaCUzElG4t9b+/E66azAfcsdjUspiDBWZoMRhQZrqqA+3Q+v4UaT2YC7jbew+/wO/Hnp2xiZOQKpmYl4Lec5zNg0FQcv7kV1Y6XIpqAzNtarw62rqDHqccV3C3vyD2L1l+vxyentuFZ+FQ16DTTTB1VnELbP8uDSVbjKy7B5y2b86U9/ElNETzzxhAAmx8vvvv8e9uz9FLV19J+25q5VeoQFATB4X2oVPCcL6cN2U9XleJT5itgBUI3ldBPfywBtZi3kPXwGr7d/X6WADc4APYIZjsxFyUeGYZHMxn3JgNw+6CeBLQEs77+XHPueKyRtYyKzO10fDbo+KvCbHjQqdbhefgNbvtyKpXsW4dPzO3Cn6jqa1TrLXVJXoegKGgwP7jYUYe+tzzFzxxxMWZeO6RuyMG1VOmZvnI2dZ3ahqLYIjVoDfKZXTOMY9CDS/PB43Lh7Jx8rlq/Em2+8iT//6c/YtnUbSh0OeLxekSRM0ehtxKyBlnWabQqmhWyjPC+PSRvSgcd0hmDKTbo3ZmZmiqkYOtez8+I1wZbvB9HzcT5ngzPw9SU4pSSQztcSjJJJvo2ZJKNKkN4DZ2DNE+FdJZ0YmNGewLSM2HSjYlZCJpz2KQrcPi/cvmb4VLdQUxXTB033wW96UavX4nz5RSz+fAnGrxiP3C3zcejiARTW5+NM/mms2LUK6YszkbsxF8cuH0GNtxKqSS8lH0zVC7/XJ9Rsd7MH5a4KVFVUi3GxymkijiuFvzQVbzqbqEJaS1pIELJtwR2WPC9pyb+RXixU9wlUbuV5CWBJU0lje2tRwAbnT8UJFLQBF0bBvARlwHe55ZjnAoUOC5ykZ15azWfA63PDazahVq/E7aYb2HRmPT5a9iGmrcrArpN7UdtQBVXxwOdrgt/woF6rxYGLh5CzPgdpCyZh3b5VuFpyHk1qFVS9EQotu1QpNStdp1QtpaS05rctxxGROrUdOo38VJ+urd5jg/OnonzLnLE1dyx9lsVWglLMBFtOHqrOaRsrOTPz0Daq9SisuY1d57Zg1pYMZK6fjHVHVuFi8UXUuOvg9fst32YGHxg+eE0P6vV63K3Jx67TuzF74zxkrZ2BDV9sweWK66j21Ao/3GbFjfrmergqXHD73FADaqwNzp+KMVp/jw3O1mnz4/7lK26QlFYq6CLZAk5r6WDhqkFHDs1kcjQfPDolpgenbp/Akl15mLJqPHL3zMHxgsOo8pVD4fjTY4gFjxiep+ia8Ljx6R40+etQp1ajQi3HlcprWHN0I8Yvn4aMLXNx4Nxh1KuNqHRX4/zNi9h/9DPcKLgBt1ChucgSx9eW5KRq2x7dLX/cD9T+nmaD86f6JveDk8AMBmdAeoo0pWJfE7GfHtONGr0aC7bmYsrSydh1cReK3IVoMhsFcP0iv7ABv8a5UxN+g9ZfGnQoBRvgNergNuvgMRtRpVbiZOEpzN2yAJlLZuBOVT4cjU6cuXEWe4/tx/mbF9Dga4Aq1m2hhdYCqBhr/lR0st/TQgEbnC2keMQ7YvpFukNa62lSGskxpgBAUFA7vYm4WK7X9MHpKcOUJRlYsW8NSptccBteAUCf4cW1oms4W3ABNd5a1Cq1uOa8gc/Of4adxz/BzuPbsPfcLpwt4LyoA26zAc16HU5dPYYp89Nwq/omnG4nzt05h8NnDuN60XU0+huEgwQluwVOa4rkEVPHfvwDKGCD8wFEeSSnAilC5bMD9qF7RqEAMIXfMX2PPZYxiAtKlftrMGVxFlbu24gGXzMUOotrPtR4KjBv8yws2D8Phd4CHL11FJnrZ+CjJRMwdUMGpm5Ix7tLP8SE5ZOw59xeVHjK4TOacP7KCUydPxl3am+j1qhBpa8CpXUlaFIa4TU8oFW4BZwiFvfB00ayLfb20VDABuejoev3fqqQoJwnbElJqqBarcHkRdOx4bPtqPbR+0eFx/Sh3KxC9tZsLNw9B2caT2HOnrnIWpONE7dOorTRgdKmElxwncOSPQuRtWYabtZdQb1Zi/M3z2Hqwim4U3ULXpPpUzTLMYJTOiImgZZkBitYqreVgd8G6Pf+qN/zRhuc35Nwj+o2CU7mCeacJ6N9qtUqTFo8DesPbEW1rxaaSAejoNKsRvY2C5ynHScxZ/McZK3NxImS4yjyFaJUL4bLLMF512nsPrkdBbW34TGbcObGKUzOTcPt6lvwMEMiwSkk94PASYdgutbZ4HxU37y159rgbI0ybXRegpNxs/ROoMW2QivHxCVpWPP5JgFOWngpPauMGszcNgO5e2ajoCYf249sw/iFH2Ly2omYtTsTS47kYvPpjTh84yBuuK6iSa1Hs9mIU7dPYnLepBZw0gPIeq/VaDEWFp6/lJxyHZs2Ishj/FobnO3s40twGhx36qZYJtBlODFu6USsOrQONd4a4U7EeM1qvQ4zt87A/D2zUOZ1oaixEDsvbMesndmYsmEiJq4chw9y3sPEnPFYumkRrhVeEVbeE3ePI23Rx7hdfQNchFAXWS8CvrFCRlrxt5Zaa/u8thWL2OBsK8q38t4WcArvIAN+sxkOsxgfrvgIK46stsDJpQQ1AzV6PWZszca8T2fgVPmXOJJ/EFdrL6NMc8Hpd+Bu412cLz2PT77chkk5E7F27ypUm5U4fudLTFo4ETdrCM5GKzOUyGwhwuiFK4QFTMt9r5Wq2qcfMQVscD5iAj/s4yU4uVygqejwm41woAgfrPwAK46uQo2nWkhUgrNWaxDgnPtpNvY6dmLCuo+w/ug6VCs1aNSb0aA3oc6sx2XXJUxbPhl5u+ajyizHiTvH8XHeRNyovn4PnIGs/JZToTQG2eB82O/3Y15vg/PHpOaP+CyRKI0O8MyYoJXg49WTsPToMtR6q4VbH6dTqry1yFybhfmfzsZp1wms+HQZshdNx+a9G3H08uc4cGU3dlzbgkWHFmDi8vE4dPNz1JsNOH/jIqbkTsHNihvCWsvAb7oLcpwrPYPEAlb0DArK+cSOw/79dBSwwfnT0fqh3kSHd2iaiCRxeIsxfukELD+yAuWeMjEP6daaUa5UYeaW2Zi9IxsujxM3HTex8+gOLNm+GHO2zEL21umYtSMLyw8twYFr++HwOFBvNOD4tRNIm5+Ga85r8DEzv8ncsZSSNjgf6iM94ottcD5iAn/fxwtjLTPcGV6UNzuQuTob2Rtm4GzBadSqVag365DvK0TmpizkfjoXNU3V8Ote1Co1KGwuwNXaq7hQdRF3G+/A6XWgVqsTWRKuV93A+i/XYfrSTAFmSk3h3ytCxBi+Jl32rIRstuT8vl/wh99ng/OH0/CRPIEO7AZjK3VrycXPzh7AjNWzMH1FBrad2IyLVedxuuYspqybhgU75qGuuRJ+3Q0PXfREaRKuf82qG37DD1e9C5+dP4BZW2fg/VV/xebDW1Apsircm+Pkeqo2OB/J5/xeD7XB+b3I9uhvEsmhCVCRjFpDra8eF4suYfWBlcjaMB0TVo3DR2vGY+KKSThwcT+8apOIZFF0H5h+k87rbt2DyuZKnL55Gst3LUPGqnQs2DUf+6/vFw7vfIeu6VZuIwJTZAa0Jeej/7rf7Q02OL8bnX7yq7xiMSgNtNr6PQqaFDcatEaU+IpwqOAzrD69AktPLMOua5+ipKlEhHrpXCJDs8LHmg03LpddwcZjGzBx6Thkbk3HjsvbUeIuQT0DskVImgZNpeteIKibGftbIlFstfYn/+j3vdAG530EaTeHwjEnkG+IVlQR76nBBx/cZjPqlDo0GA1wuJ349OQ+bD6xBSdKT6LYX4xb9bew5+ynmLlyJrKWZGLboW0oqCqyolkMBX6DcZq25bXdfOtWKmKDsxXCtPnpB4CTbnYME+OSxX7TB7fhRkmdA/tOfIbM1ZmYvXkOVuxbgXkbc5C+OB3r96/Ddcc1uBpdaNab4RfLSHG1Gjt0us2/73eogA3O70CkNrlEJP26F0tJOBGceiCNiF/3wWf4hLGn3tcoHA3WHVyP6cumY+knS3Dy1imUuV1gsDYzKTB1CR3mxRo335Las03aa7/0axSwwfk1krSPE0ybKb2FWCPuM6eQleGO66CqIkkXQUfjT6PZgGqtCs4mJyo8lfCYHjQxxYnuEUvdW84FVr5dI5Dis3201K5FaxSwwdkaZdr4PIeEDwKnrnN1r0CWAi4dZTCxlx9ezQ237gYTdnkULzyqV+QTopGI85iUmGLFt4DUtL192vgDf4fX2+D8DkRqi0seBE5pSdU0BTpXfOP6bYF8P5b7nQZGq2iaLlaLZmQLF6Zl+Uo6lEB29rZol/3O704BG5zfnVZteqWUogRoy3oOwfvMTC3TyreyFQHVQcsmtGmD7Jd/KwVscH4ridrHBS3gFCAU6ziIYGyRLv4bgGnqBmSR2ehlZvb20TK7Fq1RwAZna5Rph+clQK1EP2JQGsgrwqwJLIGMIkFbIS0J0MA6JwKggUiTdthEu0pBFLDBGUSM9rTbmsGGrgMPLEHq6lf8C4J8De6/rz21167L1ylgg/PrNGkXZ1qk5H21uR9gLcdByz18Hb7WQ1qutdN13UfV9nlog7N9fpeWaZT7JWgrtp6WIOmv67aE5Nfhap1tp423qyUoYIPTZgSbAu2UAjY42+mHsatlU8AGp80DNgXaKQVscLbTD2NXy6aADU6bB2wKtFMK2OBspx/GrpZNARucNg/YFGinFLDB2U4/jF0tmwI2OG0esCnQTilgg7Odfhi7WjYFbHDaPGBToJ1S4P8DKMVpWtgYCTwAAAAASUVORK5CYII=;" vertex="1" parent="1">
          <mxGeometry x="370" y="730" width="231" height="94" as="geometry" />
        </mxCell>
        <mxCell id="hJJdkhpLcyISavDwx0z2-31" value="" style="shape=image;verticalLabelPosition=bottom;labelBackgroundColor=#ffffff;verticalAlign=top;aspect=fixed;imageAspect=0;image=data:image/png,iVBORw0KGgoAAAANSUhEUgAAAPIAAABsCAYAAABQBO+XAAAgAElEQVR4Ae2dCXxW1Zn/3wTQajsz7Uxn6cz8p9u0tdPqaKedurBkXwn7KkWtdam4VHGp+4qCypaQAAFBBYyQhE1URBZFBWQnrIEEQvJm35N3u+/dvv/Pc25eiEuRWGSC3PA5vHc5995zn3N+93nOc57Fw1/5Z9P5H9icLH/lrd3LXQq4FDhNCnhOs95frGZh07m4QP6LpHJPuBT4yijgAvkrI617Y5cCZ48CHt0MgOnHtgIYdhBbD2DaGpoVJqSHMU0L27IxbD+6qaNZ0BwyqPBplPrCHPNreIM6jbpFm2XhD2sYehjb1LCtEJYVwDYD2EYIS9cxbVsdt20fmh1CE9HcssDwY1oaGha6Es+FtxsdgvrZI4j7JJcC5yIFPLqtYxsGVljHsiwMwyasG5imjm2FMUwNn6VRY1msr2gja9Nxbl28nfQZa0mZ9h5JWRu5/tVdPPl2Cfn7azjQEqRBC2GaGpYCsoZlh9EsA79potsmthXENn1o8mEATMtQYBcghzuA7My0XSCfi4PKbfPZp4BHx0Y3bHTdImgaGLqFHTYw/T6skIbPtigOmzz34SGSc9/lp1nruLyghL5rGum9ooErZlbym2nHuPLp7fR74i0eLNjCtmY/DZZFm20RtAwCepCAEcRva7SbGoYVADuEYdsELBtNPiZmCNPWCWNj2mDb8p8L5LM/JNwnnosU8IQsnYBh4ANqbZOgIWK1hd+wqNVM3qn0c++ag/z4+SVcsWQnSfuCDK62GeG1GFLkZ3RBmOsWhfndvHZSnz9A7NNrueGlTSwua2Nzm065btFq2gRNC902aLJtgpaOGQ5iybYtQDaw7TAmBvJhEfEby8IWgCs9+LlIWrfNLgXOHgU8YVMjBOxvDbOyspVVx5qYv6+GpzYe5frCInrP28Il87YQv72OgaVhBnkNBlcEGVseYuTuJq6dV8uYWbWMndPC2IUBBs2r4arntvPbSesZ8tJOHnyrjLnbG3jjUCvvFrewqbqdet0mbIYxLZOwArKJbRuYmArIAnAsOeYC+ewNBfdJ5zIFPKYVplmH7HWHSJv+Nv1yNvPbuTv4xct7uWRJCf+7sZmEI2GSyzSG1NoMqzIZWhrguhKbkTssBrzczIhX2hk2v420ec2kvtpG+ms+El5q4cqsY1z67FZ+PfEj4qZuJmbieu6c+y7bK9sJ2wZhI0TYFk5tY9sCY1F02YpT25aBZemOiH0uU9htu0uBs0ABj4i09QY8vGo3Ca/tZth+k4wjJqnlJmmVJgOqDAZV6wyrshhaZjCywmZImc7wcov0vQGS81rJeLmVYS+1M3Kuj9G57fxudhvXzfIzenYzw+c1M3BeIxkvVZGYc4iBL67jw4ogmqUpLXUQCGFjIBxZVqTlz3I11qfZ+aJLiBS5RLZFaal0DKd5D7fauU8Bj2im62x46N0DJC47zNBKGFRtO/PgKpNrvWFGe0OM8toMO2YywmszoDzEMK9ORlErKYvqGDi/geFzGxgxt4GRc+oYnVvL73LrGJVbxfB5NQyeV6dE7tSZR0if/B7ve0MKyJYsN9ko8VqA7NiICVFNBeST++c+ob+qNxDQdgauC+SvitLd+74e29KptuH+DSXEvFVB/3roXydAthhZEWb08RAjyoMMqdHI8GoMrDFJ8wYZXmEwZJePtAXlDJpXwbA51QydU8vQOXUMy61jRG4jQ3JrGKJA3MigeQ2kzj5G8pQPWOcNE7JCahlKNNRSLAXkCLEE1M782OHQkePu76cpYKt1/g4OLIp+y1mXdznypyn19d73yDy00oJ71h/hqrcqSauyVMmoNBlcYSrlVnqNQVJzKwl17aQ0hEmp0hhxHEZs10lbcJSBL5UxOLeKQbMbGJDbwsDZ7WTM1kif5aP/XB/pc9vpP6+ZpNxyEqZu5l2vgWYFwfQpbmLZESNPIbZs61iEMeW4i+RTjsAIYCOcuDN3PuWF7smvFQU8oi2uNOHudYe58i0vQ7wmA2VuXO2UjFqL1Eab5KYgSTVB+teapHsFyDZDdmokveIlfU4lA2bXkTG7gbTcZtJzm0nL9ZEyu5nUObItxxpIzCkjbup23q200GQt2WxTCi1DjETUvFhoK0B2zEIcYftrRe8z/jLynZMpiGlZ6IauivNhdL+AZ5zY3fiGHlniqTJh/PrDXLO6klFVOkOrwwys0RhQE2JAjU7/Ol2J2oPLLIZ7bQYf1xheodO/qJW4+Q2k5DaQPruetNk1pMzxkjqnjPSXyknNPUr6nHLSZlWSMbOGpMxS4qbu5N1Km7ACcquyABMNtlovVqNSQB1SC1FiMOJy5FOPHtEmyLp72DQIaCECYY2wLN256++nJtzX7KzHMqHJtnjw3d30e7OEoZUmQ6pMpakeWK2jSk2YQbUGgysthlQ4Zfhxm/RdQXrPryZxVi3pM2pJm1FH/Owa+s6tpu/cGhJzKhmYVcWAzFrSc2qJzTpGwpStrK20CBHApk1prsWEU2yzxVTTUNxYzgXVuvL5xldsW3QHYWeu22HhJrboYq9uGe1YdgDb1jANHcMCzbRp0oIc8pXz2q432OjdQaPVjiZGN7qBJSWiEDPCMon+mg1h93WEAgrIjdg8uL6ImHeOM7jKYmCVpUTrjBoDp+ikVYcYVG0xpNJmsNdmeAWk7dK4Zl4N8TnVpGXWkpJVS9zMGvrkVtMnt47EnBoysutIy6oncUYdfaYfI37yVsWRg2rRSRwlZNCGsQ0x3dQx7DCWOG+gdVqOOn86y7bE2eQkkIXbGliYyp0kjCH26+KQYkPItmmwQhzW65myczFpOeOY8vFrlBl1yixWFF/ijyKWemJ4486fv77jyGOYNg3YPLB+P31XV6hlp0E1FgNqLTJqTTJqDVXS64IMqbeUiD2o0mBkFfTfE+KqORXEZHlJnlZJ4rRKYrIq6ZPtpU92HXGZ1aRMryFhWg0xWTX0mV5G/OSPWVsJQeHCtnhHmWDpYAhHFiDrWMKVzlsgC13EEMZShjFie+5Qw0B0CUIvsYUPGzotdpjdZgXP7l7Ibxbcwj9PG0DKa+NZUfEBLWY7mhkirBxVhJqO6WtEOfb1HdLn55t5DMumToC87iB9V1UzpDzMoIowA7xhBlRK0VRJr2hnYHmIQWUhBleEGFlhkbqjjSvnlREzs5ykGV4SZ1QSm1NJv5kV9M0R8HqJy/TSN1OO1RCTXU7ii5uVaB1Ug9XAtETaM5BlMKvDuks01mKoYiit9fklXCugKttzA0us38SxRD5rymQVbN3ENnTa7QBF4TIePfASV7x2PX/36kC+mTeEv5mczHUrn2Rb80EabLGgEyWYuKGCaTrGI+fnUP96v7VHwNIIPPDOIXoXVjHmKFx7FEaVwUgpx53t0cdtrj3mnBtZZjP6mM2gnSF++cohfjX7EFfmHOa3OSX8ZmYJv551hF/NOsoV2Yf4Vc5hrphZ6uxn7iX5xQ2s94YJKDtqcWsU/wjxeRaFl4iQ8r9wJOHOYm99fgFZvX+HE4nQQBcPMlFmyfqwDUbYwGf62aOV8syB+fxs6Si+vTiNC/JTiF6cSo+Z8fzL1HRufft53qzeRoPlJxQ2sEwbwzQRjbb79/WjgAKyiNb3rtjL/756jJi36+i7uo7e79RxTaSsqSVmXaNz/O0arlrjJea9OhLXt9BvYwuJ61tJX+MjfU2A1HcDpK4NkLw2RPKadlLXB0l5TyPp3QAxBV7SJr/Le94giiMjThM4nPcERxZba/GG0tXc8HzTvjqfM8cbDPEIs0xCpsxzIaRbhEyTaquRWUeX8tv86+m1JJYey+LpURBP1GsJeObF0yMznn+YkMLNb77IrpZjipuL5KWJaH6efRi/fpD9/Dfy6EYQsXee+t5RLp++i//KOsBls49zyYyjXJp9jF/MKOEnmaX8IrOUn2cX8/OcQ1w2q5SfZe8nbnUTo0ttRIM9rNxm1HGbMcdQZXBpmGurbQaVGQwuM7i+wiJ9XTXDZ71NUaOFZZqYtolfzD9kmqxEbWfZRHiwYyJy/i2jOECW+YYJpoFtmNhi+qZDQLeotoO80bSD2BW3cfGiWKJW9cXzRm96LO1Dj0V98cyNJSo3mR7TUvjXqUO5b8MsDgfrCJphbPE1F1W3dVLKOd8kns+Hwbl/1GOJOyFQsL+Ja6Z9zBVTi7k8s5zLpnn55fNH+XVmJZdPr+byF6u4dEoFl047zhWZFfxy6hGSVrYytEy03DYZ1TYDq21Hqy2a7Rqb/hUGGZUWA8oNRpXqxL5RzINvbudoULwUnTmxzP90NbbEJPOkWeb5DGRnTd0EQ0d95XRbgbnRCvOBv5Sb3nuBf56fRs/CGKJW9CZ6+TX0KOhD9EIBcj+iZidywZwMLpyayv/MuZnMohV4jWbMsESDOSlaC4hdIJ/7IJY38Fjy1TctdtZpjJyzhf+dcphLJ5Zy6UQvl06o4IrnqrhiUh2XP9fIZRNruOyFSq6YXMUvXygleVkbQ8QLqtYmpd4mtc4mrdYirdZkQLNNvDdARoNNuldneHGA3q9vIa+4igZZCtGDSnwO2o7YqNaSPwNkgfNJ7vH1IPmp38J5YwdgtilgthBFgm7pHDHrmXgkn/9cOJKei2KIXhVL9LKr6VF4DT3y++JZ2A9Pbj+icuKIzk3Gk5PANyYnk5B3P6u82wiEJTabPMH5c4F86r44l856rLABoQA1ms1zaw9x6TM7+O8XSvjlC5VcNqmaXzxTyS8m1PCLZ2v52UQvP510nP96sZyfvFhM7IoWZao5oNoBcXqdRUadqcw40+pN0hp00mpDXNtgk/FhOYPyN7GzVUL+mBhau/JBlrVQKUpT3RnIckw4xolhdy6R9cu3VTT3jvbeeX9RBMo8ucVuY0NgD/3X/pm/zUum14oEolb0pVeBgLg30UtiiVoY5wA5Ow5Pdgyel5LwzEzkezOGcP/6WZS0eZUV+4kJS8TgxA1x+OU7rJtc6bFCOmgB/JbJuuo2fjVpCz+bsIOfTjzCjyeU8LOJ5fxkopefPFvJjyYe44eTjvCfLx7l+5P3c/XKZkYdtRkqro01ThGrsKFVpjIqGVqvM7Dcx9jjGkmvb2bSx6VU6qLgMrBC7dims7wSlH21Wiqrpg7HkGmcAvJ5ppwR23fLMlSwBYkmqqlwSAYldhUTixfw4/xhXFAYR49lMfRa0o+e+X2JLoghqiAJz6IkPLkJ9JgRT3R2nBKxPblJXJyZytVzb2VByTqarZACsyKrsGYBswvkbgLHL98MjxHQIBwkYIYoNm3Grffzs2c+5MfP7eUHEw7wnxNL+cGEUn40oZwfPFfKf0w8zA9fKOH/vXiQK1e0cG0pDKuAgdVSbIZ5LUZUGIyusRl8zMf1NWGS1pYw8OWNrKvz02RYynrL1nxK+SLRQWQp6vOBLI7yX/7lzskrTV2Zqmq2RQDwYSnDj832ITJW3c3fLUogekUs0Uv7cvGSeHotiSG6MI6owjQ8eWl4cpPpNUPAnIBnRiye2Qn0yEriH55LY9zGHCrCzUp7rebGHRz5fJR8zsmxcYpGe5QGU4wFlAWRxWYNRs1dz8+f/pB/m3CQf59whP98tpSfPHGM7z9zhO89e4h/m3SUf510kGuWNzKs0iZDfJSrTQaWG4yuNhla3crA6nZGeHUGbm7kmhlryd1SSrsobc47ZJ6C+p9zSpZ5TcsmJCK1YWOGAlTaDbxYXcgPVo7iG3l9iSrsi2dZnFp6il4WQ9QyAXM8ntfi8cyJIWpWIp7seKJz0oiakUrPnBQunJ7AJQtvYGX9NhptH7qYeZqO6aYYxIoKTPk2i3+zlE+oHj+noe6hbkUBT0SuEiBLcPhaoLC4nrTM9/nphM38v+eK+Zenj/Ojx8r44ZPFfP/J/fzgmUP863N7+c3yRoaWwyDxkKryM7zWYGStrfYlttfAnU0kvfYxT2w4wkGfgWaefwYeXe1tAbIla77i6CArUOEQh40Kxm2fyj8sGcBF+Q5wvwjIUTmJXDCrP9EzUonOTiZ6aizfzR7Ic5sXUmO3EbY0LMNUKwYSWzwCZKsjUIFA+eQaQlffwq1/tingADnizm9baEaIKs1i7jYvV096m+89uZXvPlfLvzxWw789fpzvP1rMjx7bx/cm7OCK5Q0MKBMgGwysa2NgTTvp5Rr9vTYjj0Cf17Zx31s72dESptWW9WI3ltQXdbA4OQiYdMtU5qu6HeKj9r0krryLCxYlcKEsOS3vi2d5HD1FwfWXOHJWHBdkpxGdlUp0TjI9shK4eHoKQ155gANmFSFbU4kJxERWrOsikUXE8kuKfNgdpdj5Nrf5oh7qnudP5H6S7lJzJV1DMy1KAxbPrS/mV89/xHefLOZbjzfwncfr+OeHy/n3R/bzT099zBVLa0gtsxlcbzGoKUhqVRtDaywyDmr0WbyX0Us2s6G2VQWqbzN8TpYJd1ycciQoc1UFZAvdtGm3/Sz0ruHSvDFEL45Thh9Ry3qfBPLSvyBaT4+ll4jVM9LwzEgiOjuRCzJTuOSFURRUbaZV3CH1Dq7fER5I+l8MUkRjIaa756Oy8ZSd041PngCytFHmr2HdxDRN/HqYcs1mwvoyfjvxI/7xkWL+4bEKvvNIOd957BDfeepjfpVfyyCvzSCJJlIVZliNzZCiJmLytnHT4o2sOt5CnWkQsnwqr5TuitZfOBTUur5E+7AsAqZJpdnEo7vn8h+LhhC9IonoZdfgWdGbqOVx9Mr/yxw5OieRntkdQM7qmDNnJvP3k/pz9/ocKq1WTOWAYSsJQLk8itTUMcUSG++IQuwLG+1W+D+nwEkgOyxZGejruohd7bT7myn2G0z+oIL/engj//7wXr7zaCnfeuIQ33pqO1fk1zNUQuN6bYZW2PQ/GObyuR9w45KdbG3xU22KwX+owxk+5JgbusquU3a6WLyJ0YZo89tMg8N6DX/4YBLfXZiBZ1WysuLyrOxD1IpYLlga/xdF6+hZSXimJxGdlUJUTjI9Z6dwYU46F0/pT+LL4ykxGlSOL1sUao6NrOLAjtukKMFcIJ+yo7rZyZNA7miYeNoEbbNDqymO7DatlsWsbVUkTtnA9x75gG8+uY+eD3/Mr16rV/bVw0oMUjc3cVnWe9xeuJ1drZJlUTybJKKjo0lxvvjinujK1qccAypMj4Vh6oStEFsCJSS+eT8XLUknenksnpVX41kpZpmx9CyII1pE68J+ROfHEb0o3rG1nplIdHYK0dmi6EolSkqOUy7KyeC/Z/2e1d4dBCSIgawkGI4JqKzdS3hiyTwizizKJNvtrlN2V3c5+Rkgi7ZUwBwS32DlAysaVJ0G22Lh7krGvFbEjyZu4qKHNnLFokYG7dK4snA/iQu38MR7JexoNvDJtaqI2ObY/wuXcRwj3JFxys6XqB6SBcvUVcjgD/yH6PvmeAXkHsti8axwgBy1LFZ5PHUVyBfOzOCS7DEsL99CmworJP1zEsgCYAGyci+VrnK765Td1V1OfgbIYtMbwHK8kpQSRBzZg5haA01GiA11Ie54s5ifP7OGn76wjV9mbmJEwW7mH2rgaMgkINpWQ8wvZT3SxjJQRdn4Kh9kd2ScsvMVkCWtbVhNS9b69vLrlbdz0eJ05SShgLziGqKWxtGjIKHLHLnnrDT+Y/pQFh3dQKMdVBkxlcbaEJNQB8BhSQ8Q4cinbKx7srtQ4DNAVuaBKvSdrURjhUJJVG63ErbbqbdN9uqQu7ue383ZyL3Li3inOkSNJGMTVYkt+ZDFIULE6g576Q4vG8nv5IrWp+56oY+kl7UsAXKQt9p28YvlN3Px4jR6iSmmKLuW9yFK5scFiUQvje2SaN1rdir/9EJ/5hx+i5qOCCJOlBYnLp94TAqI3YS2p+6n7nb2M0BGRZGQ0DBivC8O7s6vJETXrbCykxauW2fYHGwOUR6waLFMlQJGAsNJYnQJoidLFypwXMeapLIVcoH8hf2vDDFEcrEkOXyQN1u287PCG/jm4jQuVMYgV+NZ3hvPsgRlX91VIF80O5V/nJhEzoHlVNgt+FUUEhGtHSA7Nu6u/fUXdlQ3q/AZINuaiNIGphHCMoIqgLwEbvNZtoofpea6egjTDBGS5OS6WAgJB5boj7oEhsI2JUyPU1+iUkiRObPixq6y65RDQIwwwiowoaPseqt5Gz8tuI5vvZ7GN/JjiF56NZ5lffAUJuApSCaqixz5m7NS+adnE5ixbynHrWY1T5Y42Cd0Gcr+2p0an7KTuuHJzwC5G7bxvGqSBHmQYPPyUZQg/quaN3PJ0rFcWJjCxYtjuDjvKiVie5Yn41maQvSSeKJlrlyQSFReEp6X4oiaGY8nJ0Vpq0V73UNMNLOT1TKU56VU/mlKOq/sXYFfb1HPMXQxAXH8ziL6LTU16pgSnVcdcI6+rAvkbtZxAiQxz5TILZoZYF37Ln7z5q1cUJjKhfmxXLj4aqIL++FZlohnaTLRsgRVEE90vgA5Ec9cB8jROZHlpxR65HSAOEeAnsq/Zw4g78hqAla7CnqoSxB7F8jdbCR0rTkukLtGr7NSW+kXLB3NDLIpcJD41fdwUb4ou2TJ6ZoO76d4PEsT8BSKsiv2U+vI8fTMEa8niaqZQvTMFDwzk/DMSiJqdhI/zhnOioqNhMRM07LR9Uj0UieMg+LKJxSU7irDWen0v/IhLpD/SgKe6cvVkp1wR9tUHkq7Q6WMWvcEf/t6Bj0lUqbMj5f1JkqcJ5bG4lEGITEdQI5TboyeHAFyCj1npiggC4AjJWp6PP8z53o21O8gZAmQxW3ScWNVCsmOpWNXtD7TPfvV3s8F8ldL3y7fXYLjCaAkpaxp6pQZNTy+ew7fyxvKBSI+rxCxujdREmxvqfgl98OztB898mOJllA/c2IQIEfnJDlz4pnJJ0E8K4mLJyeTmjeePcGjBA2J4eXYV4uSzQVyl7ur21zgArnbdEVHQ0xLgVi5MYbFoq6Vl71v8ePFo/jGkiSiVgqQryG6wAmB6xGXxqViohlD9MLYE0D2yHxYysxEPBJoYFYSPWYl8d2pA7jujWc4ZtcRCvuVw4REI1HeTh0R0lzRursNii9ujwvkL6bR2a0hroSGzFlBNwzaCFAUKmHw6of420UD8KxMIXp5Py5YfCU9ll2FZ4Vw5Rh6FMbRc2EcUbkxSmsdLaF+clLw5KThyU7AMzOBizJT+OmE4Sxv2Emt3U5Icm115ISSYAaOgK13uDFGfJTdqC5ndwB8uae5QP5ydPsKrzI7kpXLkrxFEI1yo5Znil7mp3nXEr04iV4rE+j1+lX0Ui6NwqFj6FEgQI7vAHICF+Qk48lKomdOfy7MSSM6M57vTE1n2KLH2Kodp9UOKv9wAbI4xnwayCeDDbhA/go7+4zd2gXyGSPlmbqRgWGEFbAkWkjYNlXCtvXN20lbMZ4LX02h18pkovP7OBrs5f0QBwpRhCkgz44lamaCUnRFz84gOiudb2b356LpKXx/yhAmf1xARQc3dgIJdIpWKpZ8OBxZnCeUDbbKOeVqrs9U735V93GB/FVR9kveV8LhisOEgEiF4emYM1fb9TyydQ7/mjcCz5J4PMtiiepQdokDxQX5ESDHEZUjETST6DF/KNFZGfxN5gAunpRE7Kt3sqF2H+0SV1yCCqhnRILhi5eEk3NKzEOUG6NymnE58pfsyrN6mQvks0ruL36Y5Ii2lUGIk0pHE6+ksKWsvFY3bqP/B49z8eJ05TTRc1mcWoKKVkBOoNeCRKJmC5ATiZqRjGdmBhdmD+bbkwfw/anDeHznq5QZzSqzo9xTlrr0jlxQsq1yTdlhNUeO+CNHlqG+uOVujf9LCrhA/r+k/uc8W/yQxZ9Q0qBKcPqQbActLL+PMquOR4+/xvdXXssF+Qn0UoEFYpWi68IlCVywIBHP7Dilrf7GzP54pqXwzemD+ftn00nOv5+VLTtptDXCYQNbc3yQJbSTPE+CCyDRSewwkg1MAgyI/ssF8ud0Ujc85AK5m3WKgKcj+SLiFyzpn8QzSTz9Q3qQYq2Ce7fk8N25GVy4dAB/uziWHvl9uKgwnm8viCMq+2p6ZfflW9OT+OasgURPTuXnuTeTW7yaGqMBU3m0dYjTnay3BLDu37lLARfI3azvVFzrDn9gAbLKVClZVnUb09BotFtZ276LMR9O4J9fGcS381PwFMRwcUEi3y8cwsW5cfTMjuPbswbQa1ISP54xlkc+XsDeUAV+268sxiJc9tO/3YwUbnO6QAEXyF0g1lmp2qFgEksrlWi2w9HfkrhaKrKmjyq7nsKmDxj25iN8O28AnsJU/qZwAJetuZl/XDiEnhL6dnIy/zgxgzveyWS37xg+049maG5gh7PSiWf/IS6Qzz7NT/1EkaMFzLK+q3yTVY5zZSAiS1EhK0Sr3ozXqmd5zUdc9c49fHvJSL67cDjJHzzGJa//gW+8mMq/vTiUMasm8l7TfgJ2CEMLETbkjq4IfeoOODfPukDuZv0my08RFwbFlSWOlhKxbdoNTUUnNYyQcnGss9pYVP8h122cQu95t/HnbS/xuzefo2/OOB5cPZt3a/dST4iQFlJ5lg0VANEFcjfr8jPSHBfIZ4SMZ+4mlhKohXOK84TYXTvxsyShm9hEB2VpyjCxNYniEqbebmFj+wEmvf8Kr+5+g+xN+Szcs4ZjvhqarSBBJOGAuDdJIERZJ5b4xO7f140CLpC7WY+qlDGKKwvonDVlMdwQE0pRLJ8oKoStha2FCVlhipsqWbntPd7eupHy5lpMXYDuhFly4n9IojZHZO9mr+w25wxQwAXyGSDimbyFmE1KEjWVQk2WiiSYlmU55pIdy0VOHWetWXFm06DG38KGXVvYuGML9e3Nimsb5kkgq2tcIJ/JrupW93KB3K26w+GaDueUgP4SsNBZSFZxwjsB2QluCJZuKeus5mCAj3btYMvOnbQEA0qcFldICXwogXxOfF7DXC0AABFdSURBVCDc9eJu1uNnpjkukM8MHc/YXSTJuIjRjlGI/AqYRcyW4gBbOLbMoiWvsdiKhGybFi3E9qIidhQV0W7oSBI2SdsTkjmyCNUinkfyOZ2x1ro36i4UcIHcXXoi0o6OXExiMRlWIYUlh1YYS4XIlbQd4uwgSjBbWX6FbEul9wloGiVHSjh8+Ah+y3COYao8XhJtxAVyhMBfz18XyN2tXzVLWXGJL4Nw2qBtoNnCWyUBnsQNN1SQLQGmgD1kGiqGuCjJWqrrqfdWqUyKcp0fQ11/Esiusqu7dfeZao8L5DNFyTN0n0+bTXbePxOPkFXkzkVm5U6R9WtnDfvksZNOE53b8UXbZ6Kd7j26RgEXyF2j11de+1QgORMP7wxixzRE/hcwy2xbSgTYHWc/5VhxqvZFzp2Jdrr36BoFXCB3jV7nfO3OQD75MiJyi648UhxDTlXXBfJJMnXjLRfI3bhzvpqmOZw2cu/OwP7stjunjtCpu/+6QO7uPXTG2yeiswPmzwL3k/NnB8ZO3TPeDPeGZ5QCLpDPKDnPhZudnAO7QD4X+uv02ugC+fTodKJWRKHz6V9TQnkIrxMTSzGp7DS3lHOyL39yLnI+sh35lXqRunJM1/UT+53vF7nXp49F9iP3j+x/8jdiXOJYe+mR9LemxAWzCZuSqsZ00uJakg4XQpqOadloYUNZkemGiSFBATuOya8hThmSE7vjXSPPjLybenn3v6+MAi6Qu0haGaCdgSIDt/O+nJdjhmGcAG1kMEcGuexHQBo51/kecm2krvxK6Xw+ApJPt0VepfMxuabztbIfDgewLFmTthBb7KZ2H3sPHWHn3v1s2r6Tbbv2sHXnbnbv28+OXbspq/AS1MIEwzriBtnY0sqO3XvYsnU7Rfv2s7toH9t37mbXnr0cPV6OPxBQbYi0v3Nbu0hqt3oXKOACuQvEkqqfBlTnfdmO7H/6VwZ0Z1B1HuCRbQG3gFj2O18f2Y7Ui/x2BkvnOrLd+V6R+s59xaNKR9NCBLUQxyureOnVRfQfOkqV56dmMuflBUzNyuH2O+9m3F13s3BxARU1dYpjlxyvYP7CPEZf93sGDhvBhOcn88K0TG685TZuvHUcq99ZQygU+kT7I8/vIqnd6l2ggAvkLhBLqkbAI2CJgCccloDyJ8XpyLkIcDuDSs7J8cg5+Y1w78iA77wfqSvPkPt0fo4DTKcdck3n6yL3itSJPEcLSeI2hyPLubBlUdvUyuBRY+k/dDRbdu4lqNu0tAfYvmM3f7zjT1wTm0D2nHnUt/rQLIvio8e56bY7GH7tWHYfOERrQOOd9e8zeOS13HHnXZSVlZ1oZ+f2dpHUbvUuUMAFcheIJVU7A0SApWmaAphsB4NBIoCT41J8Pt8JMVrAFLle6ktdKQLACGAjgJNjgUBAnZM6bW1t6n5yvdSR6+VXgCLP8fv96l6RD0XkfOR+0jbVPi2ggvhZMv+Va02L9pDO2JvHkdB/MFt2FRGQfMm2zIl1jlR4ueG2O0gdMow3179H0Ibq5hZuuvNufnfzrRSXe/GbFo0+H+PuvZ9rx46lpKREtU3a6gK5iwPsS1Z3gdxFwsnAlCIgKy4uZtOmTRw7doyPP/6YBQsWsGrVKhobG6moqKCwsJD58+ezb9++TwBPBricf+utt5g+fTrz5s2jqKjoxIegpaWFHTt2sHr1ag4fPszbb79NZmam2q+trVXPjwD04MGDFBQUqPN5eXls2bKFPXv2UF9frz4C8iHZvn27altOTg6rVi2ntsar5siaHlZKLZ8W5vrb7qRfSgZb9hQRMAzlPSU22n7L5o11G7gmMZlnp2Xit228TS3cdu/9jLjhRg4eL8dn2RytruXWe+7liaeeVh+viHQg7Yx8vLpIard6FyjgArkLxFJVbeGGBmvXv8+YG27i8iv7Mv6Rp3ls0lR+P+4e+iUP4I57H+aJCZO47a67ic8YSPrwkewvOYpfM5SCqahoH7fecjt5rxewedtO7rzvz1ydmMzyd9fR2O7npUV5pAweyuVX9+WhCc9zw+33kDZsLL/um8D8vHwCYZ1gyGDTR9u49c572LB5K6s3fkhMWn8u/+1V3H73vewrLqHV7ydr1iweeuxxtmzfxoK810gYNIQxt/yRY9U1NAiXF2cLv58bbr2N+PT+bN61E03CCUl+Zj2sPLCKDpcyePTvGDf+furbA1QJkMc/QELGEJ7PmsX81wu54ba7uP2+h9i27wC+sI7P0NW14k7p+EOfnHoIsN2/M0sBF8hdpadtKlG2zedn5dtriE3NYF5eIXX+MIe91dxx/yNc/8c72XuklMZ2H2+sf4+UIcPIW7qCQNigrq6B8ePvY8qUTIIhnfagRqm3kuHX/54/3HU3pRVe6tvamTozl//pHcM7H2zB29zOtgMlDP3dH3h0wiSafX6aWnxMnpzF5KxZtBkmjcEQL2TPJGXQULbu2oNP09nw4Uf84bbb2LRtO2HTUsBesGwll17dhwUFS/HrugJdW1Bj7M23kjJoCDsPHCCgh1VKV8s0CZo2Jd5qBo0aw5/+/DAtIZ3Kxmb+eM/9pA4ZqUC8at1Gps2ex8gbbmbMH25h9Xsb8YcNwpbE1XcSt8vSVIQzu0Du6qD74voukL+YRp+qIRrhMCFd5+Odu8kYPorV723C29xGczDEpKyZ3Hj73VQ2teA3DKrb/KQPH83sVxYSMgx27tnLyFHXsnjJUrX2GtRNxbmeenEKacNHsr1oP0HdYFH+UsXND1dU0RDQqPfr/OH2u/nT/Q9R19xKc5ufp5+ZxL0PP0m9L0hLWGf6nJe48fY7OeqtxqebZM7MZfT1v+d4VbW6p3Dyo7VN/E9MPBOnZ1Hf0k7ItPCHda67+Y8k9B/Ax3uKCFkdic8tSwF5a9F+9YF4dMJEgpZNZWMTN93xJ4aP/T0Hj5XjM0ya/AFeX76K3vEp/PnxpzleWYtmSsAi8bqUubIL5E8NpDO66wK5i+S0LCUoIo78W3bsZuiosax6931awgYtwRATp+cw5qbbOOKtUoO+usVHyuAR5L76GgHd5IPNWxk26lrmv7JILecEDUuBbn7eEgaMupYDJccU6BYuKeSa+EQOHDtOyIamoK7E2T/d/yA1jc34gmHyC1Zw/a13kD1/ASvXvc8zUzNZvmYtTb6AUkpl5s5l2JixFB89hi8cJmSaNOs2vZPSeD5zhhKtdcvGr4W57qZxJA8cwtY9ewlIm0IawaCmQJ45e676YK14Z63KR+VtaFZi9pgbb+ZIeSWNvqA6vr/0KPFpA7l53F2UHq/EH9JpbfMr4xEXyF0caF2s7gK5iwSTGZ/kTzJsi627dtN/8HDeXv8BARFdA0EmZ83kptvvorSiWgG53qeRMWIMs15eSNAwKC2v5Pe33Ma4u+6hsraBkGnjCxs8O2U6fxx/H2VVNQ5HXlJI36QUDomRhY3iurff+wB33veAArLE7DpytJw//flRbrvvIZa/u4FtBw7TphsELAlIAMtXryEmJY0ly99Q82qJOHKkspqEjIHkFRQoqcIwTNr8fkZe9weltV734RbFYYWb+gIh3nxnLbfcfpdaL65pbFIfn+NVtdw87k5GjLmOooOHCRom7aEwazZsZOCwUeTkzqO+pY1ybzU7du2ivqFBKd5c0bqLg60L1V0gd4FYUlXyP4TNEO1BP6tWv8PV/eLIX/4mbYEQVXWNPPz4M4wYc70a4D7NYG9JOTGpA5iSM5fmgEZ7SOPVvCX0iUvkqeee52hFFTv2HeTGcXeyat0G5JrG1namzpjJFVdezZ7iIzRrYY5W1XLdLX/k2t/fyJGyCtoCGhs2blLKtf4jx/L4i1OZk5fPmxs20uALKjCLCHzLXffQf+hw1r7/IeXVNUyblcstt9/JkdKjBAJ+DENX2ve0QSP44SWXKVH9vc3b2FG0j+xZc7nuxpvJzn2JY94qNe9tC4b5aOsOBg0fxa9+e7U6t3vfQVa9s5Y77rmPJ5+dpOo2tbVzpLSUjzZvoqzsmFoac4HcxcHWheoukLtALAVkW3IKG+zaXcTUzCweeeJppmRmU3SgmHXvf8ikydN46tlJvLakkJ1F+8iaOYcnnp7I1MwctmzfpRReIsrmL13Og48+wfgHHlLXb9u9VymoZM4s93n86WcZd9efmDYjm1179/H60gIeePRR/nTfA8rqqqG5nYOHj3HHfQ+ROGAog0Zfx1WxiVxxVW8efWYiNY0tytjj8NHj5OTO4Y6771FLQ3lL8qnwVqrlJwnm19LSzOuvv86Djz3F+Acf4877HlFa90eeeJbcua9w+Kgj6st6s0gBYrr5wtRpPPLEk9z/0MPcNf5exj/wZ9XODR98qMR1iTMiZp3yHFmiq6qsQtclVKDjsBFxjow4bXSxC9zqn0MBF8ifQ5RTHTJMwzGkCOu0tvtp8wfwazohwzGuaPUH8QU1ApqOZphqLtvqC9Dc7scXCqOJJlgX5wOT+qZm6ptaaG73KfFUxFlxXBDu3tDSqs43tLTgC4bwhYJUN9Qj+3VNrdQ2NrO4YAVzFrzO9n3FHCrzsmP/QZ6flsWtd97N0YpKQhKg3jRpaW+nrqGRltY2Nbd3nBvEEkwsvEy1fi1taGyT4lelxRcgbJhK/BbHClHUqcic6n4+mtvbT5a2dqURDxm6ep4KGCTivRY6YdTiZLhwgXyqsfXXnHOB3EXqKRDIGmtHJEtDPIYMC/kVayjHKwgFAqmriZWUk7HlRB25Vri6JFWT6yQnsq5Kxz0s4foWkoRcjDIiw9+vhTq8kmz2F5dw1/gHyF/5Fn7Txq+baJbNm2vWMWnKdPUREEWWtEmuj4i1om2XNjpxsuWjJNZlIeXxJNfLPFpyTWmmfGwkeufJ5SN5H+edxIHCRDcNNF1HFzNToYnUVXU+mSTdNMWB5GQYIZcjd3HQnUZ1F8inQaTOVcQaSgZwZFDLr4BEfmUgRwZz5+3IeWVkYQuI9Q6AOtfJtQIuVQyxHPvkUo2yJuu4t66WhmzKvNU88uQzPP7MRD7Ysk3NtXfuPUD+shV8vGMnrb52QmFNtUs933LiYktiONVWeQdT0qw60TklGL5qh7RFvY9YZBkqy7ppio23gNG5h4jIwsk/va+OCR3kI3fC9vyT9dS1HTkhXdG688j667ZdIHeRfsI9ZZCKiO2YIToDXIAgweQNS7icsy37Ao4IN3S4oABEjncUsaKSQd+R20lALCVigqnOKftqXXFRuZ84Oog4v3v/QV5e9Dq5818hL7+Qde9vpLikhJa2dsUx5XnCCW0FQCdCpsrwqD4Wsq9j2QL2MKYlHxdHAnA+RgJaAbA8V7bFHjyMocAvHzK5VjI4S6h857zUVR+dEw4lzrvK+0px58hdHGxdqO4CuQvEkqoiJguYlMjZIS4KUBR3kpwO1sm5pzOAHdtsB5DOeVXHEvFUQOIAWeVEFjDLl8I6KQorbmo6nFDmtPJsZ+5rdSz76DS1+Wjx+ZSCKSLyqg9FpF2dksKJhZfzcTGxzFAHRxauLOCUKYIDZpXaVQFY2qg73Ft5TTn7KsGcALmjqFC6Ene7I5vFJz5anTi5y5G7OOBOs7oL5NMklFvNpUB3poAL5O7cO27bXAqcJgVcIJ8modxqLgW6MwVcIHfn3nHb5lLgNCngAvk0CeVWcynQnSngArk7947bNpcCp0kBF8inSSi3mkuB7kwBF8jduXfctrkUOE0KuEA+TUK51VwKdGcKuEDuzr3jts2lwGlSwAXyaRLKreZSoDtTwAVyd+4dt20uBU6TAi6QT5NQbjWXAt2ZAi6Qu3PvuG1zKXCaFHCBfJqEcqu5FOjOFHCB3J17x22bS4HTpIAL5NMklFvNpUB3poAL5O7cO27bXAqcJgVcIJ8modxqLgW6MwVcIHfn3nHb5lLgNCngAvk0CeVWcynQnSnw/wGlswAvZg8UfQAAAABJRU5ErkJggg==;" vertex="1" parent="1">
          <mxGeometry x="370.5" y="860" width="224.07" height="100" as="geometry" />
        </mxCell>
        <mxCell id="hJJdkhpLcyISavDwx0z2-32" value="" style="shape=image;verticalLabelPosition=bottom;labelBackgroundColor=#ffffff;verticalAlign=top;aspect=fixed;imageAspect=0;image=data:image/png,iVBORw0KGgoAAAANSUhEUgAAAOsAAABeCAYAAADCDeMTAAAgAElEQVR4Ae2dB3gVZfb/Y6MIJCE9oaWSCGLva0FWUelFdN3f7/m157997YIUEcG2KoJiobdVVwUbShEBAek1BEioCem93+SWmXnfz/85M4niKu4aWco6l+dlbubeKfe873dOPyeIv3tprZHRgI9G/Pi1D0v50MoPym9v5b2lAhjaJICFD4WFQqNQ2kJpE6UMlBVAqwBa/rY0lj3AtEDrv7uw+6dLAZcCP0iBoOM/FfzYsNMWfl2HX3vw6QZM5cW0fAQEoKYmoMDSoJWBNhrRgUbwGuiAiTb8GAEvhulHKYWltA1UbWqaBwGNVs5D4fjru+9dCrgUODEFgr7D4WzOqtCGD2X40YaFgAs/aBMbqB5L0aBMTMuP6avDMgXQAQKWn4A2CKDwKo3P0phKYykLpQIo5bOH1n60VjYHP/GtuZ+4FHApcDwFgprFXnunsFZ7aCxtYioTZSp0ALThcMkGU1GjNaVaUWSZlGmLItPgmKXIV4piNFVo6rSmUVsYGChBOo1o3YBS9ZiydcF6/Dy4710K/EMKBB3P4RycOuKpF+GSfpT2g9mAZXjwag/laLbX+JmbUcXv38pgwHPb6Dshg8FT1vL/5m/jhdVHWZnr4VjApMLy0aC9BHQjStejtcfWeZU8BJTLWf/h7LhfcClwHAWCREsVduroq2ChMXWT6Kr9mJbHFnfrlcWRRouZe3MZOncll766jKv/upubF+dx9YJcrp6SxZXP7uTqJ1fR79kVTPo0g/UlPvINqFAKLyaGMjCV4eixTYas4+7FfetSwKXAD1CgCaxiydWYaAJovCK0WpoGbVKlfRRqzYpCL48ty+LKKZ9y46I9DMioZdBhk+E5MCjTR9/36hn4no+h73jo83Imtzy1hv+atYul2R7SaxWlFni0RaPy4xPrsCsG/8C0uB+5FPguBYLEj2JZYsH1oLXBUa/JR3V+lhf5eC/Hy4s7qvnNx4e4ZfZmur++ir67qxl8NMCQQovBJZp7CjXD9/sY8k4VIxZUc998D/csaOCu6eXc+MJRbnpmD3fPOczjayqZfsjLhxU+Pq/38lVdgHJLYwR8WFYDlpilxDWkAyitURp7oFWTHv3dm3f3uBT4OVEgSEy8SgfQloFpaeZvPMyg+evo97et9H57C9cs3MLV76XTe20+dx3wMCjPYnixZmiJZnCxZkSeZnh6I0PeyuPu+QX8al45IxbUMGR+Df1nVXD7awXcNDmTXzy/mdte3szQ17Yw9JVVjHxvA7tLHBFbWR6UGKIsowms4q91wfpzWojub/3HFAjSCEj9aNPCr+C5Ffu5fu4Whu2pZGhmDXcf8XFvrsHwggD9ixq4q1gzsEQzoNhkcLHivjy4Z7eXYW/lcc+8Au6dU8yweWUMWVDBkIVVDP2rh8ELqhk8v4Jhc6sYNr2U/i8fZOBzS/gqpw5TOKnyYCkTLZZnbTQFVrhg/cfT537j50QB289qKYVpKuoVPPH5Hu5clc2vypQNxv75ioHHNAPzYUAx3FFs0a9EMaDIZGix5tcC1l1ehi2s4J45Vdw7u5KhcyoYNLeUQQtLuWtGIf1nFTF4roC1juGz6hj8WhFDpqxnfYHjl9XaiynWYWGn3wKrmL2awp3krftyKfAzpkCQtiT8T2FqqNYwctkObl1+mP7FHvqVNtK/3M/gUoshpYoBJYpBJZphZSIGWwwr1tybC0N3NjJofgXDZ1YyYmY1w2dVM3hupQ3Q4fOrGTK3gkFzHLDePbeGQW/kMnDKer4sDNAoUVDaub6EKmrEXSQhi8JZxVJtOrGJLlh/xsvU/elCgSBhXP5AAK9SVAFjV2Zx66e53JtrcXeBYkSh4t58AaVmRK5maL7i7iLFsEKT4UWae/Ng6B4fAxcWMHRWIXfPKGPYjGoGzahhwJvVDJrpYdDsOgbMqmbg7FoGzqqg3/Rs+r70BeuK/XiVabtyJEjKEt1ZIo1tPVqMTC5Y3WXqUqCZAkGYBsJdLcugFhiz4gA3L8/mnny4u8AZopf+Ohd+lQcjimBYnmZYEQwuNhleYNE/vYE75x9l4KwcBk/PZ9CMYgbMLGfADBmV9J9Rzp0zyrlrZi13zayh7xv53DV5G2uKAngc3mm7jMQKLNZgA4l8EiNwE1jliWJ7gptv2926FPj5USAIyYpR2FkyDlizuHlZNkOKYFCxM4YXwogCkO2wUs2QAsXQ4iaw5mv6p/voO6+QfjMKGfhmEQOmF9JvZgH9Z+bSf2Yx/WYUccf0Eu6cUW2P214v+B6wigVYdFbJ43HAqprAqu1QDVcO/vktT/cXH0+BIAGHxAeLCCpgHb08k5uXHuWuUrizzBkDbWDCwBIYVG7ZxiXxsQ4qNrk7DwbuDnDr7Br6vllJv9fLuevNIu6cnsedM45y14wc7piew+3T87h9eil9p5dx67RjX4O1QWPrywJRW+yVlDyJdnIS7my+KxzWherx0+a+/zlSIEjZOTISveSIwaOXH6D3Zzn0K4U7yh2wDigBGbJvQIVB/xLTNjQNKrYYkQeDdwa4cWYdvV+v5fZpNdz+Whm3vV5E39dzuePNo9z+xhH6vJHNL98s5JdvFnDLq4fo99JWviw0aNAOR5WAfzE0cRxYhcOKa0miq1yw/hyXp/ubj6dAkKSPGxoM3aSzLj9M78/yGNokBgs3HdzEWQWwwlkHFpkMkaCIIpN7bLD6uXZ2MTe9Ucqt08roM62cW6eV88tppdw2rZhfTiug97QCbn2thFtfL+LGqd8Fq81LJQdPgv4x7dBHAasYmyQM0gXr8dPmvv85UiBIsk/FEhvQJtViYFp+lFs/K3SMSQUwrLBJVy10QDukTDGo0LJ9rEOKTNt1M2Snn6vmHeSG6Ye45bVcek8rpvcr5fR5pYJfTqmj99Rabplaxc2v1tD71XJ+8XI2d7207VucVR4aEhDhgNU4DqwiFLtg/TkuTvc3f5sCQT7AsFPWfFRoGPPFMW77pJgRhQHuLjIYKpFKJSYDSwMMKPcxoMTHwCIfQwoD3FNkcV++4s70Cm6YcZjrXivgulcquWFqDTdPqaDP1AKum5rNNa+XceOUInq/WMCNU8v4xcuZ3PbcEjaW+mzfrkcMS5KcbknooxO5JH5fJx9IgiIkofbs5q1afMinZThqhhNvLe6wb0ZzLvPfb7+9RNy/zhQKBPls45JhB9FXKBi74ghXzTrMXSsrueOLKm5fVc0vV1fTZ00Fv1xTRp8vSrl9dRW3r6zl9s9ruePzagasqea2z0vps6KC3itq6L2i1t7euqKCW1ZWcNPKGu5cUUW/pRX0WVHLdYuPcMdLS9hU6qUGbL3VNnRJyGHTYvo2WIXjnt1glTI4p2c4tnTR/o8ffw/Q4/8+Uxanex/fpkBQQAw8dnEzP7UaXlqXz2Uv7eCal49w5ZQcLp+az2VT87l86lGunHqAS1/ex1WvHOPKKYVcObWIy6Yd5q4Py7kvR/GrfM2IQpNhRQaDSkwGlCoGFWsGFGjuy/dzX56P4YWaGzcV8quZq9hR4bMt0A2ikUqiu5R9+RqsjpdVlphdT+YsB6vZ5E8+1dvjAXr8e1ex+DYQzoa/gsR8I5UbtOXDj+a9/dX0nryVq1/K4YqXCrlscjmXTq7g8smFXDU5h2umHOLaqflcPaWMK18pIXVKJn0/q7AjnO4tNBhR0sjQsgYGVHjpWxmgf6nJgGKL4QX1jChsYGihxbXLshizNJ2DHrEGO/mzUpfJAatTJ1EWliMGC5CbQg7PBoqe4B6dihySqHCKhxInepNucfz2LH/4nYDM/9a7gwJIuJ+FNv0E8LOlws9/z0vnksmH6Dk5j9TJ5aROriJtcgk9J+dy6eSD9Hz+EL1eyqPHlDy6Td3LzcsqGX5McU++xb0FfkYU+RlUEuDOUotBxYrBJRIJ5Wd4ocHALB+3vbeXd/eXU24qfFJJUeKTbLA2xQXbNRaPB2tTMP9ZPBWnHKTfeig4pXqOF3Xlvfs6uygQ1CjhfZZCCVh1LUd8mrFLDnLxi5mkvZhD0ovlJLxYTdKLpaS+mMdlk3NJe/owPf+SS/cXc+g2JYubltUxOF9zd4Hm3gLFvUUWQ4o1/SRwotBiQCEMKZKoJ02frbUM/ms6GysMGpRFQNkeVltntiTjxtas5P9mA5MsKofHnl2k/fbdSqmc0zEM7XiqxVt9/HDF4G/Pz9nwV5CpvXYRbkk+lzrAlSasL/KT8MQqLn5hP6kv5JPwfCkpL5aT8pcCLnruGD2fPsrFz2Rz0bPZdHspk+s/rWRgoeausgB3lnsYUGIwqEgzsNhicFEdd1T7uL7c4I4ixc2LdvHM+sPUmBqfVljCASSzRsTxJoeN8FRHv7IT5M4qH6vo3M0czFbFpW6yKZZgJzHB+RwkLbG5aFzz9/+VWyX30TS+uY5INI51WAq2y/h7EH/zXZcTn25AB8n0SOFubVft9tGoTfJMzZ+X53D1X9aS9PQuEl7Io/PzeXR57igJz+eQ9NxRUp7NJum5bDq9lMW1n1YyuEBS6HwMKPUwpMjH3YUWwwtN7iupp19BLcMqFTd8cYQhC1azqbQOn4QZ2ktDuKbw0ebRVNn/ax57dlV1aQagTKwsfFnizQtezMFCZ0mckK0lyfaW9SOHHPN9w0KLOvP34wTnN5sfIFKI3ZSOCXJOxxp//KJsvnfZuq/TS4Eg0Re9pgTyS5l9D36zjjpt8VWjxX/O/YqeT60j+cUcYp/PI+a5HDoJaJ89Rrdncun6bC4xLxzgmiXVDMqThPQAA0v8DC3yc0+BxT0FivtKvQzPbaTf9lKumLaUBRlFVPl8WMKBmhb0N3Bs3vMNYJ09Z0/OjW4qsSoc1FSWLTnYv8Z2kUmRdOloICKpXTfdDvaUoug/dRhacaLxfecW+tv3aEkNLss2QtmVOsQIddzLBetxxDjNb4MatWFXMrTFUdMDqhFDKcq15u2dJQyasoWkcTvp/Ewecc+XEPtMIXGT8uk8MZ9OkwTAh7j2w2oG5iv6F0H/YglDVLaLRrJ0BucFuOdwA9fO/pIxK/eTY2m8dsK5Ixo6i0HWirN4nCe4cFvhu7LYRdc7e8Aqllf5J/Q0LNPeio/YtKR8jQR9yG8yMGXYZVkt28AnRr5/6bAsTLmfpus0ehvxBfw2wG0JR2j8PS1NXLCeZoQed/kgyR4V3dEv1SKMerRqwDQNGk0/BY2K6euL6PP8RuKf2EnUxANETzpG9FNHiZEx8SiRz+3j6g8rGJJvMqBI01/S6iR2uMiwQTv4sKb3Jwe4/5OdHPBY1CnLvp62AyC+AWNzwIA82B2eawvodrqcaLTfft4f9wvOtLc2WCUAQjoYOG4T6QEk1SMD3hoMby2Wrx7TV+u0HvHXY/2o4cHyf8/w1aO+Z9jX8tdjHjfs6zU22uK0ZSn8htS9+v7+Qy5Yz5wFFiTWQp/dzkYKezeiVR1KS0+aSuoDHg56LJ5acYyeE78k7untRD6dRfik/URM2k/405l0/MsOLv+4gLvzvQwtUgwqUgwukvceBhcFuPyTXPq/vZu1hR67F46yGvHb9ZYky8bCtlZKIkFT0MDXvlWbs0oaenMi+plDtB+6E1ufFPt1k0FJ2o6YNR5Wv/oGbz8yipm//SOzfvNHZv3f75n72z8x67d/ODnjN39g9veME51/7sTnyNq8HeULYAbEuChg/W6gmAvWH5rtU/vZt7rIHX9pn67Br/zUKYMCS/PCl9lc+dRGksYeJGRcFq3HHyDy2WOEPLWTSxaVMuxogKHFijtKAtxeUMvdRz3c/PF+/vPdXSzLqbMbWSnLb3Mch6ueNbzyeLJ8/d6OL7D5vTxeJE3eKZIudhgp6WopELeYV3nYtug9Hki5mDFhXRgXEcsfI0N4JCqUJyLDGRMZxePR0YyOimJsRBRPhEcxMjyccTEdGRURzKjwEMaEdmRMRAQjYyIYFR3OuMgoJkXEMb5DBBMi4hgbGcOYqE6MDo1mYlgcE0IiGdcxnJERoYyLCGdcWBgTQsN4KrgjT0ZE8HBMGKM7xfFcnzupOXBMgscwTY1hi+hiZGpCrW09djKfHGnn65/vvjkNFPgBsBr4LcvWX32WSVatybR1uVz/7HbintxFm/EHuXBCNm3G7rDF4OHiT81vZGi+l0E7a7llwU7+a9FWVhR7KBLuYneQk8waCUhy9NXT8HtP2iVPCFax09mVN6BRBfCadWxYMI+xnbsyPTiaJZHd+DA2jqUxnVgZ3Zkl0Z35JLYLn0Z3YXlEZ5ZFduajiBheDQ5mdpduLL/2Rtbf3Je1N9/Oyt63sazP7azofQdrbu7HF9ffzhe33MUnv+jDm51ieT20A4tjYvk0OpbP4mL4uFM0H8dF81FUJJ9FRbM8IppPo2N4JyaSZzuG8PRV11CRnokyRKcWN5qjT0s/XTGUif4thke7e8LZo4ictDk+0050QrDahh2Jn7c0AU8dPtNPYWOAlzYU0GfaVjo8voU24w/T5qm99Hq3jNsON/AfZRZ910rmzUYeW5zF1pIGaqUFpPbiC9QRECOHBLSLm+AsdwWcCKyWIYvbXud45bebDaybM4tRXTvydmQ4mQnJHEtJpjgpicL4RA51T+JIquxLoSAxhfzEFA4lJjC/Y0eWXn4V5b/5E8YjYwk8PIbGx8bgHfkEvofHE3jwSQJ/egL/w09S+tsH+dtF3XgrJpgt3eM50D2Ro92TOJyaRFZaIpmpiRxNSyWneypHuqexPSmRN0La8XTPNMq2b7ddR3bdZi0GMYkiE7G4yULcZHQ6u+WgMw12LbufE4JVdC3bJyg+WEMslwG7R00Jmr/uLWfYgv3EPbWVtk9s4vJFFYzIDnDDkkz6zNrMpJVH2FdlUW8YWHZTZQPhzl6JAxYrqd0N/eye/h8Cq3BWaSItYDXNRtbNnsWfu17IvKgOHEiMpyglnsrErpTFd+ZwSmdyUrpRkBRPaXw8hfHdOJDQlent2/FJr8uo/O39GA+NwffA43gfHYP3sXH4HxyLef84zD8JiJ+g4P9+z8LUBOZHdWRXWneOJadQkpRCUWISR5KTOZScRE5KKnnJF5GdeBG7uiYwL6wDz/dIoWzLRrQVsC3Tkk9snACsLVte7lEnkwInBGvA12C7GPyWr8nkrwgI2MyAHeW05lg9Dy5K5/Jnl3Ppq9u5adYGhs/fwJzdRWQ3WLaOaom7QnrpAJI3Kz5dqUjh9LT59wSrXSlSwGpp/BJKaTawftYsRnYJY2FEOPsSUshOSaYwKYmi+ASOdO/OsdQ0SpIvojy+BwWJPdiXksqcjmF8dskVVP3uQdTDT9jDHDke36jx+B8bj/XIBKxHnsQcPYGC3/2Rt9N68FZkNPu796CwWzKVXZMo75ZIYXIquUndKUhKoygxjYLki8hMSGRuRAjP9uxO6aZN6IADVnEpGTpgu5WaxWBbTBAd1hWDTybuWnSuE4LVUH4aVD2N2mM/bSXKpTnSRfksvD6DPI+fWTuLufOlzxn1QSGri7wUBBpp9HucEDvhrLYYrGiwC3eLLhRAB3zfNTu26PZP30En4qyyrh2dVdvVNwzTw4ZZsxndKZZ5YbFsjk9jV+pFZKWlcTg5lYzUnmR270V20qXkJlzGgaTL2Nj9Yl6LjOS9Sy+j8A/34x31JL5RT1E/ajy1j42l4eEx+B8ei/+hsfhHj+fYb3/P/B49mBMZxe7uqWR360JRfBcKk7qQm5LIkcR4jiR242hiV452TyA9uROvR3Zg4sVplG7aAgEnckkMTNK5XrbNrhxEd7Uft2f3w/X0rZSTd+XvgLXZVF9vi6zivG9qhKx8th6jJFxOFE9TE7A0FVpzDEUtGslL9UsWT1Ocr9hIJe0uoMUhLxxVwtpMLMP6Oi725P2UU3umE4FVYpolEki2huEnYHlYP2cOj3dJZEr7aBYGRzInuD0LO7Tjr8HBzO8YwpsdQ3mtYwQzOkSyIDSOmaHRTI6M5pW4rsxJSGVu11QWJvZkbkIqs5JSmBefzDtdknknNp63OnXjraQkpnUNY2pUKNNDQ5gX0poFHc7lryHtWRARzNzg9izo0JH5odHMiOnMi7FRPNEpjpGXXEbh5h0EasVVp+3a0XaEtu0jFou2Qkm4oq22CGjd1+mkwAnBKpk4poDM/ieFQqVavkTgCHgbnWRxLZWTLBrtOvryDamd5Lch6gTQOc52m9NYTiC5+FZNJbmrZ7eR6ceCdWRcHK+0D2NRRBTvR4XyYXgwi8NDmNrufF7vEsm7V13OZ1ddz6orbmD5JVfz4aVX8fFl17LiqptYeukNLLviRj64+AreDIlidvtI3g+NY3FwJO+HRPBOeDiLIjryfkgwi0OD+Sg6lL/FdGRGx2gmtg1hSmwS83vdwsxLejPt8ht4+aorGNUllod6XUzexm1or8QHg2E0xY3ZzbSbkw3E2CStOF2wnk6gyrVPCFbtF7FXUtgco5CIRwJETbXNRy08WNLqQp66dqtGAalUevDaw8Lr8FXbQGWXWEIMjNI1zku94w44iy3CPxas4zvFsjAikq2Jyezukczei5LYnZbMjIh2fHDdpRz8w2+oeHgkjX8eSeMfHqHxgcdpuH803vvH0fjHx/H8+XEK/+f3vN01mfdiutqi8p60XuxN68Gu1FTSu/XkQHxPcpK7k5mSwNoeiXzQqwczrr2Rlf/7R/JfX0jR/EXkL5hL3vxXWP7Y/zD7T7+mcO92lCmhkJLQIX5wEYEda7bttpEqIi5YTzdO7eufEKzKbyBuCBF1xYLrt3UZH1pLhJPosV782m/vN22/nIjJAl4vlpJJl2LdXltk1oZGB5wsE9GFG+1z/Lw464ToMN4PCSMrPpljqSnkipU2KYHpbc7j0ysvoezBBwmMnAAPPImW8ehTqIcnoB96CuvBCViPTqD8N/fz104JLI7qxK6UHuSl9bINU4UJyRTEp1CdchHVCd3Jik9i4003sOnP/03O5yvxZueivV60NMz2lUJ9NuRvojjjc7z1xRiWU+hdW81NwZwia6ISKSUqS1NN5zNiyf58b+KEYJW0ObMpgsWS2r0CVrsEjIiwhq3PSDK17UiXtGY7H1YmtikgvblJs+SrSuqV9IAV8VcHCEglw5+ZGDw2NoJ3wiLJTEi1rb/iXslKSmFOm1Z8ftll1N3/GOrhiegHnsZ85BmsUc9gPToJ9YiMiajHJ1Hxuwd4t3MCH0V1Yk9yGnnJaRQnJlOckEROUjSHU7uw49JebBk0nOzXpuI9sIZA5Wo8he9Sc/RVKg48TcWh56k4Oo3Gog8wq9ejVRGG1Yhlz5FwVQGmE8XUbL842+fq3wXeJwSrtLUQV400isLy2uKupGB5m+J57bJIdj6mgLDBaYTs+NEda799rFN+06mtVI/WHttYIXmcInadzYERP1YMfqhbNLOjY9iRlMb+1FT2pXRne3Iys9q2Ydkll1H1+0fw/flJGu6fROWjT1P32AQ8D42n8YHxNN4/Dt8jT5D/v79jdufOLIyJZm1qMum9unPg8os4eO0lZNx0Nft+NZS8lyfTsHUrZlkWVUfeJ3v9fRxacimFH0VQtSSYsiWx5HycxvYPb+fg9seoqf4UQx3BVJVYWtQTKUYgnNaxEDeLxGexxvLvgtXv6qz/Nr/sX/xDmmsAS1ywkxTneCLFDiMPNUkqx7CwvI2snjePh+MTeCk8hneiu/B+RBwfRsTydmwEL0R2YHpqVxZfcxmfXX01y6+4nmVX3czS627ig2uu44Nrr2XJNTew4qpf8kGP3kyNjuf50NbMvCGJnc88Sum8hdS8+x6+w/vRFUdQtbsxixZRt/tB8lddTeW6KBo2B2PtaoNOb43e0xGVkUDd1iSyv+xE5vprKTk6EbNhJ6avnIDlBdOL9pfhVwFqLGWX3nHB+i9eUP/E6b/DWf+JY9yv2NUfHKnhnwHrKgFrp8680CGctzvG8G77cBa368hboR14I/RCZka0Y15UCAs7yohkXniM/d0p0XHMT+vBuz0uZXGPq3kn9WrmJPViTq8erHn8t/hydmDWZlCZ9zY1x16n6uAkCnf+P7LX9yF3TRJlX7XHt6s11t5WsP889L5zsfa1xcqMQO0LxZvRjqJtYRzc0INDmwdRsOd+So89R33eNDwFb+L17EDalUlc99ksBf27LFgXrC2cyX+Ks5oWpt/LqvnzGN21M7OjY1mfmMruxIs4FJ/G3uRk9qQmkJ6WQHr3BDKSk0hPSWVLchozo7rw0VXXc/R/fkPFHx+i9k+PUfXAKGrvH0vJn0ZTNvdtdGEOxRnz2bX0dg6u7kH22njyN0ZRvi2Eht1tsPafiz4QBAeC0JlBWPuCCOw7HyOrPTq9HXp/B8ysEGp3h1KyKYrSDd3IXteVgrU9yVlzHSUHX0HrfLQS0dgNimjhUjlph7lgbSEpTwhW0fVFNBYx2FQOWBfMZ2RcGLMjQtmWmMixxDRqu6RS1TWRkvhuFCXGU5wQT3G3RHLjk9jXLYE323VkySXXUPX7h9GPPol6ZDz+UeNpHDmemlHPU/3OClRJIUV7XiT3y+54M8II7G+PmXkhal87yGgHe9qi9p2D2n8Oau/5GBmt8Ge0wcoMRu+JQWfEoLOi0AfC0ZkdYU8YVnoMakc8pasSKdkzAa0K7JrSLlZbuFBO4mEuWFtIzH8EVrGgStyhzVkXzGdUl3DmRIexrXsKObaLpQfVCSmUJiZSLMH9ifGUJCWRn5rK/u7dmR0axqe9rqLmt4+gH5yI9dBEvKOewnhsNL5Rz1K/cDm6JI/CzAkUbAzH2t8anXk+au95qD1tIT0EMkKwMlqj9rVC72uFted8rD2t0HvbozLCsTKiMPaGYe1rh5XRCrXzQsydkaidXSn/ogslu8ejVantinPB2sKFchIPc8HaQmL+WLA+2jmSmbExbOjZk30XX0JOysUcSk7maFoyh1MTOJySQPZFKfIGSFoAAA4KSURBVBzomcbGtESmR4TyYa/LqBKwPvws5qPPUf/4M1SPfJD6JyZS+7fPUGU5FGeNpWRjMGrvubAvCASsGW1Qe0UMPg9rb2v0vtaw/1xURhDW7iD0bvlOKEZ6FP70KKyMUHRGCHp7BGZ6JDqjCxVrO1GYPhqlCvBZHlcMbuE6OZmHuWBtITUlk8j2Qzb7NmRrZxdpO2HfNCR534cVaGTlgoWMjotlcnQs78clsTIuiRWxXfmkUycWd43io85RfBYbzbKYWD7pFMfiLp15JS6KeYndWXn5zWy7aSgbbhvBir5DWNP3Nr7o15fMl15Alx6gZO9TlH4Rgd53nq2Xqv1BWKKfZp6Dmens0zaIg9Dp56G3tYLtHbB2huDfGUHD7kjq0zvgTW+HsTOMhoz2eHcFU7A2gpL949G6yM5xdTlrCxfKSTzMBWsLiXkisPqlapTdQlOiqg3MQCPpX6xmZM9ejIztwsSOsfwlOILnQsJ4KiyEcZHteTK8A0937MBzISE8HRrKhLCOPBgZySOR0YwLj+OJ8DhGRnbizzFxPB4TxcMxEXz40P0YxVmU759E6ReRWHsvwNx/Hub+IIzMIAJNQ2Weg9p3LmS0Qu9qi9ocgt4caQ9rcyyBbTH4doRg7GyH2h6Gb1cEge3hFK8Jp2zvWLQqbIoNbiGh3MNOGgVcsLaQlCcCq5R3syTDSIbE2VoG1QVFbJj2JmsnPs+6UU/y1aNjWTd6LKvHj2XF+FGsHDeKL8eMZt3jo1k7egyrx4xh+ZOTWPnkJL4cN54vx41l5fixLJ00ni+emcAnT4xmz8cfohrzKTn4FMVrojH2tiWwvxWBzPNsoPqzgpChss6xua4N1p0XYm0KQW2IgA2h6I2RqE1RWFtCUJs72H8HtsRhbA6ndFUHKjJGgpkLZsNZn9LYwmk+ow5zwdrC6TgRWKXagiQ32IC1wWra0V3SS0j7GtGeenR9LcpbizJq8RvVmP5qtLcG3ViL9jrD8NajvPVoXy3aX4UOVKHMKrSvBquhlkBjPT4zn8LsCRxbH0Vgb1vM/TJaY+4/H1PE4KwgrKwg9H7RZYNQO8/H2NQKa0M79IY26K/aozd0RG8IRq8PQX8Zg7khDrUxlPLP21C55xG0mYu2JPrMzbpp4VI5aYe5YG0hKU8MVqkXLDG2TmtHZQqnNfEria+WMEuJnzbt4PmAxEk39ZiR+GvZLyK0ZARLRpNdD0k4tCEZUFLNIYAhGTJSPdGy8DUepSbnCQrWhmGKNXefY0wSyy/7LoB958G+c2DvOZBxrg3WwKYL8G9si7mhHdZXYVjrI1FfhaLWhaJXRaPWx6DXd6B8RTvK08ehzQo7p9kFawsXykk8zAVrC4l5YrCKgUkKwwlYnd4zIg7brS215Ah/03lADFROMoSTkiZGHCl2LjWUNWKB9aIMheXHrkD4dU0sKbThVejaIzTse4zyz4NRu89F7TkPnd4K9rSGdBnnw55WzvvdbVA7LsS3sR2+DcF418fgXdeVwLqumOsjUGtDUKvDUWuj0OuCKVseSumu51GG185QlqBK93V6KeCC9fTS/ztXty3MkgRhOCmFPjv/V9pciDgtFVYsTDOAcGJtllC5azyVn0Vhbj4ftelC9AbRPUU3bYXe1AZz4/lYG9ugN7bG3HgOgU3n4/0qBGNdCP71oXg2BFO3sT31Gy7Eu7Et3s3nYG45l5LPu1KxdzLKX4VqLqImBab+DdpvfofoZ8kOF6xn2ER9DVZTwCocOYBPanAIOIXlWtJDR3rpijhcTn3WS5QuTSKw+kKs1R0wV4fi/zIY39o2mF+ej7m6tbN/TXuM9Rdgbb0Aa8eFdgCE2tUGI701gfRWGLsuwNrVGnPXeZg72lK48iKqsqajrToM3WCnNoqk4IL19C0YF6ynj/bfe+WvwSplcCyngJlfXEDSylGS+JUUXvfhkxYnupZA/jvkLb2WxqXhmMvDMFZE4FsZhW9lONbn7VFLQ7GWRmAsC8NY0x61rRV6/3koiRu2rcVBiG9W27rtBejMc6jf0ZacL6/DU/AhWjfi01LpUtLmXLB+76Sdop0uWE8Rof/Zy3wNVumbauu+YnCSwmVK+kU6YNVevFKJQ/swazZwbNWvqVmSQGBpLOayKALLOmMuTUAv6QIfx6I/icH4NJLAFxKldCFknYNxIMi2FqtMAWoQeu956L2tMA+eQ/6mC8nZOgKjfoedjO6T6h92UroL1n92Hv8V33PB+q+g6k8459dgtSttiFXYqZQoFmABq5KC3LoRMfvYDb4CuVTun0rx0hup/TQR47Mo1JJY9EeJ6MWJ6A+6oD+KxvwsDGNVR9TW9ujMczEPSJTTeeiMNrD7QnR6W9Te1tRktOXgV6mUHp6MMsrt7gmGXSTP5aw/YVpPyqEuWE8KGU/eSb4BqwRVGHbLK7uGr5R/9StUQGpcNdi6bJ1fGkjVEqhcSd7nIyj95FICn0SjP4pCL+6Cer8L5qJYrI8jMJcG2/qstS0Uve8CrAMi/p4Puzugt3dE7epgB/wXbo4h66t+eMpWo02DgNTOQupuSYVDl7OevJn+8WdywfrjaXZKjhBHid2XTgxLUgJHLMECWKk2SMBOw/OJm0fcQ7qU+qNvcHTJHVR+0Bm1NATz/QtRi+LQi6MxPo2gZkV7PKtboze3hZ2tUXvOQe+9AL0vDGtna8ydbajbEsnuFVdQk/cmOlCBkuvZuqokn7tBEadk4n/gIi5Yf4A4p/MjB6xNxcuawCrFw78Bq4nfru8remwd2rODqt1Pk/fxFdR8GI71URjq3QjUohh8S2KpWR5O3apgrC2SeN7WNjIJh1XpF6B2X0DjznBy1yZRmjkKs34jyvQitbLEBK1Npx7T6aSHe+3vqRvsEuXMoMA3nFV0RUlm106VSIlyssupOyXVnar5UqTbg1W3heLNvyPnw1TqPohBLYrCXBSH/8NOeD6NxrOyI+bWYNuQZOw5xzY06QPn4dnehqOr4snb+R8YdevRluiqJqYdjeFDGxLccWbQ5ed8Fy5nPUNnX6KZHNOSU2nQKbjtBEM47UmkHkVTnV9L4zNBqyr8FR9TsvV3ZL/fi9p34wi81wnz/TiMD8LxL2+P2nqho7PuPQ8r6xzqdp9Pwfp4sjf+J57yj9CqwgapFH2TXgtojx3uKKK4+zq9FHDBenrpf8KrO2my4rQJOIYm29jkc9Lu7JBF0VXF1ypDYUjoolTOt8owKtZSsukxChZfS907CZjvdEK/G4yxtDXm1rZ2ZQiVEUXl1mCy1yVSsvsP+Mu+tK2/pvLiNQ2794IUZLevYRf5dsF6wsk6RR+4YD1FhP6xl7E5q7hvbFOScFEZjQiM7Phiu+6ytCyR6CIDw3IqEJoSS+ypwar+iqr1v6HinV743+6G9bdg/Etb4d/WHv++cOq/SiRnRTwlu3+NUbYUvHVOBwYdwGMF8GrwSmNoJV3rna5yP/Y3uN8/uRRwwXpy6Xn6zia2J8nGkQLqEujvqUdV76Vy69Mc+eRODi8Ko3pNG4xtUVSt7cTOZX3J3zcR0+tU5bf72cgDwH4IOGVWHVeNk8rqVoo4fVPbfGUXrM2UOMu3TsaOpOFJqp205DTBXw4NG2nIf4Psr4aw9+M0Dn92OZUbhuIpnIfZuBGt8zBVHYa4hCSFrzlbSFxGtl9VOie4uednwvJwwXomzMJJuAfpORSQZmF4EU+snXqnZF8F2jpEY/XH5O39CwW7XsQo/RQCR0GVoawGDGmUbevBAlbhqgJUw/bz2kXMXbCehBn66adwwfrTaXhGnEFS5hywNuAngE9riU4kYAdO+FBUoHWhHUChVS3arAGrwXEHSVtO6VNkOl3jbLBKszE7s9bp9ieRVe7r9FLABevppf9Ju7qWLuVaOKR0q5f8V0mrU5iWtochflNpZC2NxaTLuUQm2b11ldOW03b9iLhr2iDVdvNsOyfP8fO6YD1pc9XSE7lgbSnlzrTjJCvH5pBiJJKm19KPXvyyAtDmihSSducYkb7eZ3ekl0oVAmCFsjmqdLmXIWAVkfjs7qV7pk1VS+/HBWtLKXemHWfY7evAtOwQQWyw1qPxNwFOuKb0uxMge+w6T7YLyO5yLqVmBJCi7UrHep8Tl2z3x2vqjnem/d6f4f24YP03mXQnHFG4poBOuKEES0gdJwGnGI0c7imcU/y10hxbRGLhpsJ97Qwfu3yL6LfCVUUcln8uWM+UJeKC9UyZiZ94H45YK5KwiLMyDCwtSeMSASVgdIqyiaArYJT9znfEZSPfkdBFAbgEWohxyWoCq7aPcGD7E2/SPfwnUcAF608i35lzsIFYg5v1UwGmA0on8smJQBK91B42/ITDymjWT5u2dkqcZPuIwUog63QWcMF6+ufaBevpn4OTcgdS4sWS4uJK3C9NIu/x4Yo2dz1OrLV11GaRWUzBzeZgEaFFbHbA6kBVRGk37eakTNRPOIkL1p9AvDPpUClspqVDuSWlX5qMSXZggxiLnMwdAWDz65uKFE5oYRPCJWaxSe8VLizNQAwCtoj8zbHN53C3p5YCLlhPLb3dq7kUaDEFXLC2mHTugS4FTi0FXLCeWnq7V3Mp0GIKuGBtMencA10KnFoKuGA9tfR2r+ZSoMUUcMHaYtK5B7oUOLUUcMF6auntXs2lQIsp4IK1xaRzD3QpcGop4IL11NLbvZpLgRZTwAVri0nnHuhS4NRSwAXrqaW3ezWXAi2mgAvWFpPOPdClwKmlgAvWU0tv92ouBVpMAResLSade6BLgVNLAResp5be7tVcCrSYAv8f3NNlo+G/R+gAAAAASUVORK5CYII=;" vertex="1" parent="1">
          <mxGeometry x="362.5" y="491" width="235" height="94" as="geometry" />
        </mxCell>
        <mxCell id="hJJdkhpLcyISavDwx0z2-40" value="Tường lửa" style="text;html=1;strokeColor=none;fillColor=none;align=center;verticalAlign=middle;whiteSpace=wrap;rounded=0;" vertex="1" parent="1">
          <mxGeometry x="190" y="540" width="82" height="20" as="geometry" />
        </mxCell>
        <mxCell id="hJJdkhpLcyISavDwx0z2-41" value="Proxy server" style="text;html=1;strokeColor=none;fillColor=none;align=center;verticalAlign=middle;whiteSpace=wrap;rounded=0;" vertex="1" parent="1">
          <mxGeometry x="198" y="640" width="82" height="20" as="geometry" />
        </mxCell>
        <mxCell id="hJJdkhpLcyISavDwx0z2-42" value="Server ứng dụng" style="text;html=1;strokeColor=none;fillColor=none;align=center;verticalAlign=middle;whiteSpace=wrap;rounded=0;" vertex="1" parent="1">
          <mxGeometry x="191" y="765" width="82" height="20" as="geometry" />
        </mxCell>
        <mxCell id="hJJdkhpLcyISavDwx0z2-43" value="Server cơ sở dữ liệu" style="text;html=1;strokeColor=none;fillColor=none;align=center;verticalAlign=middle;whiteSpace=wrap;rounded=0;" vertex="1" parent="1">
          <mxGeometry x="198" y="900" width="82" height="20" as="geometry" />
        </mxCell>
      </root>
    </mxGraphModel>
  </diagram>
</mxfile>
